/* XPM */
static char *EF_11676135195[] = {
/* columns rows colors chars-per-pixel */
"64 64 148 2 ",
"   c None",
".  c #3C1F23",
"X  c #3F1F22",
"o  c #471F1F",
"O  c #481F1F",
"+  c #4A1F1E",
"@  c #4B1F1E",
"#  c #4C1F1D",
"$  c #4E1F1D",
"%  c #5D1E17",
"&  c #5E1E17",
"*  c #521F1B",
"=  c #571E19",
"-  c #541E1A",
";  c #541F1B",
":  c #561E1A",
">  c #511F1C",
",  c #5A1E18",
"<  c #5A1E19",
"1  c #5C1E18",
"2  c #621E15",
"3  c #631E15",
"4  c #601E16",
"5  c #651E14",
"6  c #641E15",
"7  c #661E14",
"8  c #681E13",
"9  c #691E13",
"0  c #6C1E12",
"q  c #56221C",
"w  c #5F261C",
"e  c #5E3A1D",
"r  c #682216",
"t  c #6E2214",
"y  c #6E2517",
"u  c #712213",
"i  c #722213",
"p  c #732213",
"a  c #742313",
"s  c #772513",
"d  c #712516",
"f  c #742615",
"g  c #782614",
"h  c #792915",
"j  c #7C2914",
"k  c #7D2914",
"l  c #7B2C17",
"z  c #72271C",
"x  c #752D19",
"c  c #74291F",
"v  c #7C3912",
"b  c #421F21",
"n  c #451F20",
"m  c #4E3236",
"M  c #653431",
"N  c #7D3A31",
"B  c #6F551D",
"V  c #802B15",
"C  c #812C15",
"Z  c #8C3316",
"A  c #833419",
"S  c #8B3B1C",
"D  c #913717",
"F  c #913B1A",
"G  c #973B18",
"H  c #933E1B",
"J  c #9C3E18",
"K  c #9D3F18",
"L  c #8A4913",
"P  c #924515",
"I  c #9B4917",
"U  c #8D5412",
"Y  c #A14219",
"T  c #A54419",
"R  c #A6451A",
"E  c #AC491A",
"W  c #B14C1B",
"Q  c #B6501C",
"!  c #BC531C",
"~  c #B25E19",
"^  c #BB5E1B",
"/  c #82701C",
"(  c #8B7019",
")  c #83443C",
"_  c #C1571D",
"`  c #C35E1D",
"'  c #C5651C",
"]  c #C86C1C",
"[  c #CA731B",
"{  c #CA731C",
"}  c #804A47",
"|  c #8C4845",
" . c #8F4D4B",
".. c #8B5049",
"X. c #8F5750",
"o. c #9B5D5F",
"O. c #94605B",
"+. c #B36140",
"@. c #9A6965",
"#. c #9A6A65",
"$. c #A0736F",
"%. c #A76D72",
"&. c #AB7278",
"*. c #AD767C",
"=. c #A67C7A",
"-. c #AA7F7F",
";. c #968B1B",
":. c #A88B15",
">. c #BD8117",
",. c #B78815",
"<. c #BF8817",
"1. c #CE811B",
"2. c #D3901A",
"3. c #D79E19",
"4. c #CBA116",
"5. c #D4A118",
"6. c #DBAC19",
"7. c #D5B316",
"8. c #DDB318",
"9. c #E0BA18",
"0. c #E4C817",
"q. c #E5CE17",
"w. c #E6D116",
"e. c #E7D416",
"r. c #E8DA16",
"t. c #EAE015",
"y. c #EAE215",
"u. c #ECEB14",
"i. c #EFF713",
"p. c #AF7A80",
"a. c #B07F84",
"s. c #A98381",
"d. c #B28388",
"f. c #B18F8F",
"g. c #B68B90",
"h. c #B88F94",
"j. c #A59093",
"k. c #BA9498",
"l. c #B79999",
"z. c #BD9CA0",
"x. c #BDA2A3",
"c. c #C1A4A8",
"v. c #C1A9AB",
"b. c #C3A8AC",
"n. c #C2ABAD",
"m. c #C2ACAE",
"M. c #C4ADB0",
"N. c #C8B5B8",
/* pixels */
"                                                                                .                                               ",
"                                                                              n .                                               ",
"                                                                          .     $                                               ",
"                                                                            .                                                   ",
"                          .                                                 2                                                   ",
"                                                                                                                                ",
"                  .   .                                                         .                                               ",
"                . .   .                                                     . .   . .                                           ",
"                6 ;   ; O                                                   . .   O b                                           ",
"                  0     5 %                                                 . . O   q                                           ",
"                        0 0 0                           0 0                   % 0   s                                           ",
"                        0 0 0         0 0             0 0                     0 0 0                                             ",
"                      T C 0         0 0           . 2 0                     0 0 C p                                             ",
"                    Y _ 0 K       0 0 0         . . 0                     0 g G _ C                                             ",
"                    _ _ Y _ _     1 0         . . n                     V Y ` { ' W                                             ",
"                    _ ] _ ` `     . 0         . n                       W 2.8.0.9.3.                                            ",
"                  _ ' 9.2.{ 3._   . 0         . O                       _ 0.q.y.0.0.                                            ",
"                  _ 0.0.e.w.0.0.  . 0         . n                       [ 0.i.i.y.0.                                            ",
"                  _ 0.y.i.u.0.0.  . 0         . n 0                     0.0.i.i.r.0.                                            ",
"                  0.0.u.i.r.0.    . ;         . . 2                       0.0.r.e.0.                                            ",
"                    0.0.0.0.0.    . ;         . . ; 0                     0.0.0.0.                                              ",
"                      0.0.0.      n b 2       > . . 0     0 0 u 0 0                                                             ",
"                                  ; . ; 0   g G $ . 2 0 0 G W _ _ Q G G G                                                       ",
"                                    > b , V W _ G . , 0 K _ _ 1.6.1.' E ! K t                                                   ",
"                                      > ; V _ E Z , V G G _ _ 2.0.0.>.0 Z G 0 0                                                 ",
"                                      ; . 0 0 0 0 , S _ V _ _ 2.0.7.L 9 Z _ _ C 0 0                                             ",
"                                    0 f $ 2 e , 2 / r _ V _ _ ' 6.<.0 k ! 2.6.4.C p                                             ",
"                                    C Y ; ; B q 5 * w G s _ _ _ _ Q C C _ 0.0.0._ C 0                                           ",
"                                  ~ 2._ G . 2 9 * 9 v 0 0 _ _ _ _ _ G k ! 6.6.] _ C 0 0                                         ",
"                                P 5.' _ G . $ 0 U U ( 0 0 G ! _ _ T d $ h l A E F t k I k 0                                     ",
"                              0 E Y G Q G . b % :.;.2 , 0 0 G _ _ l O . $ O b ; ; 6 E 6.^ C                                     ",
"                              0 T k 6 9 0 6 b . 2 % b > 0 s W _ _ x . n . . . 2 0 Y _ 0.{ Y 0                                   ",
"                              n y 0 b $ 0 0 O . . . 9 0 K Q _ _ _ x . 9 2 . . n 9 p W [ ` _ 0                                   ",
"                              ; b . . . O 0 0 0 0 0 0 Y _ _ _ _ V q O 0 9 0 $ . . 2 9 0 s G Z 0                                 ",
"                                ; . . . . > 0 0 0 0 s E E E E F o $ 6 2 9 0 .   . O n 2 6 0 0 0                                 ",
"                                  n . . . b 6 0 0 0 f 6 2 0 6 b $ 9 , . 2 0 .         . O 0 E k                                 ",
"                                    O . . . . . b ; ; > . . . . 2 ; . . . 2 ,             G _ G 0                               ",
"                                    , b . . ; n n O . . n ; ; . b b ; 2 % 6 0           0 Z _ ! Z                               ",
"                                  0 0 n . . 1 0 2 ; . n > ; n n n O 9 6 6 0 0           0 0 _ _ G                               ",
"                                  0 0 9 n b 6         2 . 2 , ; O ; 2 n 6 2 .           0 0 _ _ G                               ",
"                                  0 f 0 % 2               ; O 2 2 $ b , > b b             0 W ! Z                               ",
"                                0 Z G 0 0                     ; ; $ . . . n , 9 ; 2       0 g Z 0                               ",
"                              0 L 8.Z 0 0                     . . . . . . 0 , . . n         0 0 0           0 9                 ",
"                              0 ,.{ 0 0 0                     2 $ . . . . , . . . . n         0 0 0 0     0 0 *                 ",
"                            0 E Q G 0 0                   0 9 ; > . . . 2 ; . . . . . >       0 0 G G 0 0 , $                   ",
"                            0 E k 0 0                 9 2 . . . , b . . 2 ; . . b 2 k C a     0 G _ W Z .                       ",
"                      0 0   0 0 9 0               0 , n . . . . 9 n . . 1 ; . . ; k ! _ Y 0   0 G W p 9                         ",
"                  0 0 0 2 0 0 0 0             0 6 b . . . . . . 2 n . n 6 ; . . ; C _ _ E 0   0 0 0 0                           ",
"                  0 0 6 b 6 0 0             9 6 o . . . . . . . O ; q 2 0 6 O O n r Y E +.s.x...0                               ",
"                0 0 0 n .   0 0           0 > b . . . . . . . . 9 0             9 0  .o.%.*.N.#.                                ",
"                9 ; 2 .   0 0 0         0 0 ; . . . . . . . b 2             &.&.&.&.&.&.p.c.N.s.                                ",
"                O .       0 0         s C 0 2 . . . . O n n , 0         &.&.&.&.&.&.s.k.b.N.m.m.                                ",
"                        O 0 0       0 G _ Z 9 n . $ ; 0 0 0     &.&.&.&.&.&.&.&.&.a.M.N.N.N.x.f...                              ",
"                                    0 E _ E 0 0 0           &.&.&.&.&.&.&.d.d.d.N.N.k.=.l.N.m.N s V                             ",
"                                    9 E Q k 0 c       &.&.&.&.&.&.*.d.g.c.x.k.N.=.=.$.N.l.g.N 0 G W                             ",
"                                    0 Y C c | o.&.&.&.&.&.&.&.&.k.z.N.N.N.#.) N.#.0 9 s.M ; 0 0 G _                             ",
"                                      0 0 0 o.p.d.d.d.h.N.N.N.N.N.m.f.N.N.N.N.) 0 0 0   1 . 2 0 0 _                             ",
"                                        0 O } M.N.N.N.N.N.N.N.N.N.f.0 O.O.=.) z 0 0       . b 6 0 D                             ",
"                                        0 > m j.N.) #.=.N.N.x.) #.f.) 0 0 0 0             . . O 0 0 0                           ",
"                                          0 $ . f.f.X.0 0 X.f.X.0 0 0 0 0                   . . $ 2 9 0                         ",
"                                            2 . > 0 0 0 0 0 N X.0 0 0                         . . . n 9                         ",
"                                        0 0 6 O b ; ; 0 0 0 0 0                               . . G G C                         ",
"                                    0 6 2 2 O . . . .                                         . . E Z s                         ",
"                                . . ; $ . . . . . .                                         . . . ; 6 0                         "
};
