/* XPM */
static char *EF_21676135195[] = {
/* columns rows colors chars-per-pixel */
"64 64 138 2 ",
"   c None",
".  c #3C1F23",
"X  c #3F1F22",
"o  c #471F1F",
"O  c #481F1F",
"+  c #4B1F1E",
"@  c #4C1F1D",
"#  c #4F1F1C",
"$  c #4E1F1D",
"%  c #5E1E17",
"&  c #571E19",
"*  c #541F1B",
"=  c #511F1C",
"-  c #591E19",
";  c #5A1E18",
":  c #5C1E18",
">  c #621E15",
",  c #631E15",
"<  c #601E16",
"1  c #651E14",
"2  c #641E15",
"3  c #661E14",
"4  c #691E13",
"5  c #6C1E12",
"6  c #5F2219",
"7  c #5E3A1D",
"8  c #682216",
"9  c #6F2D1B",
"0  c #692D1D",
"q  c #712213",
"w  c #732213",
"e  c #742313",
"r  c #772513",
"t  c #712516",
"y  c #742912",
"u  c #762C12",
"i  c #7C2914",
"p  c #7D2914",
"a  c #72271C",
"s  c #752D19",
"d  c #74341F",
"f  c #421F21",
"g  c #431F21",
"h  c #441F20",
"j  c #451F20",
"k  c #461F20",
"l  c #532620",
"z  c #783127",
"x  c #7C332C",
"c  c #7D3A31",
"v  c #67471D",
"b  c #75551B",
"n  c #7F483F",
"m  c #812C15",
"M  c #883116",
"N  c #8C3316",
"B  c #8B3B1C",
"V  c #903617",
"C  c #913717",
"Z  c #913B1A",
"A  c #973B18",
"S  c #993E19",
"D  c #9C3E18",
"F  c #843E38",
"G  c #824713",
"H  c #8A4913",
"J  c #924915",
"K  c #9B4917",
"L  c #A14219",
"P  c #A54419",
"I  c #A6451A",
"U  c #A7451A",
"Y  c #A74C19",
"T  c #AC491A",
"R  c #B14C1B",
"E  c #B6501C",
"W  c #BC531C",
"Q  c #9A6F13",
"!  c #82701C",
"~  c #AE6C17",
"^  c #B56519",
"/  c #B97318",
"(  c #83443C",
")  c #A24D2C",
"_  c #C1571D",
"`  c #C35E1D",
"'  c #C5651C",
"]  c #C86C1C",
"[  c #CA731C",
"{  c #C47A19",
"}  c #8C4845",
"|  c #884C45",
" . c #8F5750",
".. c #9B5D5F",
"X. c #94605B",
"o. c #946A67",
"O. c #9A6965",
"+. c #9A6A65",
"@. c #A0736F",
"#. c #AB7278",
"$. c #A67C7A",
"%. c #B78815",
"&. c #B69813",
"*. c #CE811B",
"=. c #C88819",
"-. c #D29319",
";. c #D3901A",
":. c #D5971A",
">. c #D79E19",
",. c #CEA816",
"<. c #D1A517",
"1. c #DBAC19",
"2. c #E0BA18",
"3. c #CEC113",
"4. c #E2C117",
"5. c #E4C817",
"6. c #E7D716",
"7. c #E8DA16",
"8. c #EAE015",
"9. c #EAE215",
"0. c #EAE414",
"q. c #ECEB14",
"w. c #EFF713",
"e. c #AF7A80",
"r. c #B07F84",
"t. c #B28388",
"y. c #B18F8F",
"u. c #B88F94",
"i. c #B69797",
"p. c #BA9498",
"a. c #B79999",
"s. c #BB989C",
"d. c #BD9CA0",
"f. c #BDA2A3",
"g. c #C1A4A8",
"h. c #C3A8AC",
"j. c #C4ADB0",
"k. c #C8B5B8",
/* pixels */
"                                                                          .                                                     ",
"                  .       @                                               *                                                     ",
"                @ .                                                     . -                                                     ",
"                5                                                       3       .                                               ",
"                5                                                               *                                               ",
"                          f                                               .     :                                               ",
"                      .   >                                                 .                                                   ",
"                      .                                                     . .                                                 ",
"                    . .                                 5                   . . .                                               ",
"                  . .                 5             5 5                     > O .                                               ",
"                . . @             5 5             * 5                       5 5                                                 ",
"                . O 5 5         5 5 5           . 5                       5 5                                                   ",
"                  O 5 5 5       5 5           . . 5                     U D 8 5                                                 ",
"                  5 N A _ _     . 5         . j -                       _ _ [ { A                                               ",
"                  m R =._ _     . 5         . O 5                       ] *.-.2.1.^                                             ",
"                _ _ _ 5.;.;.    . 5         . k 5                     _ >.5.;.5.5.5.                                            ",
"                5.1.-.8.7.5.5.  . 5         . k 5                     -.5.q.w.q.5.5.                                            ",
"                5.4.0.w.q.5.5.  . >         . f -                     5.5.8.q.6.5.5.                                            ",
"                5.5.7.w.7.5.    . f         . . * 5                     5.5.5.5.5.                                              ",
"                  5.5.5.5.5.    f j 4       j . . 5                     5.5.5.5.                                                ",
"                    5.5.5.      j . > 5   5 3 j . 5     5 5 5                                                                   ",
"                                  @ . > p A _ B . k 5 m _ _ T A A V 5 5                                                         ",
"                                    @ * m _ E S * 8 m A _ _ ' [ [ W T T U                                                       ",
"                                      k r A m 5 5 m _ A _ _ ;.5.5.;.' A _ L 5                                                   ",
"                                    5 k 3 * > 3 b l R S _ _ ;.5.5.5.H 5 r A A r 5                                               ",
"                                  e L * - ! * > 7 * D N _ _ *.4.5.,.y r R ] [ J 5 5                                             ",
"                                M ~ _ s j * > > 5 5 5 5 _ _ _ *.;./ 5 A ' 2.5.<.A 5 5                                           ",
"                              u %.:._ A . * 5 5 5 Q G 5 R _ _ _ _ _ m A [ 5.5.>._ 5 5 5                                         ",
"                              Y [ _ _ S . . 5 &.3.v 4 5 w R _ _ _ _ m r ` [ [ ` _ 5 5 5 5                                       ",
"                            5 T A 5 M m @ . k > * * f 5 5 N _ _ _ N - j 5 - s A s 5 N ^ N 5                                     ",
"                            5 C t : 3 5 4 @ . j k @ > r N W _ _ _ 3 f . j f f * - m R 2.W p                                     ",
"                            5 3 k . > 5 5 5 * * * 5 5 T _ _ _ _ T % . O . . . % 5 L _ 5._ L 5                                   ",
"                            5 O . . % 5 5 5 5 5 5 5 T _ _ _ _ Z 5 @ % 5 * * . . * 5 N A L _ m                                   ",
"                            5 @ f . j 3 5 5 5 5 5 p W _ _ _ Z 8 j * 5 5 5 * .   j @ > 5 w m N e 5                               ",
"                              5 * . . * 5 5 5 5 5 A A A A A k f * 5 % > 5 O .     . . * - 5 _ A 5                               ",
"                                - . . . j > % 5 5 5 j > % j f > 5 * . @ 5 O k           O 5 _ _ L 5                             ",
"                                5 . . . . . . j O O f . . . f 3 - . . . 3 -               5 _ _ _ 5                             ",
"                                5 . . . k - * * O . @ * 3 f . . O 5 5 5 5                 5 T _ _ C                             ",
"                                5 - . . *     * j O k O * j > O : 5 @ 5 5                 5 r U _ T                             ",
"                                5 3 f . 5         5 O . 5 - * k * % . 5 3 .               5 5 m _ T                             ",
"                                5 5 : . 5                 * : 5 > . @ O . @ > 5             5 5 m N               5             ",
"                              e K D 5 *                     * k o . . . @ 5 * @ :             5 5 5 5       5 5 5 :             ",
"                            5 K -.T 5 5                     . . . . . O 3 * . . . -           5 5 5 5 5     5 5 >               ",
"                          5 L :.{ q 5                       5 < . . . * % . . . . . -           5 5 5 m p 5 > j                 ",
"                5 5     5 5 _ R m 5                     5 5 o - . . . * % . . . . . . 5         5 5 D _ T 5                     ",
"            5 5 5 - 5 5 5 5 m r 5               5 5 5 > * f . - O . . * > . . . * r A m         5 5 T T 5 5                     ",
"            5 5 3 f - 5 5 5 5 5               5 5 > @ f . . . > * . . * % . . . * R _ E 5       5 5 p r 5                       ",
"          5 5 5 * . . 5 5 5 5               5 4 * . . . . . . * * . . > > . . . * _ _ T 5 5   i.+.5 5 5                         ",
"          5 * : .     5 5                 5 : j . . . . . . . f > - 5 5 5 - * * > A A 5 } } #.t.k.+.                            ",
"          * .   .   5 5 5               4 3 f . . . . . . j k : 5               x F ....#.#.#.d.k.|                             ",
"                  f 3 5             5 5 3 f . . . . . k * 3 5               #.#.#.#.#.#.#.#.p.j.k.k.k.                          ",
"                                  w m 5 > . . . . . j - 5             #.#.#.#.#.#.#.#.#.u.k.k.k.k.X.a.5                         ",
"                                5 R _ N 4 j . * > %           #.#.#.#.#.#.#.#.#.#.#.s.g.k.k.$.k.k.a.a                           ",
"                                5 _ _ A 5 5 5           #.#.#.#.#.#.#.#.#.#.p.j.k.k.k.y.f.f.k.k.y.5                             ",
"                                5 _ R r 5 5         #.#.#.#.#.#.#.#.r.t.g.g.k.a.( k.k.z ( $.o.n ) m                             ",
"                                5 E r 5 5 5 5   #.#.#.#.#.#.#.#.#.#.g.k.k.k.k.f.+.f.+.5 5 5 % 9 _ _                             ",
"                                  5 5 5 > @ 5     e.p.p.p.p.k.k.k.k.k.k.5  .y.y.O. .5 5 * @ 5 5 A _                             ",
"                                  5 5 5 j . 3     h.k.f.k.k.k.k.k.y.y.f.c 5 z z 5 8     . . * 4 r T                             ",
"                                    5 5 @ . k 3   k.k.+.+.+.k.k.k. .5 (  .5 5 5           . . > 5 5                             ",
"                                        5 * . < 5   k.y.c c 5 c y.@.5 5 5 5               . . j > > 5                           ",
"                                          5 . j *     5 5 5 5 5 5 @.                        . . . . 3                           ",
"                                      5 5 5 O . O       5 5 5 5 5 5                         . . 0 A A 5                         ",
"                                  5 5 > > @ . . . .                                         . . z L m 5                         ",
"                              . . * * . . . . . .                                           . . o - 5                           "
};
