/* XPM */
static char *EF_31676135195[] = {
/* columns rows colors chars-per-pixel */
"64 64 145 2 ",
"   c None",
".  c #3C1F23",
"X  c #3F1F22",
"o  c #471F1F",
"O  c #481F1F",
"+  c #4A1F1E",
"@  c #4B1F1E",
"#  c #4C1F1D",
"$  c #4F1F1C",
"%  c #4E1F1D",
"&  c #5E1E17",
"*  c #5F1E17",
"=  c #571E19",
"-  c #541E1A",
";  c #541F1B",
":  c #511F1C",
">  c #581E19",
",  c #591E19",
"<  c #5A1E18",
"1  c #5A1E19",
"2  c #621E15",
"3  c #631E15",
"4  c #601E16",
"5  c #611E16",
"6  c #651E14",
"7  c #641E15",
"8  c #661E14",
"9  c #671E14",
"0  c #681E13",
"q  c #691E13",
"w  c #6C1E12",
"e  c #5F261C",
"r  c #532C1E",
"t  c #652217",
"y  c #682216",
"u  c #652C17",
"i  c #65261A",
"p  c #6B2518",
"a  c #622C18",
"s  c #6A281A",
"d  c #6F2D1B",
"f  c #712213",
"g  c #752413",
"h  c #772513",
"j  c #712516",
"k  c #782614",
"l  c #792915",
"z  c #7C2914",
"x  c #7D2914",
"c  c #752D19",
"v  c #732A1F",
"b  c #7C3912",
"n  c #421F21",
"m  c #431F21",
"M  c #451F20",
"N  c #461F20",
"B  c #472D22",
"V  c #782E25",
"C  c #783127",
"Z  c #79342A",
"A  c #7C332C",
"S  c #7D3A31",
"D  c #7E3C33",
"F  c #6A471C",
"G  c #69551F",
"H  c #7F701D",
"J  c #812C15",
"K  c #832E15",
"L  c #862F15",
"P  c #863015",
"I  c #883116",
"U  c #8C3316",
"Y  c #893E14",
"T  c #863418",
"R  c #913717",
"E  c #973B18",
"W  c #9C3E18",
"Q  c #9D3F18",
"!  c #954716",
"~  c #9B4917",
"^  c #9E4518",
"/  c #8D5412",
"(  c #915214",
")  c #A14219",
"_  c #AC491A",
"`  c #B14C1B",
"'  c #AA5E17",
"]  c #B6501C",
"[  c #BC531C",
"{  c #B25E19",
"}  c #967D18",
"|  c #B56519",
" . c #A87315",
".. c #814138",
"X. c #83443C",
"o. c #C1571D",
"O. c #C5651C",
"+. c #C2691B",
"@. c #C86C1C",
"#. c #CA731C",
"$. c #CC7A1B",
"%. c #8F5750",
"&. c #995A5B",
"*. c #94605B",
"=. c #9F6265",
"-. c #9A6A65",
";. c #A76D72",
":. c #AB7278",
">. c #A67C7A",
",. c #CE811B",
"<. c #C58C18",
"1. c #D3901A",
"2. c #D5981A",
"3. c #DBAC19",
"4. c #DBAE18",
"5. c #DDB118",
"6. c #E0BA18",
"7. c #E2C117",
"8. c #E4C817",
"9. c #E5CB17",
"0. c #E4CC16",
"q. c #E5CE17",
"w. c #E6D116",
"e. c #E7D416",
"r. c #EAE015",
"t. c #EAE215",
"y. c #EBE515",
"u. c #ECEB14",
"i. c #EFF713",
"p. c #EEF114",
"a. c #B07F84",
"s. c #B17F85",
"d. c #A98381",
"f. c #AB8684",
"g. c #B28388",
"h. c #B18F8F",
"j. c #B59595",
"k. c #BA9498",
"l. c #B79999",
"z. c #BD9CA0",
"x. c #BDA2A3",
"c. c #C1A4A8",
"v. c #C2ACAE",
"b. c #C4ADB0",
"n. c #C8B5B8",
/* pixels */
"                . .                                                                                                             ",
"                n .                                                                                                             ",
"                4                                                                                                               ",
"                                                                        . %                                                     ",
"                          K K                                           4 0 4 .                                                 ",
"                          o._                                                 N                                                 ",
"                                                                        .                                                       ",
"                                                                        .                                                       ",
"                  .       .                                           . .                                                       ",
"                  . . .   .                             w               . . .                                                   ",
"                    1 O   1 O         w             w w                     M M                                                 ",
"                  w w w     w       w             O w                   w   w 7 N                                               ",
"                  w K w           w w           . 4 w                 w w w w E s                                               ",
"                  f ) x           7 w         . M *                     w x E o.P                                               ",
"                    o.] _ L     . ;         . . 4                       U +.3.,.)                                               ",
"                    O.1.8.2.    . ;         . . w                     E #.6.8.8.6.                                              ",
"                  $.5.q.8.7.5.  . ;         . . w                     o.8.u.u.q.8.                                              ",
"                  8.u.p.t.8.8.  . ;         . . w                     3.t.i.i.t.8.                                              ",
"                  8.e.i.u.8.8.  . O         . . : w                   8.e.y.i.e.8.                                              ",
"                  8.8.e.w.8.8.  . . w         . % w                     8.8.e.8.                                                ",
"                    8.8.8.8.    - . : w     1 . . 4 w                     8.8.                                                  ",
"                      8.8.        O n 6   w U c . - w w U E E E E y w                                                           ",
"                                  4 M % w _ [ ] B # w U [ o.o.o.o._ _ Q w                                                       ",
"                                      r w o._ K 7 x _ E ` o.o.o.o.o.o.o._ x w                                                   ",
"                                      n ; w w w 4 d o.! _ o.1.8.3.1.O._ _ ` L w                                                 ",
"                                    f t ; B r w } a E R _ o.1.8.8.6.{ w w z J h w                                               ",
"                                  w ` c n a r w 5 7 j k _ o.1.8.8.1.U w U [ o.E w w                                             ",
"                                Y 3.o._ ; O w 4 w b / y _ o.o.,.1.#.L w o.1.8.8.' k w                                           ",
"                                <.,.o._ ; . 4 b / } 1 w x ` o.o.o.o._ w o.3.8.6.@.J w w                                         ",
"                              J ` K R _ ; . % b G u 1 w w k o.o.o.o._ w ) @.#.O.o.J w w w                                       ",
"                              K E w < w w % . O ; N ; w k _ o.o.o._ j O 4 7 ; E T 7 K | E w                                     ",
"                            w w 4 % n 4 w 7 O < w w w ) o.o.o.o.] 7 M . . . . n : x ) 3.#.E                                     ",
"                            w 7 n . O w w w w w w w U o.o.o.o.` i M . % . . . - w x ) 3.#.] K                                   ",
"                              7 . . O w w w w w w E o.o.o.o._ e . O 7 w w - . . 4 w w U E o.E                                   ",
"                              w o . . < w w w w h ) _ _ _ T . % w w 7 w w O .   o 4 * w w w w w w                               ",
"                                1 . . . 1 w w w h t * w 4 n % w w O . ; w N .       . M o w w W U w                             ",
"                                7 O . . . . n - ; - . . . . 4 ; . . n 4 4 1             . w _ o._ k                             ",
"                                w ; . . - o o o . . o 1 < . . . O 1 w w w                 w _ o.o._                             ",
"                                w ; . . - 0   O . . o O . : % O w < 7 w w                 w _ o.o._                             ",
"                                  4 . . e         4 . 4 1 ; O ; 4 O 7 4 .                 w k ] o._ w                           ",
"                                w w o O w               M 1 w % . 4 o . M 4 w               w w ] _ w                           ",
"                            y ( ^ J 4 : w                 : O M . . . n 6 4 4 6               w h x w w         w 7 4           ",
"                w       w !  .6.~ w w w w                 ; . . . . . - * m . + 7               w w w w w     w w ;             ",
"              w w w w w x [ ] E w w w w                   w n . . . . r - . . . o 4               w w h K f w w 4               ",
"            w w 1 4 w w w x h w w w                 w w w 8 * o . . M 6 m . . . . . *             w w ) [ x * O                 ",
"          w w 0 O n w w w w w w                   w w w 8 o - O . . + w . . . . n ; w w           w w o.E w w                   ",
"        w w w 1 .   w w w w                     w 0 4 % . . - * . . + w . . . . t ` o.U           w w _ x                       ",
"        w ;   N     w w                       w - o . . . . % 6 # . # w + . . . c o.o._ w         ..w w                         ",
"          .     . w w w                     w * . . . . . . . - ; ; 7 w w 1 ; . p ` o.E f   s.k.c.x.D                           ",
"                  N                       w 1 . . . . . . . . 2 w w     w w w w f V A =.:.:.:.:.z.h.                            ",
"                                        w 1 n . . . . . o e 7 w                 &.;.:.:.:.:.g.l.n.v.                            ",
"                                      w 4 . . . . . . O 7 w                 :.:.:.:.:.:.:.g.v.n.n.x.x.d.                        ",
"                                  w w 4 n . . . n - w w                 :.:.:.:.:.:.:.:.:.n.v.v.n.n.l.w                         ",
"                                k E ) f 1 . % 4 4                   :.:.:.:.:.:.s.g.g.z.c.h.l.v.n.f.v                           ",
"                                P o.[ K w - 7 w                 :.:.:.:.:.:.:.k.b.n.n.x.x.-.x.>.-.Z                             ",
"                                U o.[ z w                   :.:.:.:.:.:.:.c.n.n.h.w n.h.w w w _ o.                              ",
"                                K _ x w * 4         :.:.:.:.:.s.g.g.g.k.c.j.x.n.v.h.>.S w 7 w x o.                              ",
"                                w w w ; . O w     :.:.:.:.:.k.b.n.n.n.n.n.X.X.h.h.-.X.w w O 7 w E                               ",
"                                    w w 4 . 4 w     k.n.n.n.n.n.n.n.>.h.n.X.w w w w     . . O w w w                             ",
"                                        w < % 8       n.l.-.%.>.h.n.>.C -.*.w w           . n 1 * w                             ",
"                                          w O O w     n.x.X.X.w w -.%.w w w w               . . . - w                           ",
"                                        w w ; . %       w w w w w w C X.w                   . . E E k                           ",
"                                  4 w 4 4 1 . . . .                                         . . _ U f                           ",
"                                . O ; M . . . . .                                         . . . ; 7 w                           "
};
