/* XPM */
static char *EF_41676135195[] = {
/* columns rows colors chars-per-pixel */
"64 64 142 2 ",
"   c None",
".  c #3C1F23",
"X  c #3F1F22",
"o  c #471F1F",
"O  c #481F1F",
"+  c #4B1F1E",
"@  c #4C1F1D",
"#  c #4F1F1C",
"$  c #4E1F1D",
"%  c #5D1E17",
"&  c #5E1E17",
"*  c #5F1E17",
"=  c #571E19",
"-  c #541F1B",
";  c #511F1C",
":  c #591E19",
">  c #5A1E18",
",  c #5C1E18",
"<  c #621E15",
"1  c #631E15",
"2  c #601E16",
"3  c #651E14",
"4  c #661E14",
"5  c #671E14",
"6  c #681E13",
"7  c #691E13",
"8  c #6C1E12",
"9  c #681E14",
"0  c #53221D",
"q  c #5F261C",
"w  c #5E3A1D",
"e  c #652C17",
"r  c #65261A",
"t  c #692D1D",
"y  c #712213",
"u  c #732213",
"i  c #772513",
"p  c #712516",
"a  c #782614",
"s  c #732917",
"d  c #792915",
"f  c #7C2914",
"g  c #72261C",
"h  c #72271C",
"j  c #752D19",
"k  c #7B3313",
"l  c #7E3014",
"z  c #7C3912",
"x  c #421F21",
"c  c #401F22",
"v  c #441F20",
"b  c #451F20",
"n  c #461F20",
"m  c #532620",
"M  c #582921",
"N  c #783127",
"B  c #79342A",
"V  c #6F551D",
"C  c #6C551E",
"Z  c #802B15",
"A  c #812C15",
"S  c #883116",
"D  c #8C3316",
"F  c #8E3A16",
"G  c #80341A",
"H  c #863418",
"J  c #913717",
"K  c #913B1A",
"L  c #973B18",
"P  c #9C3E18",
"I  c #9D3F18",
"U  c #9F4019",
"Y  c #A14219",
"T  c #A3461B",
"R  c #A6451A",
"E  c #AC491A",
"W  c #B14C1B",
"Q  c #B3531B",
"!  c #B6501C",
"~  c #B4511E",
"^  c #BC531C",
"/  c #967D18",
"(  c #A46515",
")  c #AE6C17",
"_  c #B8621A",
"`  c #BA6919",
"'  c #83443C",
"]  c #8E453A",
"[  c #C1571D",
"{  c #C35E1D",
"}  c #C5651C",
"|  c #C2691B",
" . c #C86C1C",
".. c #CA731C",
"X. c #C47A19",
"o. c #8C4845",
"O. c #8F5750",
"+. c #935F59",
"@. c #94605B",
"#. c #9E6164",
"$. c #9A6A65",
"%. c #9F6C6A",
"&. c #AB7278",
"*. c #A67C7A",
"=. c #9C8B19",
"-. c #A88B15",
";. c #B78815",
":. c #CE811B",
">. c #C88819",
",. c #D3901A",
"<. c #D5971A",
"1. c #D79E19",
"2. c #D6A818",
"3. c #DBAC19",
"4. c #D5B316",
"5. c #DDB318",
"6. c #E0BA18",
"7. c #E4C817",
"8. c #E5CB17",
"9. c #E5CE17",
"0. c #E7D416",
"q. c #EAE015",
"w. c #EAE215",
"e. c #EBE515",
"r. c #ECEB14",
"t. c #EDEE14",
"y. c #EFF713",
"u. c #AF7A80",
"i. c #B07F84",
"p. c #A98381",
"a. c #B28388",
"s. c #B18F8F",
"d. c #B68B90",
"f. c #BA9498",
"g. c #B79999",
"h. c #BB989C",
"j. c #BD9CA0",
"k. c #BDA2A3",
"l. c #C1A4A8",
"z. c #C2ACAE",
"x. c #C4ADB0",
"c. c #C8B5B8",
/* pixels */
"                            . .                                                                                                 ",
"                            *                                                                                                   ",
"                                                                        c                                                       ",
"                      . .                                               8       n                                               ",
"                      n                                                                                                         ",
"                      <                                                                                                         ",
"                    8     +                                                   X                                                 ",
"                            y                                               . X                                                 ",
"                        ,   I L         8             8 8                 X .                                                   ",
"                  .   8 8           8 8             9 8                 8 8                                                     ",
"                  .   8           8 8 8         X n 9                     8 8                                                   ",
"                  .   8           8 8           X n 8                     8 8 8                                                 ",
"                    o ~ [ Z       X 9         . c ,                       Z Y E y                                               ",
"                    7 T [ ^ E     . 8         . -                       Z ^ [ | _ [                                             ",
"                    Y :.3.3.[ [   X 8         X -                     8 } 6.3...8.3.                                            ",
"                  [ ..7.7.1.5...  X 8         X -                       ..8.e.t.8.7.                                            ",
"                  [ ..w.r.5.7.7.  . 8         . c 2                     5.0.y.y.0.7.                                            ",
"                  [ 1.r.y.r.7.7.  . @         . X 2                     7.0.e.0.8.8.                                            ",
"                  ..7.7.r.7.7.    . ; 8       c X n 8                     8.7.7.8.                                              ",
"                      7.7.7.      c . 8     8 < X n 8 8 8 8 8               7.8.                                                ",
"                        7.          + c 5 S Y [ t . 2 8 D L L D 8 8                                                             ",
"                                    * n < L [ W H - a Z R [ [ [ E L Z 8                                                         ",
"                                        o i Z y 8 8 E [ L [ [ [ [ [ ^ D 8 8                                                     ",
"                                      4 c * 0 5 2 V H [ L [ { X.,.[ [ [ [ ~ S                                                   ",
"                                    a I O 0 C < : w < E J [ [ 3.8.3.<.W A R Y 8 8                                               ",
"                                  U X.^ s x , 7 , 7 8 8 Z [ [ 3.7.7.3.L 8 f E E f 8                                             ",
"                                k 4...[ Z X - 8 8 z =.8 i E [ ,.7.3.} L a W ..,.( 8 8                                           ",
"                                Q ` E [ Z . n 7 -./ e 4 8 i ! } ..} ^ D A  .6.7.2.E 8 8                                         ",
"                              8 [ Z 7 L i + . @ < - - - 7 8 E [ [ [ L 8 A ..8.7.,.[ 8 8 8                                       ",
"                              8 D 8 < 8 8 7 n . . c 4 y D E [ [ [ Z 8 8 , D L Y [ E 8 8 A 8                                     ",
"                              8 < n - 8 8 8 5 < < 5 f E ^ [ [ [ ! 8 - n X : - 0 j r 8 I >.Y y                                   ",
"                              8 < . - 8 8 8 7 8 7 i W [ [ [ [ W A 8 5 ; X . X - - 2 a W 8.[ A 8                                 ",
"                              8 * . + 7 8 8 8 8 8 L [ [ [ ^ E r n 8 7 8 5 c . . $ < a ~ ,.[ [ y 7                               ",
"                              8 7 n . - 8 8 8 8 i Y E E E K m @ 5 5 5 8 7 + .   . x * d Z D E Z A u                             ",
"                                7 + . c 5 8 8 8 A y 4 7 r + n 5 * . n 7 7 + .     . . $ < 7 8 Z [ Z 8                           ",
"                                8 7 . . . . c - - @ . . . . < - X . * < 4 : 8           X n 8 E [ Y 8                           ",
"                                  8 c . . + n o . . + ; ; . c c - < : - 7 9                 8 [ [ [ i                           ",
"                                  8 - . . 8 5 - . n - - c n + + 7 * o * 8                   8 [ [ [ L                           ",
"                                  8 * . . 8       < . : < < @ < 4 c 5 5                     8 D [ [ L 8                         ",
"                                l F 7 n n 8           : + + c ; + 7 - c .                     8 D E D 8           8 5           ",
"                              8 ;...8 5 5 8             8 8 * c o - c . . - 8 7                 8 8 8 8           5 n           ",
"                            f ) ^ E 8 8 7                 . . . . . . . . < 4 5 8                 8 8 8         7 +             ",
"              8 8 8     8 a R L f 8 8 8                   n X . . . . . o < - . @ *                 8 8 f Z y < :               ",
"            8 8 < 8 8 8 8 8 8 8 8 8 8                 8 8 < . . . . . . , o . . . . :               8 i ~ E i 0                 ",
"          8 8 7 n @ 8 8 8 8 8 8 8 8                 8 7 < < 8 @ . . . c 7 o . . . . . <             8 Z [ D 8                   ",
"        8 8 7 < .   8 8 8 8 8                   8 8 8 + . . 8 < . . . - < . . . . @ < 7             8 y Z 8                     ",
"        8 , 8 .     8 8                       8 8 - . . . . o * + . . - * . . . + Z [ [ Z         c.$.8 8                       ",
"          .   .   8 8 8                       8 - . . . . . . < , o # 7 < c . . n L [ [ L 8   &.&.h.c.s.                        ",
"                c :                         8 8 c . . . . . . * 8 8 8     : . X + i [ [ ] #.&.&.&.&.c.8                         ",
"                                          8 4 c . . . . . . + 1 8           9 - 5 8 o.o.&.&.&.&.i.z.c.c.                        ",
"                                        8 4 o . . . . . n - 8                   h &.&.&.&.&.&.a.c.c.c.+.h.7                     ",
"                                      8 8 c . . . . . . *                       &.&.&.&.&.&.h.c.c.c.c.h.h                       ",
"                                    8 5 c . . . . ; - 8                       &.&.&.&.&.a.f.x.s.*.c.s.8                         ",
"                                  8 Z 7 ; . . + * 7                       &.&.&.&.u.d.k.x.g.g.*.c.g.+.                          ",
"                                  I [ I 8 @ + 7                       &.&.&.&.&.a.x.g.' c.*.h 8 ' g                             ",
"                                  E [ E 8 8 8                     &.&.&.&.&.&.c.c.c.k.$.s.O.8 8 [ [                             ",
"                                  E ~ d < 7                 &.&.&.&.&.i.a.h.l.s.z.c.z.s.O.8 8 8 J [                             ",
"                                  E i < . + <           &.&.&.&.&.l.l.x.c.c.c.8 O.*.s.8 : + + 8 y W                             ",
"                                    8 8 : . c 4       &.i.f.f.h.c.c.c.c.k.*.c.$.N 8 8 8   . . - 8 8                             ",
"                                        7 - c o 8       %.c.c.h.s.k.c.c.z.' ' ' h 8 8       . c * < 8                           ",
"                                          8 - . 8         c.c.' ' ' $.$.$.N 8 8 8             . X . *                           ",
"                                        8 8 4 c + n         p.O.8 8 8 8 N B 8                 . m L L 8                         ",
"                                    8 9 < < + . . .           8 8 8 8 8                       . M E Z 8                         ",
"                                . . - @ . . . . . .                                         . . c 0 8                           "
};
