/* XPM */
static char *EF_51676135195[] = {
/* columns rows colors chars-per-pixel */
"64 64 143 2 ",
"   c None",
".  c #3C1F23",
"X  c #3F1F22",
"o  c #471F1F",
"O  c #481F1F",
"+  c #4A1F1E",
"@  c #4B1F1E",
"#  c #4C1F1D",
"$  c #4F1F1C",
"%  c #4E1F1D",
"&  c #5D1E17",
"*  c #5E1E17",
"=  c #5F1E17",
"-  c #571E19",
";  c #541E1A",
":  c #541F1B",
">  c #511F1C",
",  c #591E19",
"<  c #5A1E18",
"1  c #621E15",
"2  c #631E15",
"3  c #601E16",
"4  c #611E16",
"5  c #651E14",
"6  c #641E15",
"7  c #661E14",
"8  c #681E13",
"9  c #691E13",
"0  c #6C1E12",
"q  c #5F261C",
"w  c #532C1E",
"e  c #652217",
"r  c #682216",
"t  c #652C17",
"y  c #65261A",
"u  c #6B2518",
"i  c #622C18",
"p  c #6F2D1B",
"a  c #712213",
"s  c #752413",
"d  c #772513",
"f  c #712516",
"g  c #782614",
"h  c #792915",
"j  c #7C2914",
"k  c #7D2914",
"l  c #752D19",
"z  c #732A1F",
"x  c #7C3912",
"c  c #421F21",
"v  c #431F21",
"b  c #451F20",
"n  c #461F20",
"m  c #472D22",
"M  c #782E25",
"N  c #783127",
"B  c #79342A",
"V  c #7C332C",
"C  c #7D3A31",
"Z  c #7E3C33",
"A  c #6A471C",
"S  c #69551F",
"D  c #7F701D",
"F  c #802B15",
"G  c #812C15",
"H  c #842E15",
"J  c #863015",
"K  c #883116",
"L  c #8C3316",
"P  c #893E14",
"I  c #863418",
"U  c #903617",
"Y  c #913717",
"T  c #973B18",
"R  c #9C3E18",
"E  c #9D3F18",
"W  c #954716",
"Q  c #9B4917",
"!  c #9E4518",
"~  c #8D5412",
"^  c #915214",
"/  c #A14219",
"(  c #A54419",
")  c #AC491A",
"_  c #B14C1B",
"`  c #AA5E17",
"'  c #B6501C",
"]  c #BC531C",
"[  c #B25E19",
"{  c #967D18",
"}  c #B56519",
"|  c #A87315",
" . c #814138",
".. c #83443C",
"X. c #C1571D",
"o. c #C5651C",
"O. c #C86C1C",
"+. c #CA731C",
"@. c #C47A19",
"#. c #8F5750",
"$. c #995A5B",
"%. c #94605B",
"&. c #9F6265",
"*. c #9A6A65",
"=. c #A76D72",
"-. c #AB7278",
";. c #A67C7A",
":. c #CE811B",
">. c #C58C18",
",. c #C88819",
"<. c #D0881A",
"1. c #D3901A",
"2. c #D5971A",
"3. c #D9A519",
"4. c #DBAC19",
"5. c #E0BA18",
"6. c #E4C817",
"7. c #E5CB17",
"8. c #E5CE17",
"9. c #E6D116",
"0. c #E7D416",
"q. c #E7D716",
"w. c #E8DB15",
"e. c #E8DA16",
"r. c #EAE015",
"t. c #EBE515",
"y. c #ECEB14",
"u. c #EFF713",
"i. c #B07F84",
"p. c #B17F85",
"a. c #A98381",
"s. c #AB8684",
"d. c #B28388",
"f. c #B18F8F",
"g. c #B59595",
"h. c #BA9498",
"j. c #B79999",
"k. c #BD9CA0",
"l. c #BDA2A3",
"z. c #C1A4A8",
"x. c #C2ACAE",
"c. c #C4ADB0",
"v. c #C8B5B8",
/* pixels */
"                                                                              .                                                 ",
"                        .                                                   O .                                                 ",
"                        .                                               . .   %                                                 ",
"                        -                                                 .                                                     ",
"                                                                          3                                                     ",
"                                                                                                                                ",
"                                                                            . .   .                                             ",
"                  .                                                   .   . .   . .                                             ",
"                  &   .                                               .   . .     m                                             ",
"                      . .                               0             3   . . -   y                                             ",
"                        . c           0             0 0               T H   , 0   J                                             ",
"                        b & .       0             O 0                   X.  0 0 0                                               ",
"                      0 0 0       0 0           . 3 0                     0 0 T g                                               ",
"                    F G G         1 0         . b &                     g L ) X.L                                               ",
"                  j ] X.X.(     . q         . . 3                     U ' O.4.:.]                                               ",
"                  X.o.1.o.@.K   . -         . . 0                     ) 4.6.6.6.5.                                              ",
"                  +.3.6.O.2.,.  . -         . . 0                     X.6.q.y.8.6.                                              ",
"                  6.9.y.w.<.6.  . w         . . 0                     4.6.y.u.r.6.                                              ",
"                  6.0.u.u.q.6.  . o         . . q 8                   6.6.w.y.r.6.                                              ",
"                  6.9.y.t.6.6.  . . 0         . % 9                     6.6.8.8.                                                ",
"                    6.6.6.6.    - . > 0     , . . & 0                     6.6.                                                  ",
"                      6.6.        O c 5   0 L l . - 0 0 L T T R T 0 0                                                           ",
"                                  3 b % 0 ) ] ' c % 0 L ] X.X.X.X.) ) E 0                                                       ",
"                                      > 0 X._ G 5 h ) T _ X.X.X.X.X.X.X.) j 0                                                   ",
"                                      c ; 0 0 0 * p X.T ) X.<.6.4.1.o.) ) ' G 0                                                 ",
"                                    a e ; m w 0 D A T T ) X.1.6.6.5.[ 0 0 j F g 0                                               ",
"                                  0 _ l m q w 0 & 5 s d _ X.1.7.6.1.L 0 L ] X.T 0 0                                             ",
"                                P 4.X.) - n 0 3 0 x ~ 0 _ X.X.@.1.+.G 0 X.1.6.6.` d 0                                           ",
"                                >.:.X.) : . 3 x ~ { , 0 k _ X.X.X.X.) 0 X.4.6.5.O.G 0 0                                         ",
"                              G _ G Y ) : . > x S t , 0 0 g X.X.X.X.) 0 / O.+.o.X.G 0 0 0                                       ",
"                              G T 0 , 0 0 % . O - o - 0 g ) X.X.X.) 0 n * 2 - T I 5 G } T 0                                     ",
"                            0 0 5 % . 5 0 5 b , 0 0 0 ! X.X.X.X._ 8 o . . . . m > j / 4.+.T                                     ",
"                            0 3 c . n 0 0 0 0 0 0 0 L X.X.X.X.) y n . n c . . : 0 j / 4.+.' G                                   ",
"                              3 . . O 0 0 0 0 0 0 T X.X.X.X.) q . n 9 0 0 : . . 3 0 0 L T X.T                                   ",
"                              0 n . . , 0 0 0 0 d / ) ) ) K . % 0 0 5 5 0 n .   n 3 3 9 0 0 0 0 0                               ",
"                                , . . c , 0 0 0 g 9 , 0 1 b % 0 0 n c : 0 n .       . b O 0 0 E L 0                             ",
"                                5 m . . . . b - : > . . . . * ; . . c 4 4 ,             . 0 ) X.) g                             ",
"                                0 - . . : n n n . . n , , . . . n , 0 0 0                 0 ) X.X.)                             ",
"                                0 ; . . : 0   n . c n n m @ % n 0 < 5 0 0                 0 ) X.X.)                             ",
"                                  1 . . :         4 . 5 , - n : 3 n 5 4 .                 0 g ' X.) 0                           ",
"                                0 0 b O 0               b , 0 > . 3 n . c 5 9               0 0 ' ) 0                           ",
"                            0 ^ ! F 3 > 0                 > n b . . . b 5 5 4 5               0 d j 0 0         0 9 3           ",
"                0       0 W | 5.Q 0 0 0 0                 : . . . . . : 3 c . b 5               0 0 0 0 0     0 0 :             ",
"              0 0 0 0 0 j ] ' E 0 0 0 0                   0 c . . . . : : . . . b 4               0 0 g G a 0 9 3               ",
"            0 0 , 5 0 0 0 j d 0 0 0                 0 0 0 6 1 n . . b 5 b . . . . . <             0 0 / ] j < %                 ",
"          0 0 9 n b 5 0 0 0 0 0                   0 0 0 8 n ; n . . n 0 . . . . c : 0 0           0 0 X.T 0 0                   ",
"        0 0 0 , .   0 0 0 0                     0 8 3 % . . ; 3 . . n 0 . . . . e _ X.L           0 0 ) j                       ",
"        9 -   O     0 0                       0 ; n . . . . % 6 % . > 0 n c . . l X.X.) 0          .0 0                         ",
"          .     . 0 0 0                     0 & . . . . . . . ; w - 5 0 0 , - . u ' X.T 0   d.h.z.l.Z                           ",
"                  m                       0 , . . . . . . . c 1 0 0     0 0 0 0 0 M V &.-.-.-.-.k.f.                            ",
"                                        0 , c . . . . . m ; 5 0                 $.=.-.-.-.-.p.j.v.x.                            ",
"                                      0 3 . . . . . . O 5 0                 -.-.-.-.-.-.-.d.c.v.v.l.l.a.                        ",
"                                  0 0 5 m . . . c ; 0 0                 -.-.-.-.-.-.-.-.-.v.x.x.v.v.j.0                         ",
"                                s T / a - . % 3 5                   -.-.-.-.-.-.p.d.d.k.z.f.j.x.v.s.z                           ",
"                                K X.X.F 9 ; 5 0                 -.-.-.-.-.-.-.h.x.v.v.z.l.*.l.;.*.B                             ",
"                                K X.] k 0                   -.-.-.-.-.-.-.z.v.v.f.0 v.f.0 0 0 ) X.                              ",
"                                G ) j 5 3 3         -.-.-.-.-.p.d.d.d.h.z.g.l.v.x.f.;.C 0 5 0 j X.                              ",
"                                0 0 0 - . + 0     -.-.-.-.-.h.c.v.v.v.v.v.....f.f.*...0 0 n 5 0 T                               ",
"                                    0 0 3 . 3 0     h.v.v.v.v.v.v.v.;.f.v...0 0 0 0     . . O 0 0 0                             ",
"                                        0 , % 5       v.j.*.#.;.f.v.;.N *.%.0 0           . c , & 0                             ",
"                                          0 O O 0     v.l.....0 0 *.#.0 0 0 0               . . . - 0                           ",
"                                        0 0 - . %       0 0 0 0 0 0 N ..0                   . . T T d                           ",
"                                  1 9 2 3 , . . . .                                         . . ) L a                           ",
"                                . o ; m . . . . .                                         . . . q 5 0                           "
};
