/* XPM */
static char *EF_61676135195[] = {
/* columns rows colors chars-per-pixel */
"64 64 146 2 ",
"   c None",
".  c #3C1F23",
"X  c #3F1F22",
"o  c #471F1F",
"O  c #481F1F",
"+  c #4C1F1D",
"@  c #4E1F1D",
"#  c #5D1E17",
"$  c #5E1E17",
"%  c #5F1E17",
"&  c #571E19",
"*  c #541F1B",
"=  c #501F1C",
"-  c #511F1C",
";  c #591E19",
":  c #5A1E18",
">  c #5C1E18",
",  c #621E15",
"<  c #631E15",
"1  c #601E16",
"2  c #611E16",
"3  c #651E14",
"4  c #651E15",
"5  c #661E14",
"6  c #681E13",
"7  c #691E13",
"8  c #6C1E12",
"9  c #56221C",
"0  c #682216",
"q  c #6E2214",
"w  c #65261A",
"e  c #712213",
"r  c #732213",
"t  c #732313",
"y  c #772513",
"u  c #792915",
"i  c #7A2814",
"p  c #7C2914",
"a  c #7D2914",
"s  c #7B2C17",
"d  c #702918",
"f  c #7B3313",
"g  c #7A341D",
"h  c #421F21",
"j  c #431F21",
"k  c #401F22",
"l  c #451F20",
"z  c #461F20",
"x  c #532620",
"c  c #582921",
"v  c #783127",
"b  c #7D3A31",
"n  c #70471A",
"m  c #69551F",
"M  c #75551B",
"N  c #7F701D",
"B  c #802B15",
"V  c #812C15",
"C  c #832D15",
"Z  c #873015",
"A  c #823414",
"S  c #883116",
"D  c #8C3316",
"F  c #8E3A16",
"G  c #833419",
"H  c #903617",
"J  c #913717",
"K  c #913B1A",
"L  c #973B18",
"P  c #9C3E18",
"I  c #854712",
"U  c #9F4019",
"Y  c #9E421A",
"T  c #875414",
"R  c #9A5315",
"E  c #A14219",
"W  c #A9491B",
"Q  c #AC491A",
"!  c #AD4F1A",
"~  c #B14C1B",
"^  c #A65018",
"/  c #AE501A",
"(  c #A85718",
")  c #B3531B",
"_  c #B6501C",
"`  c #BC531C",
"'  c #BB5E1B",
"]  c #BE5B1C",
"[  c #9D6F12",
"{  c #B56519",
"}  c #BF6C1A",
"|  c #83443C",
" . c #C1571D",
".. c #C35E1D",
"X. c #C5651C",
"o. c #C86C1C",
"O. c #C4701B",
"+. c #CA731C",
"@. c #C17D19",
"#. c #8C4845",
"$. c #8F4D4B",
"%. c #895752",
"&. c #8F5750",
"*. c #935352",
"=. c #9B5D5F",
"-. c #94605B",
";. c #9B6562",
":. c #9A6A65",
">. c #A0736F",
",. c #A76D72",
"<. c #AB7278",
"1. c #A67C7A",
"2. c #AE8B13",
"3. c #BF8817",
"4. c #C28F17",
"5. c #CE811B",
"6. c #D3901A",
"7. c #D4951A",
"8. c #D5971A",
"9. c #D79E19",
"0. c #DBAC19",
"q. c #D5B316",
"w. c #E0BF17",
"e. c #E0BA18",
"r. c #E4C817",
"t. c #E5CB17",
"y. c #E5CE17",
"u. c #E6D116",
"i. c #E7D416",
"p. c #EAE015",
"a. c #EEF413",
"s. c #EFF713",
"d. c #EEF114",
"f. c #B07F84",
"g. c #B28388",
"h. c #B18F8F",
"j. c #B68B90",
"k. c #BA9498",
"l. c #B79999",
"z. c #BD9CA0",
"x. c #BDA2A3",
"c. c #C1A4A8",
"v. c #C3A8AC",
"b. c #C4ADB0",
"n. c #C6B1B4",
"m. c #C8B5B8",
/* pixels */
"                                                                          .                                                     ",
"                                                                          +                                                     ",
"                .       ;                                                 8   O                                                 ",
"                .       <                                                     <                                                 ",
"                +       8                                                                                                       ",
"              8 8     .                                               . .                                                       ",
"                        .                                             . .                                                       ",
"                    . * 5                               8               . . . .                                                 ",
"                .   5 8               8             8 8                     k O .                                               ",
"                .   8 8           8 8             > 8                       8 8 O                                               ",
"              . *     ~ e       8 8 8           . 8                         8 a w                                               ",
"                < 8 H  .V 8     8 8           . . 8                       8 a ` L                                               ",
"                V V  . .E V   . O 8         . h <                       V Q 6.6.Q i                                             ",
"                _ ) X. .o.E   . O 8         . O                         ! 6.t.t.0.@.                                            ",
"                 .6.0.X.e.+.  . O 8         . O                        .8.i.p.u.t.r.                                            ",
"                r.r.i.u.r.r.  . O 8         . z                       +.w.s.s.s.r.r.                                            ",
"                r.i.s.s.u.r.  . O 8         . h <                     r.i.s.s.s.r.r.                                            ",
"                r.i.s.d.y.r.  . . +         . . < 8                     r.r.p.y.r.                                              ",
"                r.r.i.u.r.    O . + 8       l . l 8                     r.r.r.r.                                                ",
"                  r.r.r.r.      l . 8     8 < . . 8     8 8 8               r.                                                  ",
"                                > h l 7 a J  .d . * 8 y  . .E V V B                                                             ",
"                                  < . 1 L  . .W o 3 8 L  . . . . .` Q Q E                                                       ",
"                                    ; + s L V 8 8 L  .L  . .6.r.r.6.X.L _ Q 8 8                                                 ",
"                                    < h 5 < 5 7 n g ` L  . .6.r.r.r.R 8 V L V e 8                                               ",
"                                  8 D z * m * % N * Q L  . .6.r.r.q.f 8 L  . .V 8 8                                             ",
"                                A ^ ~ 9 + + > 5 8 8 8 8  . . .8.0.3.8 L ..9.r.r.B e 8                                           ",
"                              8 4.6. .V . < 8 5 8 [ I 8  . . . . .` a L +.r.r.r. .B 8 8                                         ",
"                            V { 5. . .V . z 8 2.2.M 5 8 y _  . . . .V V ' 6.6.X. .B 8 8 8                                       ",
"                            S  .J V Q a h . * T M ; ; 8 8 D  . . .E 0 * i s G Q K q y ( V 8                                     ",
"                            S Q y < 8 8 < h . * * O ; 8 y _  . . .3 h . @ o h 9 * 5 L e.X.V                                     ",
"                          8 8 3 l . 8 8 8 < l z O 8 e E  . . . .~ < . o . . . % 8 E  .t.+.E y                                   ",
"                          q < h . . 8 8 8 8 8 8 8 8 E  . . . .~ y < * 3 h . . o ; e E +... .V                                   ",
"                            > . . . < 8 8 8 8 8 8 y ~  . . ._ i % . < 8 8 3 . . + 5 8 8 8 Q P 8                                 ",
"                              < l . . 5 8 8 8 8 8 L  . . . .w o . 5 8 8 8 * .     h l 8 8 8 P D 8                               ",
"                              8 O . . + % 8 8 8 8 V < 8 8 : . * 8 5 k 9 8 * .         . . 8 Q  .L 8                             ",
"                              8 ; . . . h O o % < % O O O . O 3 5 o . k < * >             8 Q  .` D                             ",
"                              8 < . . . O h . . . . . . * o . @ z * * * % ;               8 Q  . .L                             ",
"                              8 < h . . * 8 8 < o . * % * . o . * 7 5 8 8 8               8 a _  . .8                           ",
"                              8 8 * . . 5         < o . % % 8 * 7 < h 7 8                 8 8 y ~  .8                           ",
"                              8 8 8 . . 8               < h o * z + + < + . l 8             8 8 L  .8                           ",
"                              8 a y * o                   ; % % > . l h . * < < 8             8 e V 8             8 5           ",
"                            8 V } L 5 7                     . . . . . . * 8 + . * %           8 8 8 8 8       8 8 <             ",
"                          8 F 9.O.S 8                       O h . . . * % . . . . l <           8 8 8 8 8 8 8 8 %               ",
"                8       8 D ] +./ 8 8                     8 8 < . . . * % . . . . . h 8         8 8 8 P Q a ; l                 ",
"            8 8 8 8 8 8 8 V Q V 8 8                 8 8 8 ; . * . . . * < . . . O * * 8         8 8 V  .Q y 8                   ",
"            8 8 ; % 8 8 8 8 y 8                 8 8 < * O . . > + . . * < . . . * Z Q E e       8 8 a Q y 8                     ",
"          8 8 8 o k < 8 8 8 8                 8 8 * l . . . . < * . . * > . . . * Q  . .V       8 8 8 8 8                       ",
"        8 8 8 < .   8 8 8 8                 8 ; . . . . . . . l * h z 8 5 h . . * Q  .P 8 8 ;.c.n.1.8                           ",
"        8 ;   O     8 8                   8 ; . . . . . . . . l 5 < 8   8 5 % < 5 i V 8 $.=.,.<.c.1.                            ",
"          .     . < 8 8                 8 9 . . . . . . . + * 5 8               #.*.<.<.<.<.<.k.m.j.                            ",
"                . 9 8             8 8 8 ; . . . . . . * < 5               <.<.<.<.<.<.<.<.g.z.b.m.x.m.                          ",
"                                8 V D 8 * . . . . . + ;             <.<.<.<.<.<.<.<.<.<.j.m.m.m.m.h.x.v                         ",
"                                S  . .V 8 * z 8 8 8           <.<.<.<.<.<.<.<.g.g.g.z.m.m.x.1.m.m.x.q                           ",
"                                S  . .V 8 8 8           <.<.<.<.<.<.<.<.<.<.c.n.m.m.m.-.m.x.m.m.l.v                             ",
"                                Z  .S 8 8 8       <.<.<.<.<.<.<.<.<.j.k.b.m.m.m.8 h.m.8 8 | %.* K Q                             ",
"                                B P 8 8 5 7 8   <.<.<.<.<.<.g.g.g.g.v.m.l.x.m.m.h.h.| 8 8 < 8 < Y  .                            ",
"                                8 8 8 8 * * 8     g.k.k.k.k.m.m.m.m.m.m.| | x.x.:.&.8 8 ; O 5 8 V  .                            ",
"                                  8 8 8 . l 5     m.m.x.m.m.m.m.m.h.h.x.&.8 8 8 8 8     . . l 5 8 D                             ",
"                                      8 * . h 8   m.m.:.| | m.m.m.>.8 v b 8 8             . . * 8 8 8                           ",
"                                        8 * . 8     h.:.v v 8 v :.&.8 8 8 8                 . . + * 8                           ",
"                                        8 5 h z <     8 8 8 8 8 8 &.                          . h l ; 8                         ",
"                                      8 8 5 O . +       8 8 8 8 8 8                           . x L L y                         ",
"                                  8 5 < % l . . . .                                           . c Q 8 8                         ",
"                              . . O l . . . . .                                             . . h O 8                           "
};
