/* XPM */
static char *Player_641675956130[] = {
/* columns rows colors chars-per-pixel */
"64 64 223 2 ",
"   c None",
".  c #131213",
"X  c #1B1616",
"o  c #15171A",
"O  c #15191C",
"+  c #1B1B1C",
"@  c #1C1817",
"#  c #241A17",
"$  c #2B1D17",
"%  c #231B1A",
"&  c #2B1D1C",
"*  c #311F1B",
"=  c #2C241E",
"-  c #24201E",
";  c #35221B",
":  c #32281F",
">  c #3D261B",
",  c #1C1E22",
"<  c #171B23",
"1  c #2A1F20",
"2  c #1B2427",
"3  c #1E2837",
"4  c #1C3336",
"5  c #232223",
"6  c #2B2424",
"7  c #27282A",
"8  c #332524",
"9  c #3C2525",
"0  c #342A23",
"q  c #3B2D24",
"w  c #332728",
"e  c #352B2B",
"r  c #3B2A2A",
"t  c #3D332B",
"y  c #3D3327",
"u  c #2B2B34",
"i  c #242D37",
"p  c #322E39",
"a  c #273339",
"s  c #3B3534",
"d  c #383738",
"f  c #45291D",
"g  c #56301F",
"h  c #4B2A24",
"j  c #432B2B",
"k  c #4C2D2D",
"l  c #432824",
"z  c #532F2B",
"x  c #532C25",
"c  c #43342D",
"v  c #483529",
"b  c #54312D",
"n  c #5B332D",
"m  c #583728",
"M  c #4E2F30",
"N  c #512F30",
"B  c #4C3B33",
"V  c #483736",
"C  c #553231",
"Z  c #5C3330",
"A  c #573D35",
"S  c #63342C",
"D  c #6B3B2E",
"F  c #673727",
"G  c #743D2C",
"H  c #723C26",
"J  c #633530",
"K  c #6B3731",
"L  c #643A32",
"P  c #6D3A31",
"I  c #633F38",
"U  c #733A31",
"Y  c #7B3D31",
"T  c #4D4234",
"R  c #42453F",
"E  c #534235",
"W  c #5B4535",
"Q  c #5C4A3A",
"!  c #5C4835",
"~  c #5A503C",
"^  c #7B412B",
"/  c #644D3C",
"(  c #694D3A",
")  c #674737",
"_  c #7D4230",
"`  c #754A38",
"'  c #6E533E",
"]  c #66503A",
"[  c #72533B",
"{  c #7A5B3D",
"}  c #23334A",
"|  c #293746",
" . c #283A53",
".. c #31394A",
"X. c #1F3D41",
"o. c #453A46",
"O. c #403F57",
"+. c #254449",
"@. c #354649",
"#. c #2C4756",
"$. c #374756",
"%. c #2A545B",
"&. c #385356",
"*. c #2C4666",
"=. c #384969",
"-. c #2D5965",
";. c #345C68",
":. c #2F4C73",
">. c #304C75",
",. c #314E7A",
"<. c #33597B",
"1. c #2F5B74",
"2. c #2D6269",
"3. c #2E6774",
"4. c #32637D",
"5. c #336876",
"6. c #32727D",
"7. c #34656A",
"8. c #544B48",
"9. c #5E5443",
"0. c #465457",
"q. c #55565B",
"w. c #454949",
"e. c #6C5943",
"r. c #745943",
"t. c #7A5B43",
"y. c #745844",
"u. c #63524F",
"i. c #7B6348",
"p. c #495468",
"a. c #4E6A73",
"s. c #697071",
"d. c #813F31",
"f. c #87472B",
"g. c #964D2F",
"h. c #844330",
"j. c #8C4630",
"k. c #8B4830",
"l. c #854E33",
"z. c #944A30",
"x. c #9A4D30",
"c. c #904731",
"v. c #885737",
"b. c #9D5030",
"n. c #AA5530",
"m. c #A95631",
"M. c #B15A32",
"N. c #AC663F",
"B. c #825E47",
"V. c #846345",
"C. c #896548",
"Z. c #8A684A",
"A. c #946B4A",
"S. c #986B4A",
"D. c #9A724E",
"F. c #96724F",
"G. c #876B53",
"H. c #8C7454",
"J. c #987656",
"K. c #966E51",
"L. c #AA6945",
"P. c #A1754E",
"I. c #AA7049",
"U. c #BC774B",
"Y. c #A57B53",
"T. c #A87D54",
"R. c #B66D42",
"E. c #917B6F",
"W. c #C17E52",
"Q. c #96825E",
"!. c #AE8055",
"~. c #AA835B",
"^. c #B6895D",
"/. c #BA8C5D",
"(. c #B38458",
"). c #9C8466",
"_. c #9C8A79",
"`. c #91887E",
"'. c #AC8964",
"]. c #B78D64",
"[. c #BA936B",
"{. c #B99266",
"}. c #B2967A",
"|. c #A59276",
" X c #BFA676",
".X c #C58658",
"XX c #C69969",
"oX c #C39E72",
"OX c #CDA271",
"+X c #C8A479",
"@X c #D6AA77",
"#X c #DAB17F",
"$X c #335D81",
"%X c #346783",
"&X c #367D8C",
"*X c #357785",
"=X c #4B7187",
"-X c #63748F",
";X c #368491",
":X c #568E97",
">X c #73A7AD",
",X c #968685",
"<X c #9B968D",
"1X c #90A9B2",
"2X c #A5ADB0",
"3X c #ABA095",
"4X c #DEB98B",
"5X c #DCB685",
"6X c #CCB297",
"7X c #D6B895",
"8X c #CAAD8F",
"9X c #D1BBA7",
"0X c #CEB9A5",
"qX c #E0C391",
"wX c #D4C1AE",
"eX c #D9C9B8",
"rX c #E5D2BA",
"tX c #E2C5A1",
"yX c #92BDC2",
"uX c #B7CBCD",
"iX c #D8D3D0",
"pX c #E4D7C8",
"aX c #EAE9E7",
/* pixels */
"                                                        . . . . . . . . .                                                       ",
"                                                        o o X X X X X X X                                                       ",
"                                                . o , 5 , , 1 8 8 9 8 9 8 % .                                                   ",
"                                                . @ + 5 5 1 r N N N N N k * . .                                                 ",
"                                              o @ 5 6 r w r j N C J J J Z l 1 & .                                               ",
"                                          . . + , 6 j M k k k N Z U Y U K n k 8 X 0 / B.A.Y.^.oX@X4XqX                          ",
"                                          . . % 8 j b Z Z Z C N Z K U U K J z 9 & w M W ( [ i.Z.H.Q.).                          ",
"                                          . . 1 j b J U U K J N N C J K U J k k j 9 6 = : : 0 q t t t                           ",
"                                          @ # 8 k Z K K U Y K K J N J U Y D C N N 9 % . . . . . . o o                           ",
"                                        @ 1 9 j N C Z J K d.d.c.U Z K d.x.h.K S N l @ . .                                       ",
"                                      . @ 9 N N k k N Z K d.x.M.k.J K c.b.c.Y K C l % o                                         ",
"                                      . # l J z r j k Z K d.z.M.k.Z J U h.j.z.h.K N l * # @ ) P.                                ",
"                                      . # h G b 1 w j C K d.z.M.k.Z b C J k.n.x.d.K C l 1 # W S.P.                              ",
"                                      & 9 F j.m 6 j I y.U K d.x.k._ L Z C U k.h.Y K Z j 1 + c ) C.                              ",
"                                      j z h.m.F w B B.A.` Z P d.z.b.k.L b n Z P U K Z j 8 , 1 1 e. XqX                          ",
"                                      S G h.z.` B y.T.T.Z.y.` K h.x.z._ L L Z L K J J N w 1 O . ~ Q.'.                          ",
"                                  . f H z._ P ` V.!.{.XXXX~.B.J K h.j.z.z.d.K S Z J K S 9 5 ,   t T T                           ",
"                                  # f d.g.G Z [ C.!.^. X+XOXF.) L K Y z.b.d.Y K Z J K S j 6 5     o o                           ",
"                                  x n D G D K L E W ] i.~.{.Y.V.) h h F Y Y Y U K J S C k r 8 . .                               ",
"                                  U K n C K Y h @ . . : { !.!.!.[ = % 9 z K U U Y K C N M k 1 . .                               ",
"                                  h h k Z U z.` ! v # = ] D.I.!.V.E q 0 ; l h n J J J J C k 1 . .                               ",
"                                  X 1 r J k.n.N.P.[ : = W V.D.!.A.{ W : o X @ 8 k J K K Z k * X .                               ",
"                                  . & h L _ z.I./.Z.q : ) Z.P.!.P.A.( : + t ~ B j k J J k r 1 . .                               ",
"                                  . * x P P L A.XXH.y : [ Y.T.!.T.Y.{ q 6 e.'.y.r 9 N N r 6 + . .                               ",
"                                  . & x Z z C E.5XE.o.V C./././././.A.R d E.7XE.s w j r 6 1 + . .                               ",
"                                    # * 9 l C E.9X2Xp.q.E.OXOXOXOXOX'.q.p.<XrX`.B r w w 7 , + + + o                             ",
"                                      . o 8 M E.iX2X-X-X|.5X5X5X5X#X}.-X-X2XiX,XA r 6 6 5 2 2 5 + o .                           ",
"                                      . . 1 w u.E.,X,X_.+X5XtXrXtX4X+X|.,X,X,Xu.r 9 k k w 1 1 2 + . .                           ",
"                                      . . . X 8 N B.[.5X5X5XrXaXrXqX#X#X}.G.C w @ ; S S r 2 5 5 + . .                           ",
"                                    2 X.+.X.i u r u.J.[.XXOX6X9X6X+XXX[.J.y.9 6 @ f G Y b w 6 5 + . .                           ",
"                                  . 4 2.*X1.*.} 7 B y.K.Y.^.].[.{./.T.K.t.T 6 5 5 v k.x.D j w 5 + o .                           ",
"                                < 3 | 6.&X3.*.| p M W ' B.A.A.A.S.S.B.e.Q r 5 7 6 m g.b.U k 0 5 + . .                           ",
"                              . 3  .-.*X;X-.a d Q E c c A ) ) ) ) ) W M e 7 5 w j D g.b.U k w 5 @ . .                           ",
"                            < < } :.%X*X5.@.w A e.Q c t M M V V V k r t t 7 6 j C _ x.x.L j 8 2 2 < <                           ",
"                          o 3  .*.6.5.-.@.R b Z A ( [ ] V e &.a.0.p M / ' A r L h.k.z.Y m 8 1 @ 2 }  .                          ",
"                        . O } >.%X&X3.+.8 b U S z y.D.Z.E i -.;X-.a T V.D.[ m _ n.x.h.S r 5 + o } *.>.                          ",
"                        . o 4 | #.%.&.R V v b n J K ( u.0.%.3.%X3.%.0.9.[ ` _ k.x.h.U b 0 7 T e.8.| }                           ",
"                        . . + 5 7 3 d Q / V 6 z K Z y d 7.&X%X$X%X;X7.@.c ^ n.z.d.K Z k w d i.OXG.w O                           ",
"                        . O t ~ ~ E ! ' [ W c v n B @.%.3.*X%X,.%X*X7...j G g.k.U n k c B Q J.#XH.0 .                           ",
"                        . - e.'.~.D.Z.i.y.e./ B q ..7.6.%X$X,.,.,.$X=...b K d.G Z v w c ' D.{.#XH.6 .                           ",
"                        : v J.4X+X].P.C.y.t.y.A 7 +.2.6.<.,.,.,.,.,.=.o.C K Y J k j e B V.^.+XqX).T :                           ",
"                    . : ! Z.3XpX7X{.P.C.t.t.y.T 6 i X.#.=.,.,.,.,.,.=.o.C K Y z w c A e.A.^.8XpX3XH.] 0 . .                     ",
"                    . q { ].0XaXwX[.D.Z.r.r.' B 6 7 7 a #.>.>.,.>.>. .o.N J U k 6 c / V.D.(.6XaX7X[.v.y . .                     ",
"                    . : { ].0XaXwX[.P.Z.[ ! B s u | %.&.#.| *.,.*.....p r z J j 5 t / B.C.D.|.6X}.J.' 0 . .                     ",
"                    . 0 { ].9XaXwX{.P.C.' B 5 u ..$.*X6.+.7  .,. .u 5 5 6 r M r 5 c 9.t.t.B.D.!.D.C.) : . .                     ",
"                    . : { ^.8XrX6X].Y.F.t.E 5 a ..;.&X*X#.u |  .| u a ..#.$.o.V e V q.q.q.s.`.8X<Xs.0.7 . .                     ",
"                    . : { (.OX4XOX/.!.T.A.W 5 | :.4.&X*X&.p u u u | ..7.6.4.=.O.V o.p.p.=X:X1XaX2X:X7.4 . .                     ",
"                    . : ) Z.~.OXXXXX^.Y.A.8.i *.<.4.5.;.$.V u 5 w V O.;.5.5.$X=.o.$.>.$X:X>XyXuX>X=X%.4 . .                     ",
"                        q v i./.XXOX{.J.i.q.*.1.*X3.+.a A J j 5 r Z m a X.-.&X4.=.=.>.=X1XuXyX>X=X+.4                           ",
"                        . # ! A.~.{.~.i.9.p.,.4.*X%.2 & x Y b w b G S ; 2 %.*X4.$X>.*.=X<XuX>X;X%.5 O                           ",
"                            v T ! ~ Q v r $.,.*.+.4 O = H x.G n G k.^ ; O 4 +.*.>.*.} | 0.s.0.+.+.                              ",
"                            . . . . . . < } >.} O . . * H n.c.Y c.m.^ > . . . } >.} < . . . . . .                               ",
"                              . . . . . O 3 } 3 + o . ; F g.x.z.z.x.H ; . o + 2 } 3 < . o . . .                                 ",
"                                          o O + 2 + . & x h.g.n.x.h.S * . + 2 + . o                                             ",
"                                          > f > - + + - z P G ^ U P z 6 @ + 5 0 f f                                             ",
"                                      . - F f.F 6 5 , 6 s B r ; q V c 6 , - 5 x f.D * o                                         ",
"                                      : v l.M.v.v q q r d V 7 . 5 d d t w r v ` N.b.m :                                         ",
"                                  . y ] V.!.XXI.l.^ L C B d 6 . 6 s B C S G f.L..X!.A.] T .                                     ",
"                                  . > V.(.XX@X.XM.x.h.L B d 5 . 5 s V L Y z.m.(.@XXX(.A.v .                                     ",
"                                  . > l.N..X.XM.z.^ n j w 7 -   2 6 w q x Y x.N.W..XN.v.f .                                     ",
"                                  . f f.M.M.M.g.h.n w % @ .       . o 1 0 n Y z.n.M.M.f.f .                                     ",
"                                  . $ g H H H S z l 8 2 o .       . o + 6 l x S H H H g : O                                     ",
"                                  . . # $ $ $ # # #                       # # # $ $ $ $ @ .                                     ",
"                                  . . . . . . . . .                       . . . . . . . . .                                     "
};
