/* XPM */
static char *PF_11676119209[] = {
/* columns rows colors chars-per-pixel */
"64 64 169 2 ",
"   c None",
".  c #1A0E13",
"X  c #1D1216",
"o  c #1F1418",
"O  c #211415",
"+  c #2B1414",
"@  c #261915",
"#  c #291C16",
"$  c #21161A",
"%  c #241A1D",
"&  c #2A1D1B",
"*  c #341513",
"=  c #3A1613",
"-  c #331917",
";  c #3A1E1A",
":  c #2D2016",
">  c #2E221B",
",  c #322517",
"<  c #362917",
"1  c #35271B",
"2  c #37291A",
"3  c #3B2D1C",
"4  c #271E21",
"5  c #291E20",
"6  c #272022",
"7  c #2B2324",
"8  c #2E2728",
"9  c #2E2929",
"0  c #312626",
"q  c #342922",
"w  c #312728",
"e  c #322C2C",
"r  c #382E2E",
"t  c #36302F",
"y  c #39312C",
"u  c #363332",
"i  c #3A3534",
"p  c #3A3836",
"a  c #3E3B39",
"s  c #441913",
"d  c #45231C",
"f  c #4E251A",
"g  c #5A2A1C",
"h  c #42321E",
"j  c #67301E",
"k  c #6C321F",
"l  c #562C24",
"z  c #443320",
"x  c #4C3C21",
"c  c #43352D",
"v  c #49372B",
"b  c #503F23",
"n  c #423633",
"m  c #413A37",
"M  c #433D3A",
"N  c #483F3D",
"B  c #513E38",
"V  c #643E2F",
"C  c #703420",
"Z  c #7C3921",
"A  c #564325",
"S  c #5A4626",
"D  c #5E4B27",
"F  c #50412B",
"G  c #55482E",
"H  c #5B4B2C",
"J  c #4A4131",
"K  c #43413D",
"L  c #4B433F",
"P  c #504330",
"I  c #554C3B",
"U  c #564A35",
"Y  c #5E523B",
"T  c #624F28",
"R  c #66512B",
"E  c #69552A",
"W  c #6B582E",
"Q  c #745E2F",
"!  c #694031",
"~  c #66493E",
"^  c #704837",
"/  c #62543A",
"(  c #6E5D37",
")  c #735A31",
"_  c #766031",
"`  c #7E6533",
"'  c #70603B",
"]  c #7D683B",
"[  c #474540",
"{  c #4C4540",
"}  c #4D4A44",
"|  c #524B46",
" . c #594941",
".. c #544E49",
"X. c #5D5446",
"o. c #55514B",
"O. c #5A544D",
"+. c #5D5751",
"@. c #5E5951",
"#. c #615848",
"$. c #745646",
"%. c #625D55",
"&. c #776A49",
"*. c #746746",
"=. c #656057",
"-. c #6D6555",
";. c #656259",
":. c #6B665C",
">. c #6D695E",
",. c #7B6F53",
"<. c #706C5F",
"1. c #726B56",
"2. c #7D745D",
"3. c #6D6B61",
"4. c #726E63",
"5. c #757266",
"6. c #797365",
"7. c #767368",
"8. c #7A7569",
"9. c #7D7A6C",
"0. c #7F7E71",
"q. c #833C22",
"w. c #83462E",
"e. c #84513A",
"r. c #816734",
"t. c #826935",
"y. c #8A6F37",
"u. c #8B7037",
"i. c #8C7138",
"p. c #93763A",
"a. c #977A3C",
"s. c #9A7D3E",
"d. c #845E49",
"f. c #845A45",
"g. c #867A57",
"h. c #8B7E5A",
"j. c #9B765E",
"k. c #827B6C",
"l. c #827F72",
"z. c #9F803F",
"x. c #8A8269",
"c. c #978C6B",
"v. c #988F6F",
"b. c #95816D",
"n. c #868273",
"m. c #898576",
"M. c #8B8778",
"N. c #8D8B7B",
"B. c #918E7E",
"V. c #93907F",
"C. c #969382",
"Z. c #999685",
"A. c #9B9987",
"S. c #9C9B89",
"D. c #A09E8C",
"F. c #A3A18F",
"G. c #A6A491",
"H. c #A8A692",
"J. c #AAA995",
"K. c #AEAD99",
"L. c #B1AE9A",
"P. c #B2B19D",
"I. c #B6B5A0",
"U. c #B8B7A3",
"Y. c #BDBCA6",
"T. c #BEBEA8",
"R. c #C0BFA9",
"E. c #C3C3AC",
"W. c #C7C7B0",
/* pixels */
"                                                            . . . . . . .                                                       ",
"                                                          w M m M w 4 4 %                                                       ",
"                                                        . y 6.n.9...i p 7 .                                                     ",
"                                                      % { %.l.Z.G.9.+.a u 8 %                                                   ",
"                                                    . % %.m.n.D.I.Z.3.M u u % .                                                 ",
"                                                    . 4 %.l.n.N.C.M.:.w o o X .                                                 ",
"                                                    . % ..:.:.8.n.n.8.+.{ n 4 .                                                 ",
"                                                    . O r M a %.n.n.C.I.G.8.i . . .                                             ",
"                                                    . o 9 o.0.5.%.C.K.E.J.n.;.L % .                                             ",
"                                                    . X 9 ;.U.N.O.A.T.T.S.9.8.%.5 .                                             ",
"                                                    . O u ;.U.I.G.C.C.C.7.| } M % .                                             ",
"                                                    - 1 w } N.F.K.C.n.m.%.p t 8 o                                               ",
"                                                  . f C ; 6 M :.m.m.m.n.=.u 4 .                                                 ",
"                                                - f C Z g d 7 K =.7.8.;.L 6 O .                                                 ",
"                                              $ s Z q.q.q.j - 7 p =.;.M 7 . O O                                                 ",
"                                            # f C q.q.q.q.Z j f % e e 5 & = = * O                                               ",
"                                          w n ^ e.e.w.q.q.q.q.! { n r r B ~ l s + O                                             ",
"                                        . | 8.k.k.k.f.q.q.q.q.j.L.M.9.8.C.K.$.s s * .                                           ",
"                                      r L >.n.n.n.n.$.V $.d.d.b.G.G.G.G.C.l. .v ~ c .                                           ",
"                                    & { n.m.n.n.m.m.@.a <.n.n.n.M.K.E.E.n.p p } 8.O.$                                           ",
"                                  r 8.S.L.A.n.n.n.n...9 ;.n.n.n.m.C.A.A.3.p p } 8.6.%.r .                                       ",
"                                . w 8.K.W.K.C.C.m.>.M 9 5.Z.C.N.n.n.n.n.;.p [ o.-.6.l.M .                                       ",
"                                . o 5 %.R.R.R.R.N.e 9 K C.T.Y.F.n.n.n.n.=.p =.>.v X.l.M .                                       ",
"                                . o 1 I 6.6.8.6.O.o 7 K 4.C.H.H.F.F.F.G.n.@.%.X.q v #.r .                                       ",
"                                X - H b @ . O . . . 7 i p } 8.D.R.E.W.E.G.9.o.e o @ < @ .                                       ",
"                              . b ) t.t.) D z # . . $ 4 t K o.%.4.N.A.A.9.o.t % X @ < @ X                                       ",
"                              . W z.s.s.z.t.D > . . . o t p p p a @.7.7.o.e % . . @ < @ .                                       ",
"                              . R z.z.z.s.r.D > . . . o 9 p p p a [ [ [ u o . . . @ < @ .                                       ",
"                              . ! u.s.a.y.R h @ . . & 3 v J p p p p p p 7 . . X @ : < > 4 o                                     ",
"                              X x Q p.u.E 3 . . . . z E W H a p p a p p 9 X X X > < < y t $ .                                   ",
"                          . i O.-.,.` R 3 ,   . . . z E E R H 1.N.5.:.;.2.k.Y y : > y p e o .                                   ",
"                          . m l.l.k.*.F X     . o 7 P ( W E E v.E.F.V.V.H.R.x.A @ 6 p p u o .                                   ",
"                          . M l.M.k.k.O.O     . r =.6.2.' E E c.W.T.U.U.E.E.h.A # 4 p p t o .                                   ",
"                          . M l.n.n.l.+.O .   ..:.n.n.n.x.g.&.2.n.n.0.n.n.l.,.Y & 6 p p u o .                                   ",
"                          . m n.n.n.m.+.O X w Z.K.m.M.M.P.P.M.} X X X X . $ @.:.7 6 p p t o . . .                               ",
"                          . m l.n.9.%.M X . w Z.R.K.J.J.F.Z.n.+.8 7 6 X . X %.8.@.a 6 > 4 & @ . .                               ",
"                          . i 8.8.<.I e & O w C.Y.T.Y.P.C.l.8.+.p p 9 o . O ..8.7.| X X @ < , . .                               ",
"                          . 8 } } | U D S 1 6 4.V.V.Z.V.N.4...[ p p e o . X i } } t . @ < A h . .                               ",
"                          . q Y Y / _ Q E / #.8.n.n.B.Z.4.o.a p p t 7 o . . 5 i } K > 3 b T b X .                               ",
"                          . x a.s.s.z.u.W v.I.V.n.n.G.P.} 4 u p u 4 . . . . . e 3.%.p S E E h . .                               ",
"                          . z r.p.z.z.` h n.E.P.J.J.m.+.p e u e 4 o . . . . . w 4.8.%.U h b 3 . .                               ",
"                          . 2 D ` a.a.E O :.L.K.K.K.%.4 e i u 4 . . . . . . . 0 =.k.n.I < < : . .                               ",
"                            # > S Q Q A X w N N [ M p e u t 4 o . . . . . . . $ w o.n.I , @ O                                   ",
"                              . 3 A A 3 O . X $ 4 % e p p e X . . . . . . . . . . r %.c # X                                     ",
"                                X O O O   . X e p u p p p 9 X . . . . . . . . . . X $ O X                                       ",
"                                          . o e p p p u 9 4 X . . . . . . . . . . . . .                                         ",
"                                          % 6 M } [ a u o X . .   . . . . o $ 4 % $ O                                           ",
"                                        . L 3.N.S.S.3.u 4 . . .   . . . 4 e ..%.=.| e % .                                       ",
"                                        . ..B.P.W.W.N.} w $ X .   . o % u o.5.n.n.;.i 4 .                                       ",
"                                        . ..N.I.W.W.D.5.} 9 X .   X o 9 o.9.0.n.n.;.p 4 .                                       ",
"                                        . m :.C.H.H.n.@.i 5 o     X % u } =.%.%.=.[ 7 %                                         ",
"                                        . 8 K 3.9.9.+.t % .       . o t u p u u p 7 .                                           ",
"                                        . 7 a } o.o.i 4 X .       . X % % % 4 % % o .                                           ",
"                                        . 8 p p p p 6 . . .       . . . . . X . . . .                                           ",
"                                        . 8 p p p p 6 . . .       . . . . . . . . .                                             ",
"                                        . 7 p p u 8 o X .         . . . . . . . . .                                             ",
"                                        . 8 a a e X . .           . . . . . X X . .                                             ",
"                                        . N :.:.| $ . .           . . . . . 4 6 o X                                             ",
"                                      . . N :.:.O.r % .           . X o o % 8 9 % o                                             ",
"                                    . . . # 7 7 M :.M .           . $ e u t 6 % e 7 . X .                                       ",
"                                  5 m | %.%.O.e y ..r .           . o 7 7 8 i { o.K 7 6 4 o                                     ",
"                                . 5 >.D.E.W.I.;.e X . .           . . . X o @.n.n.;.p p t $ .                                   ",
"                                . 0 >.S.E.W.U.l.o.e % .           . . . % e ;.n.n.8.:.} t o .                                   ",
"                                . 7 >.S.E.W.T.C.3.M 6 .           . . . 6 a >.n.n.n.n.o.u o .                                   "
};
