/* XPM */
static char *PF_21676119209[] = {
/* columns rows colors chars-per-pixel */
"64 64 167 2 ",
"   c None",
".  c #1A0E13",
"X  c #1D1115",
"o  c #1F1418",
"O  c #221515",
"+  c #2C1313",
"@  c #261916",
"#  c #291D15",
"$  c #21161A",
"%  c #241A1D",
"&  c #2B1D1A",
"*  c #3B1613",
"=  c #351A17",
"-  c #301818",
";  c #371816",
":  c #2E221B",
">  c #322616",
",  c #352817",
"<  c #35261B",
"1  c #3C221D",
"2  c #3C2D1C",
"3  c #3F311E",
"4  c #271E21",
"5  c #291F21",
"6  c #272022",
"7  c #2B2325",
"8  c #2D2728",
"9  c #2E2929",
"0  c #312626",
"q  c #342B26",
"w  c #322728",
"e  c #322C2C",
"r  c #392E2E",
"t  c #3C3125",
"y  c #34302F",
"u  c #3A302F",
"i  c #363332",
"p  c #3B3533",
"a  c #3A3836",
"s  c #3E3B39",
"d  c #451A13",
"f  c #40241E",
"g  c #4E251A",
"h  c #52271D",
"j  c #5B2A1C",
"k  c #41311E",
"l  c #642E1E",
"z  c #66301E",
"x  c #71341F",
"c  c #483721",
"v  c #473927",
"b  c #4D3C22",
"n  c #453A28",
"m  c #4E352E",
"M  c #413735",
"N  c #443B34",
"B  c #443D3A",
"V  c #483F3D",
"C  c #4D3932",
"Z  c #523F38",
"A  c #763620",
"S  c #783720",
"D  c #4A402D",
"F  c #534224",
"G  c #594625",
"H  c #53472F",
"J  c #5C4629",
"K  c #574A2F",
"L  c #5B4A2A",
"P  c #4C4231",
"I  c #45423E",
"U  c #4A433E",
"Y  c #564934",
"T  c #5A4D33",
"R  c #54443C",
"E  c #514B3E",
"W  c #5E5239",
"Q  c #624E29",
"!  c #65512A",
"~  c #69552B",
"^  c #725C2F",
"/  c #644136",
"(  c #684232",
")  c #68453A",
"_  c #784C38",
"`  c #675737",
"'  c #6D5B33",
"]  c #765D31",
"[  c #776030",
"{  c #7C6432",
"}  c #464440",
"|  c #4B4642",
" . c #4D4A45",
".. c #4F4D48",
"X. c #514A44",
"o. c #594F41",
"O. c #534E49",
"+. c #5C5142",
"@. c #54514B",
"#. c #5B554D",
"$. c #5A5750",
"%. c #5D5A53",
"&. c #644A40",
"*. c #6A5A4A",
"=. c #7E5744",
"-. c #615C54",
";. c #736544",
":. c #76694A",
">. c #666055",
",. c #666359",
"<. c #6B665C",
"1. c #6E685C",
"2. c #716854",
"3. c #786D52",
"4. c #7A725B",
"5. c #6E6B61",
"6. c #726D62",
"7. c #757266",
"8. c #7A7466",
"9. c #757368",
"0. c #7A7569",
"q. c #7D796C",
"w. c #833C22",
"e. c #83442B",
"r. c #84513B",
"t. c #846B35",
"y. c #886E36",
"u. c #977A3C",
"i. c #9B7D3E",
"p. c #845E49",
"a. c #80714B",
"s. c #837755",
"d. c #817965",
"f. c #837C6D",
"g. c #837E72",
"h. c #9F803F",
"j. c #88826E",
"k. c #8C8262",
"l. c #868273",
"z. c #898576",
"x. c #878679",
"c. c #898679",
"v. c #8E8A7A",
"b. c #998875",
"n. c #918E7D",
"m. c #93907F",
"M. c #98927E",
"N. c #A0836C",
"B. c #A1997B",
"V. c #969382",
"C. c #989685",
"Z. c #9C9987",
"A. c #9D9B89",
"S. c #A39D8B",
"D. c #A3A18F",
"F. c #A5A391",
"G. c #A8A694",
"H. c #ABA996",
"J. c #AFAD9A",
"K. c #B0AF9B",
"L. c #B4B29E",
"P. c #B8B59B",
"I. c #B7B6A1",
"U. c #BDBCA6",
"Y. c #C0BFA9",
"T. c #C3C3AC",
"R. c #C7C7B0",
/* pixels */
"                                                            . . . . . .                                                         ",
"                                                          q B B M 7 4 4 %                                                       ",
"                                                        . B g.l.8.| a a 6 .                                                     ",
"                                                      0 X.<.l.A.A.9.@.s e 7 $                                                   ",
"                                                    . w 6.g.l.F.K.n.<.i i 9 $ X                                                 ",
"                                                    . w 6.l.l.v.V.z.-.% % o X .                                                 ",
"                                                    . 7 #.<.<.q.g.l.6.$.U u % .                                                 ",
"                                                    . % p s s <.l.l.Z.U.Z.6.w . .                                               ",
"                                                    . % y $.x.l.v.S.I.R.S.q.%.M X                                               ",
"                                                    . o y 9.R.G.V.L.U.U.C.q.q.#.o                                               ",
"                                                    X 4 y 9.R.U.K.A.V.C.5. .O.p X                                               ",
"                                                    = = 9 $.C.G.G.n.l.l.$.a e 7 X                                               ",
"                                                  O j l & 7 } 6.z.z.l.l.%.i % .                                                 ",
"                                                ; h A S j f 5 | %.-.%.%.B 4 O .                                                 ",
"                                              O g w.w.w.w.j + 0 i i i i 5 . . .                                                 ",
"                                            + j x w.w.w.w.A l f % % % % - * * ; X                                               ",
"                                          r m _ r.r.e.w.w.w.w./ V p u r R ) h * + O                                             ",
"                                        $ #.q.f.f.d.r.w.w.w.w.N.G.l.q.0.S.S./ d d + .                                           ",
"                                      p X.6.l.l.l.g.*.( p.p.p.N.G.F.F.F.n.8.R m ) r .                                           ",
"                                    5 O.v.l.l.l.l.g.O.} 8.g.g.z.n.L.T.T.7.a a @.f.X.$                                           ",
"                                  V g.A.J.M.l.l.l.g.U p 6.l.l.l.v.V.Z.Z.,.a a @.g.6.#.r                                         ",
"                                . p c.J.T.G.V.V.g.,.p p q.C.C.v.l.l.l.l.$.s } $.1.8.8.r .                                       ",
"                                . $ 0 0.T.Y.Y.Y.q.4 9 @.F.U.U.A.l.l.l.l.$.I <.>.n *.7.r .                                       ",
"                                . O 1 o.0.0.0.8. .. 9  .q.F.R.K.D.D.D.D.q.%.>.E : N +.7 .                                       ",
"                                O < Q c O O . . . . 9 a a 5.Y.T.T.T.T.T.S.9. .9 X : > O .                                       ",
"                              @ J ] t.t.~ G c O . . 9 a a ..5.5.9.V.A.A.9.O.I 9 . # > X X                                       ",
"                            . @ ] h.i.h.i.{ F @ . . 5 y a a a a I ,.7.7...y 9 7 . # , O X                                       ",
"                            . @ ] h.h.h.i.{ F @ . . X 4 i a a a a I } } 9 o o o . : > O .                                       ",
"                            . O ! y.y.y.t.Q 2 O . . & c n B a a a a a a 6 . . X @ : q 7 %                                       ",
"                            . O b ~ ~ ~ Q 0 . . . X b ~ ~ K a a s a a a 7 X X O > t a a e X                                     ",
"                        . . N -.2.:.' b 1 & . . . . b ~ ~ ! Y 4.c.7.<.,.8.8.T 2 @ q a a e X                                     ",
"                        . .  .l.z.d.[ n X     . % w Y ' ~ ~ ~ B.U.A.m.m.L.P.3.b X 8 a a 9 X                                     ",
"                        . . X.l.l.f.d.X..     . M 1.8.4.' ~ ~ B.T.U.U.U.T.P.3.b X 7 a a 9 o                                     ",
"                        . . X.l.l.l.l.X.. . u #.1.l.j.j.k.s.:.8.l.l.q.l.q.g.3.T o 7 a a 9 X .                                   ",
"                        . . X.g.z.l.l.O.. . B G.H.z.l.m.U.H.g.V X X X X . 7 <.-.$ 7 a a e X . . .                               ",
"                        . . X.l.g.q.-.p . . B H.U.H.H.H.S.V.l. .7 8 % X . & 1.7.@.a : : : # o X .                               ",
"                        . . B 0.8.<.U q @ O B D.U.U.U.K.V.f.0.O.a a 9 . . 5 -.0.8.I . X # 2 : . .                               ",
"                        . . e  . .E T G b < r g.V.n.V.n.g.5. .B a a 9 . . % B |  .q X # 2 G 2 . .                               ",
"                        . . c ' W ` { ^ ~ +.-.f.l.l.V.n.5. .a a i e 5 . . $ 4 a @.p : k F ! k . .                               ",
"                        . . J a.i.i.h.t.' B.K.v.l.z.H.S.a 6 a a y % . . . . . p q.$.a G ~ ~ k . .                               ",
"                        . . b t.u.h.h.^ v M.Y.H.G.F.g.$.y e a 8 4 X . . . . . M q.6.-.H k F , . .                               ",
"                        . . k Q t.u.i.Q $ q.K.K.J.H.O.4 i p y 4 . . . . . . . r 6.f.8.P , > # . .                               ",
"                            & < L { [ k X r V V I B i y i e 4 X . . . . . . . % e -.8.P > O O                                   ",
"                              O k b b 3 . . . % % 4 y a a 8 . . . . . . . . . . . N #.t @ X                                     ",
"                                O O X O   . % e a i a a a 9 . . . . . . . . . . . O $ X .                                       ",
"                                          . % i a a a i 8 % . . . . . . . . . . . . . .                                         ",
"                                          4 8 B  .} s e o . .     . . . X o % 4 % $ $                                           ",
"                                        $ X.6.V.A.Z.,.y o . .     . . . 4 i #.-.-.| w %                                         ",
"                                        $ -.V.U.R.T.q.} 7 o .     . o % a $.9.l.l.%.i % .                                       ",
"                                        $ -.V.U.R.T.C.6.I 7 .     . % i %.q.l.l.l.%.i % .                                       ",
"                                        X } 7.A.G.F.q.@.r 4 .     X : i O.>.%.>.-.I 7 $                                         ",
"                                        . w  .7.g.q.O.e $ .       . 6 i i i i a a 6 .                                           ",
"                                        X 9 B  .O.O.y o X X       . X 4 % % % % % X .                                           ",
"                                        X 9 a a a 9 % . . .       . . . . . X . . . .                                           ",
"                                        X 9 a a 8 o X . . .       . . . . . . . . .                                             ",
"                                        X 9 a a 7 . . . .         . . . . . . . .                                               ",
"                                        X e s s 8 . . .           . . . . . . . .                                               ",
"                                        X X.<.1.U . . .           . . . . . 7 6 X                                               ",
"                                      . $ X.<.1.X.q $ .           . X % o 4 9 8 % $                                             ",
"                                    . . . % 0 7 U 6.p .           . 4 y i 9 4 4 e 6 . X .                                       ",
"                                  8 B O.-.-.O.w p O.w .           . $ 8 8 w B | #.s 6 6 %                                       ",
"                                . r 8.D.R.R.F.O.w . . .           . . . . 6 <.l.l.%.a a e X                                     ",
"                                . r 9.F.R.R.J.9. .7 % .           . . . % a 6.l.l.9.,.} e X                                     ",
"                                . r 0.G.R.R.I.n.,.a 4 .           . . . 8 } 6.l.l.l.q...9 X                                     "
};
