/* XPM */
static char *PF_31676119209[] = {
/* columns rows colors chars-per-pixel */
"64 64 168 2 ",
"   c None",
".  c #1A0E13",
"X  c #1D1115",
"o  c #1F1418",
"O  c #221415",
"+  c #2C1313",
"@  c #261916",
"#  c #291D15",
"$  c #21161A",
"%  c #241A1D",
"&  c #2B1D1A",
"*  c #3B1613",
"=  c #351A17",
"-  c #301818",
";  c #371816",
":  c #2E221B",
">  c #2E2216",
",  c #322616",
"<  c #362917",
"1  c #35261A",
"2  c #3C221D",
"3  c #372B1B",
"4  c #3C2D1C",
"5  c #3F311E",
"6  c #271E21",
"7  c #291F21",
"8  c #272022",
"9  c #2B2325",
"0  c #2D2728",
"q  c #2E2929",
"w  c #312626",
"e  c #342B27",
"r  c #322728",
"t  c #322C2C",
"y  c #392E2E",
"u  c #3D3125",
"i  c #34302F",
"p  c #39322D",
"a  c #363331",
"s  c #3B3534",
"d  c #3A3836",
"f  c #3E3B39",
"g  c #451A13",
"h  c #47251C",
"j  c #52271D",
"k  c #5B2A1C",
"l  c #41311E",
"z  c #642E1E",
"x  c #66301E",
"c  c #71341F",
"v  c #483721",
"b  c #473927",
"n  c #4D3C22",
"m  c #4A382B",
"M  c #413735",
"N  c #443B34",
"B  c #4B3B32",
"V  c #443D3A",
"C  c #483F3D",
"Z  c #523F38",
"A  c #763620",
"S  c #783720",
"D  c #4A402D",
"F  c #544224",
"G  c #594625",
"H  c #53472F",
"J  c #5C4629",
"K  c #574A2F",
"L  c #5B4A2A",
"P  c #4C4231",
"I  c #44413D",
"U  c #4A433E",
"Y  c #564934",
"T  c #5A4D33",
"R  c #54443C",
"E  c #514B3E",
"W  c #5E5239",
"Q  c #624E29",
"!  c #65522A",
"~  c #6A552B",
"^  c #725C2E",
"/  c #644136",
"(  c #684436",
")  c #784C38",
"_  c #675737",
"`  c #6D5C34",
"'  c #755C31",
"]  c #776030",
"[  c #7C6432",
"{  c #474540",
"}  c #4A4642",
"|  c #4D4A45",
" . c #4F4D48",
".. c #514944",
"X. c #534E49",
"o. c #5C5142",
"O. c #54514B",
"+. c #5A544D",
"@. c #5C5750",
"#. c #5D5A52",
"$. c #644A40",
"%. c #695A48",
"&. c #7E5744",
"*. c #625C54",
"=. c #736544",
"-. c #7B6A44",
";. c #666056",
":. c #666259",
">. c #6B665C",
",. c #6D685D",
"<. c #786D52",
"1. c #7C745E",
"2. c #7B7157",
"3. c #6E6B61",
"4. c #726D62",
"5. c #757265",
"6. c #7A7466",
"7. c #757368",
"8. c #7A7569",
"9. c #7D796C",
"0. c #833C22",
"q. c #83442B",
"w. c #84513B",
"e. c #846B35",
"r. c #886E36",
"t. c #866D38",
"y. c #8E7238",
"u. c #977A3C",
"i. c #9B7D3E",
"p. c #917439",
"a. c #845E49",
"s. c #80714B",
"d. c #837755",
"f. c #817965",
"g. c #837C6D",
"h. c #837F71",
"j. c #9F803F",
"k. c #88826E",
"l. c #8C8262",
"z. c #868273",
"x. c #898576",
"c. c #878679",
"v. c #898679",
"b. c #8D8A7A",
"n. c #998875",
"m. c #918E7E",
"M. c #93907F",
"N. c #98927E",
"B. c #A0836C",
"V. c #A1997B",
"C. c #959282",
"Z. c #999786",
"A. c #9C9987",
"S. c #9D9B89",
"D. c #A39D8B",
"F. c #A3A18F",
"G. c #A5A391",
"H. c #A9A794",
"J. c #ABA996",
"K. c #AFAD9A",
"L. c #B0AF9B",
"P. c #B4B29E",
"I. c #B8B59B",
"U. c #B7B6A1",
"Y. c #BCBBA6",
"T. c #C0BFA9",
"R. c #C3C3AC",
"E. c #C7C7B0",
/* pixels */
"                                                              . . . . . .                                                       ",
"                                                            t V N M 9 6 7 %                                                     ",
"                                                          . V h.h.7.| d d 9 .                                                   ",
"                                                        w ..8.J.J.D.5.O.d t 9 $                                                 ",
"                                                      . r 4.A.Y.T.L.m.:.a a q 6 o                                               ",
"                                                      . r 4.b.C.C.m.x.*.% % % 0 9 X                                             ",
"                                                      . 9 +.,.,.8.z.z.5.+.} s t 8 X                                             ",
"                                                      . $ s f f >.z.h.A.Y.A.4.t . .                                             ",
"                                                      . o i @.c.A.J.J.G.G.9.@.O.f X                                             ",
"                                                      . $ i 7.E.T.T.T.J.z.#.I >.+.O                                             ",
"                                                      . $ a 7.E.J.C.C.m.z.#.f } s X                                             ",
"                                                      - 2 q @.Z.m.z.z.8.3. .d t 9 X                                             ",
"                                                    X k x - 0 { ,.h.z.3.V f a % X                                               ",
"                                                  ; j A S k h 6 } *.#. .f q 6 o .                                               ",
"                                                O h 0.0.0.0.z O w i a a a 6 . . .                                               ",
"                                              ; k c 0.0.0.0.c x h % % % 6 - * * ; .                                             ",
"                                            y B q.w.w.q.0.0.0.0.Z U M y y Z ( k * + O                                           ",
"                                          $ *.8.g.g.g.w.0.0.0.0.B.J.h.8.f.D.D.Z g g + .                                         ",
"                                        M ..,.h.x.h.h.%.( a.a.a.n.J.G.G.G.C.7.R B $.l .                                         ",
"                                      % X.x.x.x.h.x.h.O.U 6.g.z.h.N.U.T.T.7.d d X.g...$                                         ",
"                                    V h.D.L.C.z.z.z.z.U a 5.h.c.h.n.C.A.Z.:.d d O.h.4.*.t                                       ",
"                                  . M v.D.P.D.C.C.h.;.s s h.b.h.h.x.z.h.z.@.f } @.,.f.4.y .                                     ",
"                                  . O w *.m.L.T.Y.9.8 q O.G.G.c.h.h.z.z.z.#.I ,.;.b *.6.p .                                     ",
"                                $ n n l B O.>.6.8.| X q | 7.C.F.G.G.G.G.F.9.;.9.*.& B o.9 .                                     ",
"                              . @ ' p.^ v O . . . . . r d d 3.R.T.E.E.R.R.D.h.h.#.O # , O X                                     ",
"                              . @ ' i.p.[ ^ J l O . X r d d  .3.v.D.A.A.S.7.O.O.f X # , X .                                     ",
"                              . $ ~ u.i.j.i.[ F @ . . 9 i d d d #.5.5.5.5.O.d a 9 X > , # @                                     ",
"                              . O G [ i.j.i.[ F @ . . X % a d d V { { { { f a 6 X . # 3 i 0 X                                   ",
"                              y R %.-.t.t.e.L 4 o . X > v m D d d d d d d i 8 o X @ > 3 p t X                                   ",
"                          . . ..z.z.6.` ~ ! 1 . . . O l ~ ~ K d d f d d d 9 X X @ , , 3 p q o                                   ",
"                          . . | z.z.1.` F 1 & . . . . n ~ ~ Q Y 1.c.5.:.:.6.6.Y 5 @ 1 p d q X                                   ",
"                          . . ..z.z.f.] b .     . % r Y ` ~ ~ ~ N.T.S.M.M.P.I.<.n X q d d q X .                                 ",
"                          . . ..z.z.z.f.R .     . M ,.6.1.` ~ ~ V.E.Y.U.Y.E.P.<.n X 9 d d q X . . .                             ",
"                          . . ..z.z.z.z.X.. . s +.,.x.z.z.l.d.=.1.k.h.h.z.9.g.<.Y O 0 d d t X . . .                             ",
"                          . . | z.z.z.z.X.. . V J.H.z.z.m.Y.J.z.I X X X X X 9 >.#.O 9 d d q X . . .                             ",
"                          . . ..z.z.6.*.s . . V J.T.J.J.H.F.C.h...0 0 : . . : >.5.+.d : 6 6 > O . .                             ",
"                          . . U 8.8.>.U e @ o M D.Y.Y.Y.K.C.9.8.O.d d 0 X . % *.9.5.I . . # 4 # . .                             ",
"                          . . t } | E L L F > i g.C.C.C.C.v.3.} V d d 0 . . $ V | | e X # 5 G 4 . .                             ",
"                          . . u _ ` _ [ ' ~ $.*.g.z.z.C.C.*. .d d d t 6 . . X 9 s O.d > l F ~ l . .                             ",
"                          . . J i.s.u.j.e.` V.L.m.z.z.J.D.d 6 d d i % X . . . . s 9.@.s L ~ ~ l . .                             ",
"                          . . n e.u.j.j.^ b C.T.K.H.H.h.@.y t d q 6 X . . . . . s 9.4.*.H n l 1 . .                             ",
"                          . . 4 ! e.u.u.L @ 8.L.K.L.J.X.6 i a i 6 . . . . . . . y 4.g.6.P < < # . .                             ",
"                              & 1 Q ] ] n X y C { V V d t d t 6 X . . . . . . . % t *.6.P , O O                                 ",
"                                o l n n 4 . . X o 6 6 q a t 6 . . . . . . . . . . . N +.u # X                                   ",
"                                  O o O O   . % i a d d t % . . . . . . . . . . . . X $ X .                                     ",
"                                            . % a d d d t % . . . . . . . . . . . . . . .                                       ",
"                                            % 9 { { | f a o . .     . . . X o % % 7 % O                                         ",
"                                          % ..4.C.S.S.#.a o . .     . . . 6 a +.*.*.} r %                                       ",
"                                          $ *.C.Y.E.R.9.{ 9 $ .     . X % d @.7.z.z.#.a % .                                     ",
"                                          $ *.C.Y.R.E.A.3.I 9 .     . 6 a #.9.z.z.x.#.a % .                                     ",
"                                          X { 5.A.H.G.9.O.t 6 .     . 6 d  .#.;.*.;.V 9 $                                       ",
"                                          X r | 5.9.9.O.t $ .       . : a a a d a d 8 .                                         ",
"                                          X q f  .O.X.a % . .       . o % % 6 % o 6 o .                                         ",
"                                          o q d d a q % . . .       . . . . . . X . . .                                         ",
"                                          X q f d 0 o X . . .       . . . . . . . . .                                           ",
"                                          X q d d 0 . . . .         . . . . . . . .                                             ",
"                                          X r f f 0 . . .           . . . . . . . .                                             ",
"                                          o ..,.,.C . . .           . . . . o 9 8 .                                             ",
"                                        . o ..>.,...r $ .           . X o % % 0 0 % o                                           ",
"                                      X . . 6 9 w } 4.s .           . % a a q 6 6 a 8 . . .                                     ",
"                                    r M X.*.*.X.r s X.r .           . o 0 9 q M } +.f 8 6 6                                     ",
"                                  . y 8.G.E.E.G.X.0 . . .           . . . . 9 >.z.z.#.f d t X                                   ",
"                                  . y 6.G.E.E.P.6.| 0 $ .           . . . 6 d 4.z.z.6.;.{ 0 X                                   ",
"                                  . y 6.F.E.E.U.b.:.d 7 .           . . . 9 { 4.z.z.z.9. .t o                                   "
};
