/* XPM */
static char *PF_41676119209[] = {
/* columns rows colors chars-per-pixel */
"64 64 172 2 ",
"   c None",
".  c #1A0E13",
"X  c #1D1215",
"o  c #1F1418",
"O  c #221515",
"+  c #2C1313",
"@  c #261916",
"#  c #291C15",
"$  c #21161A",
"%  c #241A1D",
"&  c #2B1C19",
"*  c #3B1613",
"=  c #351A17",
"-  c #301818",
";  c #371816",
":  c #2F221A",
">  c #2E2216",
",  c #322616",
"<  c #362917",
"1  c #34261A",
"2  c #3C221D",
"3  c #372A1A",
"4  c #3B2C1B",
"5  c #271E21",
"6  c #291F20",
"7  c #272022",
"8  c #2B2324",
"9  c #2D2728",
"0  c #2E2929",
"q  c #312626",
"w  c #332926",
"e  c #382E20",
"r  c #322728",
"t  c #322C2C",
"y  c #382F2E",
"u  c #3F3121",
"i  c #34302F",
"p  c #3A332E",
"a  c #363332",
"s  c #3B3533",
"d  c #3A3836",
"f  c #3E3B39",
"g  c #451A13",
"h  c #47251C",
"j  c #52271D",
"k  c #5B2A1C",
"l  c #42321F",
"z  c #4C3C1F",
"x  c #642E1E",
"c  c #66301E",
"v  c #71341F",
"b  c #493721",
"n  c #4C3B22",
"m  c #443A29",
"M  c #493527",
"N  c #513F23",
"B  c #513F28",
"V  c #413735",
"C  c #433B34",
"Z  c #4C3C31",
"A  c #443D3A",
"S  c #483F3D",
"D  c #523F38",
"F  c #763620",
"G  c #783720",
"H  c #4D402B",
"J  c #564325",
"K  c #5E4B27",
"L  c #574A2F",
"P  c #58452B",
"I  c #44413E",
"U  c #4B433D",
"Y  c #4D4237",
"T  c #564A34",
"R  c #57413A",
"E  c #5C4F39",
"W  c #54493D",
"Q  c #614E27",
"!  c #624C2B",
"~  c #64512A",
"^  c #6A552B",
"/  c #6D592D",
"(  c #715C2D",
")  c #644136",
"_  c #684232",
"`  c #68453A",
"'  c #784C38",
"]  c #6D5C35",
"[  c #755C31",
"{  c #776030",
"}  c #7D6432",
"|  c #464440",
" . c #4A4642",
".. c #4D4A45",
"X. c #514A44",
"o. c #524E49",
"O. c #594942",
"+. c #595245",
"@. c #54514B",
"#. c #5A544D",
"$. c #5E5A4F",
"%. c #5A5750",
"&. c #5D5A52",
"*. c #644A40",
"=. c #695A48",
"-. c #7E5744",
";. c #625C54",
":. c #746747",
">. c #7B6A44",
",. c #666056",
"<. c #666359",
"1. c #6B665C",
"2. c #6D695D",
"3. c #6D6252",
"4. c #786D52",
"5. c #7C745D",
"6. c #7B7157",
"7. c #6E6B61",
"8. c #716C61",
"9. c #757265",
"0. c #797466",
"q. c #757368",
"w. c #7A7569",
"e. c #7D7A6C",
"r. c #7F7D70",
"t. c #833C22",
"y. c #83442B",
"u. c #84513B",
"i. c #816834",
"p. c #8A6F37",
"a. c #876E3B",
"s. c #8D723A",
"d. c #91753A",
"f. c #97793C",
"g. c #9A7C3D",
"h. c #845E49",
"j. c #80714B",
"k. c #837755",
"l. c #827C6C",
"z. c #837F72",
"x. c #9F803F",
"c. c #88826E",
"v. c #8C8262",
"b. c #868273",
"n. c #898576",
"m. c #878679",
"M. c #8A8679",
"N. c #8D8A7B",
"B. c #998875",
"V. c #918D7D",
"C. c #93907F",
"Z. c #A0836C",
"A. c #A1997A",
"S. c #969382",
"D. c #999685",
"F. c #9C9987",
"G. c #9C9A89",
"H. c #A49D8B",
"J. c #A3A18F",
"K. c #A5A491",
"L. c #A9A794",
"P. c #ABA996",
"I. c #AFAD9A",
"U. c #B0AF9B",
"Y. c #B2B19D",
"T. c #B8B59B",
"R. c #B7B6A1",
"E. c #BCBBA6",
"W. c #BFBEA9",
"Q. c #C0BFA9",
"!. c #C3C2AC",
"~. c #C7C7B0",
/* pixels */
"                                                              . . . . . .                                                       ",
"                                                            y C A V 8 5 6 %                                                     ",
"                                                          . A b.z.9. .d d 7 .                                                   ",
"                                                        8 X.w.P.S.l.7.@.d i 8 $                                                 ",
"                                                      . r 8.F.E.H.b.z.<.a a t % o                                               ",
"                                                      . r 8.M.S.M.b.b.;.% % % 0 8 X                                             ",
"                                                      . 8 #.2.2.w.n.D.z.#. .s t 7 X                                             ",
"                                                      . $ s f f 1.V.R.Q.Q.F.8.t . .                                             ",
"                                                      . o i %.m.F.U.Q.E.K.e.%.@.V X                                             ",
"                                                      . % i q.~.!.Q.E.L.m.%.S 1.#.$                                             ",
"                                                      X % i q.~.P.S.S.V.b.%.f | s X                                             ",
"                                                      = = 9 %.D.V.b.b.e.7.o.s t 8 X                                             ",
"                                                    $ k x & q | 2.b.b.2.I d a 5 X                                               ",
"                                                  = j F G k h 7 U ;.&.o.d t 6 O .                                               ",
"                                                + h t.t.t.t.k + 8 a d a a 6 X . .                                               ",
"                                              - k v t.t.t.t.F x 2 % % % % & * * ; .                                             ",
"                                            y Z ' u.u.t.t.t.t.t.D  .V y s R ` j * + O                                           ",
"                                      . . $ #.w.l.l.l.u.t.t.t.t.Z.L.b.w.w.F.H.) g g + .                                         ",
"                                    V <.;.O.8.b.b.b.z.=._ -.h.h.Z.P.K.K.K.S.w.Z M *.O.U r                                       ",
"                                  . U U.L.M.n.b.b.z.l.o.X.0.z.b.z.S.Y.!.!.q.d d o.z.b.0.y .                                     ",
"                                  .  .U.E.U.S.z.b.8.o.a p 9.b.b.z.n.D.F.F.<.d d #.l.b.w.p .                                     ",
"                                  . V M.D.D.D.D.S.2.t V @.m.V.b.n.b.b.z.b.%.f  .#.2.w.0.t .                                     ",
"                                  . + r r V N.Q.E.q.% w.Y.E.K.b.b.b.b.b.b.%.I 2.,.m =.w.p .                                     ",
"                                @ n B J B P ;.0.w...X &.V.J.K.J.J.K.H.K.J.e.,.e.;., C +.8 X                                     ",
"                              . @ [ g.x.x.f.b . . . . r  .9.F.!.!.~.!.~.~.J.b.r.$.o # , O .                                     ",
"                              . @ [ x.x.x.g.^ l O . X 0 I ..&.7.M.J.W.~.~.K.e.&.f X # , O .                                     ",
"                              . + ( g.j.f.d.{ J @ . . 8 i d d d ;.e.G.K.L.m.2.I 8 X > , & o                                     ",
"                              . O J p.x.p.( / J @ . . X % i d d A  .o.@.@...A 7 X . # 3 i 9 X                                   ",
"                              y Y =.>.s.^ b b 4 o . . , e Z I s d d d d d d a o X @ > 3 p 0 X                                   ",
"                          . . X.b.c.5.] l . . . . . . n ^ ^ L d f d d d d f a % @ , < 3 p t X                                   ",
"                          . . ..b.b.l.6.Y . . . . . . n ^ ^ ~ L 5.m.9.<.1.r.b.E e # 1 p d 0 X                                   ",
"                          . . X.b.b.b.b.o..     . % r T [ ^ ^ ^ C.W.G.C.C.Y.T.4.n X 9 d d t X .                                 ",
"                          . . ..b.b.b.b.o..     . C 2.0.6.] ^ ^ A.~.E.E.E.W.T.4.n X 8 d d 0 X . . .                             ",
"                          . . X.b.b.l.2.A . . y #.2.n.b.c.v.k.:.5.c.b.r.r.b.l.4.T O 8 d t 7 @ O . .                             ",
"                          . . X.b.b.8.I q . . C P.L.b.b.S.R.P.b.U X X X X X 8 1.;.$ 9 a % @ , # . .                             ",
"                          . . s %.%.o.T B b & S P.E.P.P.L.J.S.b.o.9 9 & . . : 1.9.@.d : & 3 n 3 . .                             ",
"                          . . w U Y T / ^ ~ 1 C H.E.E.E.U.N.z.w.@.d d 0 . . % ;.w.w.I X , z ~ l . .                             ",
"                          . . B a.a.s.d.i.^ 1 y z.S.S.S.S.M.7. .A d d 0 X . $ A ....w O z Q ^ l . .                             ",
"                          . . N s.g.x.x.[ B W ;.l.b.z.S.S.;...d d a 0 5 . . X 8 s @.s 8 z J J 4 . .                             ",
"                          . . l / s.x.x.! % b.U.V.b.n.P.J.s 5 d d a % X . . . . s e.$.a 4 < < # . .                             ",
"                              1 b ^ i.i.N % M.Q.I.L.L.z.%.a i d 0 5 X . . . . . s l.8.;.m , # O                                 ",
"                                O n K K 4 % e.U.I.I.P.o.% a a i 5 . . . . . . . y 8.l.0.Z # .                                   ",
"                                  : : : @ X y S | S | a t a t 5 X . . . . . . . % t ;.0.V O                                     ",
"                                    . . . . . . o % 5 t s t 5 . . . . . . . . . . . V #.t                                       ",
"                                            . $ i a d d i % X . . . . . . . . . . . X $                                         ",
"                                          $ S  .f d d d t o . . . . . . . . . . . . 5 8 $                                       ",
"                                          $ ;.0.@. ...f a o . .     . . . X o % % 6 t a 5 .                                     ",
"                                          $ ;.M.G.G.G.&.a o . .     . . . 5 d @.;.;.O.a % .                                     ",
"                                          $ ;.S.E.~.!.r.| 8 $ .     X o % f @.w.b.b.&.a % .                                     ",
"                                          $ ;.S.E.~.!.D.8.I 8 .     . % a &.e.b.b.b.&.a % .                                     ",
"                                          X  .8.G.K.K.e.@.t 5 .     . X 8 ..&.,.;.,.I 8 $                                       ",
"                                          X 0 ..w.l.e.@.t o .       . . . 8 d a a a 7 .                                         ",
"                                          X 0 I ..@.@.a o X .       . . . o % % 5 % o X                                         ",
"                                          X 0 d d a t o . X .       . . . . X . . . . .                                         ",
"                                          X 0 d d 0 o X . . .       . . . . . . . . .                                           ",
"                                          X r d d 8 X . . .         . . . . . . . .                                             ",
"                                          X r f V 9 . . .           . . . . . X . .                                             ",
"                                          o X.2.7.S . . .           . . . . X 8 7 X                                             ",
"                                        . o X.1.2.X.t @ .           . X o $ % 0 8 % o                                           ",
"                                      . . . % 8 8  .2.s .           . % a a 0 5 7 i 7 X . .                                     ",
"                                    q A o.;.;.o.r s @.r .           . $ 9 9 0 V ..@.A 7 7 %                                     ",
"                                  . y 0.K.~.~.K.o.9 . . .           . . . . 7 1.b.b.&.d d t X                                   ",
"                                  . y 0.J.~.~.I.w...r $ .           . . . 5 d 8.b.b.q.,. .0 X                                   ",
"                                  . y w.K.~.~.R.V.<.d 5 .           . . . 8 I 9.b.b.b.e.o.0 X                                   "
};
