/* XPM */
static char *PF_51676119210[] = {
/* columns rows colors chars-per-pixel */
"64 64 172 2 ",
"   c None",
".  c #1A0E13",
"X  c #1D1215",
"o  c #1F1418",
"O  c #221515",
"+  c #2C1313",
"@  c #261916",
"#  c #291C15",
"$  c #21161A",
"%  c #241A1D",
"&  c #2B1C19",
"*  c #3B1613",
"=  c #351A17",
"-  c #301818",
";  c #371816",
":  c #2F221A",
">  c #2E2216",
",  c #322616",
"<  c #362917",
"1  c #34261A",
"2  c #3C221D",
"3  c #372A1A",
"4  c #3B2C1B",
"5  c #271E21",
"6  c #291F20",
"7  c #272022",
"8  c #2B2324",
"9  c #2D2728",
"0  c #2E2929",
"q  c #312626",
"w  c #332926",
"e  c #382E20",
"r  c #322728",
"t  c #322C2C",
"y  c #382F2E",
"u  c #3F3121",
"i  c #34302F",
"p  c #3A332E",
"a  c #363332",
"s  c #3B3534",
"d  c #3A3836",
"f  c #3E3B39",
"g  c #451A13",
"h  c #47251C",
"j  c #52271D",
"k  c #5B2A1C",
"l  c #42321F",
"z  c #4C3C1F",
"x  c #642E1E",
"c  c #66301E",
"v  c #71341F",
"b  c #493721",
"n  c #4C3B22",
"m  c #443A29",
"M  c #493527",
"N  c #513F23",
"B  c #513F28",
"V  c #413735",
"C  c #433B34",
"Z  c #4C3C31",
"A  c #433D3A",
"S  c #483F3D",
"D  c #523F38",
"F  c #763620",
"G  c #783720",
"H  c #4D402B",
"J  c #564325",
"K  c #5E4B27",
"L  c #574A2F",
"P  c #58452B",
"I  c #44413E",
"U  c #4B433D",
"Y  c #4D4237",
"T  c #564A34",
"R  c #57413A",
"E  c #5C4F39",
"W  c #54493D",
"Q  c #614E27",
"!  c #624C2B",
"~  c #64512A",
"^  c #6A552B",
"/  c #6D592D",
"(  c #715C2D",
")  c #644136",
"_  c #684232",
"`  c #68453A",
"'  c #784C38",
"]  c #6D5C35",
"[  c #755C31",
"{  c #776030",
"}  c #7D6432",
"|  c #464440",
" . c #4A4642",
".. c #4D4A45",
"X. c #514A44",
"o. c #524E49",
"O. c #594942",
"+. c #595245",
"@. c #54514B",
"#. c #5A544D",
"$. c #5E5A4F",
"%. c #5A5750",
"&. c #5D5A52",
"*. c #644A40",
"=. c #695A48",
"-. c #7E5744",
";. c #625C54",
":. c #746747",
">. c #7B6A44",
",. c #656155",
"<. c #666359",
"1. c #6A665C",
"2. c #6D685D",
"3. c #6D6252",
"4. c #786D52",
"5. c #7C745D",
"6. c #7B7157",
"7. c #6E6B60",
"8. c #716C61",
"9. c #757266",
"0. c #797466",
"q. c #757368",
"w. c #7A7569",
"e. c #7D7A6C",
"r. c #7F7D70",
"t. c #833C22",
"y. c #83442B",
"u. c #84513B",
"i. c #816834",
"p. c #8A6F37",
"a. c #876E3B",
"s. c #8D723A",
"d. c #91753A",
"f. c #97793C",
"g. c #9A7C3D",
"h. c #845E49",
"j. c #80714B",
"k. c #837755",
"l. c #837B6C",
"z. c #837F72",
"x. c #9F803F",
"c. c #88826E",
"v. c #8C8262",
"b. c #868273",
"n. c #898576",
"m. c #878679",
"M. c #8A8679",
"N. c #8D8A7B",
"B. c #998875",
"V. c #918E7E",
"C. c #93907F",
"Z. c #A0836C",
"A. c #A1997A",
"S. c #969382",
"D. c #999685",
"F. c #9C9987",
"G. c #9C9A89",
"H. c #A49D8B",
"J. c #A3A18F",
"K. c #A5A491",
"L. c #A9A794",
"P. c #ABA996",
"I. c #AFAD9A",
"U. c #B0AF9B",
"Y. c #B2B19D",
"T. c #B8B59B",
"R. c #B7B6A1",
"E. c #BCBBA6",
"W. c #BFBEA9",
"Q. c #C0BFA9",
"!. c #C3C2AC",
"~. c #C7C7B0",
/* pixels */
"                                                              . . . . . .                                                       ",
"                                                            t A A V 9 5 5 %                                                     ",
"                                                          . S z.z.9...d d 8 .                                                   ",
"                                                        8 X.w.P.P.H.8.#.d t 8 $                                                 ",
"                                                      . r 8.G.E.E.Y.V.<.a a 0 % o                                               ",
"                                                      . r 8.M.S.S.V.n.;.% % % 0 8 X                                             ",
"                                                      . 8 %.2.7.w.M.D.z.#.U s t 8 .                                             ",
"                                                      . @ a V f 1.V.R.!.Q.G.8.t . .                                             ",
"                                                      . o i %.m.G.I.Q.R.K.e.%.o.V O                                             ",
"                                                      X o i q.~.!.Q.Q.P.b.%.| 1.#.$                                             ",
"                                                      X % a q.~.P.S.S.V.b.%.f  .s X                                             ",
"                                                      = = 9 %.D.V.b.b.e.7.o.d t 8 X                                             ",
"                                                    X k v - 9 | 1.b.b.2.I d a % X                                               ",
"                                                  ; j F v k h 7 U ;.;.o.d t 6 O .                                               ",
"                                                O h t.t.t.t.k + 9 a a a a 6 X . .                                               ",
"                                              ; k v t.t.t.t.v x 2 % % % % & * * ; .                                             ",
"                                            y Z ' u.u.t.t.t.t.t.D U s y y R ` j * + O                                           ",
"                                      . . $ #.w.l.l.l.u.t.t.t.t.Z.P.b.q.w.H.H.) g g + .                                         ",
"                                    V <.;.O.8.b.b.b.z.=._ h.h.h.B.P.K.K.K.S.w.Z M *.O.U r                                       ",
"                                  . U U.L.M.n.b.b.z.l.o...0.z.z.b.B.R.!.!.q.d d o.z.b.0.y .                                     ",
"                                  .  .U.E.U.S.z.b.8.o.a p 9.b.b.b.M.D.F.G.<.d d #.l.b.w.p .                                     ",
"                                  . V M.D.D.D.D.S.2.t V @.m.V.b.b.b.b.b.b.%.f  .#.2.w.0.t .                                     ",
"                                  . + r r V N.Q.E.q.% w.Y.E.K.b.b.z.b.b.b.%.I 2.,.m =.w.p .                                     ",
"                                @ n B J B P ;.0.w...X &.V.J.K.K.K.J.K.J.J.e.,.e.;., C +.8 X                                     ",
"                              . @ [ g.x.x.f.b . . . . r  .9.F.Q.!.!.~.~.~.J.b.r.$.$ # , O X                                     ",
"                              . @ [ x.x.x.g.^ l O . . 0 I ..&.7.M.K.W.~.~.J.e.&.f X # , X .                                     ",
"                              . + ( g.j.f.d.{ J @ . X 8 i d d d ;.e.G.K.K.m.2.I 8 X > < > o                                     ",
"                              . O J p.x.p.( / J @ . . X % i d d A  .o.@.@...A 7 X . @ < t 9 X                                   ",
"                              y Y =.>.s.^ b b 4 o . . , e Z I s d d d s d d a o X @ > 3 s 0 X                                   ",
"                          . . X.b.c.5.] l . . . . . . n ^ ^ L d d f f f f f a % @ , < < p t X                                   ",
"                          . . ..b.b.l.6.Y . . . . . . n ^ ^ ~ L 5.m.9.<.1.r.b.E 4 # : p s 0 X                                   ",
"                          . . X.b.b.b.b.o..     . % r T [ ^ ^ ^ C.E.G.C.C.Y.T.4.H X 9 d f 0 X .                                 ",
"                          . . X.b.b.b.b.O..     . C 2.0.6.] ^ ^ A.~.E.E.R.W.T.4.n X 8 d d 0 X X . .                             ",
"                          . . X.b.b.e.2.A . . y #.2.b.b.c.v.k.:.5.c.r.b.b.b.l.4.T O 8 d t 8 @ X . .                             ",
"                          . . X.b.b.8.I 8 . . A P.L.b.b.S.R.P.b.I X X X X X 8 1.&.$ 9 a % O , @ . .                             ",
"                          . . s %.%.+.T H b & A P.E.P.P.L.K.S.b.o.9 9 & . . : 1.9.#.d : & < J , . .                             ",
"                          . . w U Y T ] / ~ 2 C J.E.E.E.U.V.l.w.#.d d 9 X . 6 ;.0.0.S X , z ~ l . .                             ",
"                          . . B a.a.s.d.i.~ 1 y z.S.S.S.S.M.7. .f d d 0 . . $ f ....r O z Q ^ l . .                             ",
"                          . . N s.g.x.x.[ B W ;.l.b.z.S.N.<.o.d d a t 5 . . X 8 d @.s 8 z J J 4 . .                             ",
"                          . . l / d.x.x.! 6 z.U.V.b.b.P.J.s 7 d d a % . . . . . d w.$.p e < < # . .                             ",
"                              1 l ^ i.i.B % N.Q.I.L.K.z.%.a t d 0 5 X . . . . . s l.8.&.m , # O                                 ",
"                                O H K K e % w.U.I.I.P.o.% a a i 5 . . . . . . . y 8.l.w.Z # .                                   ",
"                                  > > > + X y S | S | a i a t 5 X . . . . . . . % t ;.0.V O                                     ",
"                                    . . . . . X % % % t a t 5 . . . . . . . . . . . V #.t                                       ",
"                                            . % i a d d a o X . . . . . . . . . . . X %                                         ",
"                                          $ A  .f d d d a o . . . . . . . . . . $ 8 8 8 %                                       ",
"                                          $ ;.8.@. .| I 0 o . .     . . . X o % r A f a % .                                     ",
"                                          $ ;.N.G.G.G.;.a o . .     . . . 5 a #.<.8.o.a % .                                     ",
"                                          $ ;.S.E.~.!.r.| 8 o .     . o % d %.w.b.b.%.a % .                                     ",
"                                          $ ;.S.E.~.!.D.7.I 8 X     . % a &.e.b.b.b.&.a % .                                     ",
"                                          X  .8.G.K.K.e.#.t 5 .     . 5 d o.,.;.,.&.A 8 $                                       ",
"                                          X 0 ..q.l.e.@.r $ .       . 5 a a a a a d 8 .                                         ",
"                                          X 0 I o.@.@.i $ X .       X X % % % % 5 5 o .                                         ",
"                                          X 0 d d d d % . X .       . . . . X . . . . .                                         ",
"                                          X 0 d d d d 7 . . .       . . . . . . . . .                                           ",
"                                          X r d d t 8 $ . .         . . . . . . . .                                             ",
"                                          X r f V 9 . . .           . . . . . . X .                                             ",
"                                          o X.2.7.S . . .           . . . . X 8 7 X                                             ",
"                                        . o X.1.2.X.t @ .           . X o % 5 0 8 % $                                           ",
"                                      . . . % 8 6  .2.s .           . % a a 0 % 7 t 8 . . .                                     ",
"                                    q S o.;.;.o.t s @.r .           . % 9 8 0 V ..#.f 7 8 %                                     ",
"                                  . y 0.K.~.~.K.o.r . . .           . . . . 8 1.b.b.&.d d t X                                   ",
"                                  . y w.J.~.~.I.w.X.9 % .           . . . % d 8.b.b.q.,.| 0 X                                   ",
"                                  . y w.J.~.~.R.V.<.a 5 .           . . . 9 | 8.b.b.b.e.o.0 X                                   "
};
