/* XPM */
static char *PF_61676119210[] = {
/* columns rows colors chars-per-pixel */
"64 64 172 2 ",
"   c None",
".  c #1A0E13",
"X  c #1D1215",
"o  c #1F1418",
"O  c #221515",
"+  c #2C1313",
"@  c #261916",
"#  c #291C15",
"$  c #21161A",
"%  c #241A1D",
"&  c #2B1C19",
"*  c #3B1613",
"=  c #351A17",
"-  c #301818",
";  c #371816",
":  c #2F221A",
">  c #2E2216",
",  c #322616",
"<  c #362917",
"1  c #34261A",
"2  c #3C221D",
"3  c #372A1A",
"4  c #3B2C1B",
"5  c #261E20",
"6  c #291F20",
"7  c #272022",
"8  c #2B2324",
"9  c #2D2728",
"0  c #2E2929",
"q  c #312626",
"w  c #332926",
"e  c #382E20",
"r  c #322728",
"t  c #322C2C",
"y  c #382F2E",
"u  c #3F3121",
"i  c #34302F",
"p  c #3A332E",
"a  c #363332",
"s  c #3B3534",
"d  c #3A3836",
"f  c #3E3B39",
"g  c #451A13",
"h  c #40241E",
"j  c #4E251A",
"k  c #52271D",
"l  c #5B2A1C",
"z  c #42321F",
"x  c #4C3C1F",
"c  c #642E1E",
"v  c #66301E",
"b  c #71341F",
"n  c #493721",
"m  c #4C3B22",
"M  c #443A29",
"N  c #493527",
"B  c #513F23",
"V  c #513F28",
"C  c #413735",
"Z  c #433B34",
"A  c #4C3C31",
"S  c #433D3A",
"D  c #483F3D",
"F  c #523F38",
"G  c #763620",
"H  c #783720",
"J  c #4D402B",
"K  c #564325",
"L  c #5E4B27",
"P  c #574A2F",
"I  c #58452B",
"U  c #44413E",
"Y  c #4B433D",
"T  c #4D4237",
"R  c #564A34",
"E  c #57413A",
"W  c #5C4F39",
"Q  c #54493D",
"!  c #614E27",
"~  c #624C2B",
"^  c #64512A",
"/  c #6A552B",
"(  c #6D592D",
")  c #715C2D",
"_  c #644136",
"`  c #684232",
"'  c #68453A",
"]  c #784C38",
"[  c #6D5C35",
"{  c #755C31",
"}  c #776030",
"|  c #7D6432",
" . c #464440",
".. c #4A4642",
"X. c #4D4A45",
"o. c #514A44",
"O. c #524E49",
"+. c #594942",
"@. c #595245",
"#. c #54514B",
"$. c #5A544D",
"%. c #5E5A4F",
"&. c #5A5750",
"*. c #5D5A52",
"=. c #644A40",
"-. c #695A48",
";. c #7E5744",
":. c #625C54",
">. c #746747",
",. c #7B6A44",
"<. c #656155",
"1. c #666359",
"2. c #6A665C",
"3. c #6D685D",
"4. c #6D6252",
"5. c #786D52",
"6. c #7C745D",
"7. c #7B7157",
"8. c #6E6B60",
"9. c #726D61",
"0. c #757266",
"q. c #797466",
"w. c #757368",
"e. c #7A7569",
"r. c #7D7A6C",
"t. c #7F7D70",
"y. c #833C22",
"u. c #83442B",
"i. c #84513B",
"p. c #816834",
"a. c #8A6F37",
"s. c #876E3B",
"d. c #8D723A",
"f. c #91753A",
"g. c #97793C",
"h. c #9A7C3D",
"j. c #845E49",
"k. c #80714B",
"l. c #837755",
"z. c #837B6C",
"x. c #837F72",
"c. c #9F803F",
"v. c #88826E",
"b. c #8C8262",
"n. c #868273",
"m. c #898576",
"M. c #878679",
"N. c #8A8679",
"B. c #8D8A7B",
"V. c #998875",
"C. c #918E7D",
"Z. c #93907F",
"A. c #A0836C",
"S. c #A1997A",
"D. c #969382",
"F. c #999686",
"G. c #9C9987",
"H. c #9C9A89",
"J. c #A49D8B",
"K. c #A3A18F",
"L. c #A6A491",
"P. c #A9A794",
"I. c #ABA995",
"U. c #AFAD9A",
"Y. c #B0AF9B",
"T. c #B2B19D",
"R. c #B8B59B",
"E. c #B7B6A1",
"W. c #BCBBA6",
"Q. c #C0BFA9",
"!. c #C3C3AC",
"~. c #C7C7B0",
/* pixels */
"                                                              . . . . . .                                                       ",
"                                                            t S S C 9 5 5 %                                                     ",
"                                                          . S x.x.0...d d 8 .                                                   ",
"                                                        q o.2.n.G.J.0.#.d t 8 $                                                 ",
"                                                      . r 9.n.n.L.Y.D.1.a a 0 % o                                               ",
"                                                      . r 9.n.n.B.D.n.:.% % % 0 8 X                                             ",
"                                                      . 8 %.2.2.e.n.n.9.$.Y s y 7 X                                             ",
"                                                      . $ a S f 2.n.n.G.W.G.9.t . .                                             ",
"                                                      . $ i &.M.G.I.I.L.L.r.&.#.C X                                             ",
"                                                      . $ i w.~.!.W.Q.P.n.&. .2.$.$                                             ",
"                                                      . $ i w.~.I.D.D.C.n.&.f ..s X                                             ",
"                                                      * w r &.F.C.n.n.r.8.O.d t 8 X                                             ",
"                                                    O l v & 8  .2.n.n.3.U f a % X                                               ",
"                                                  ; j G H l h 8 ..:.*.O.d t 5 O .                                               ",
"                                                O j y.y.y.y.l + 9 a a a a 5 . X .                                               ",
"                                              - l G y.y.y.y.G v 2 % % % % - * * ; .                                             ",
"                                            y A ] i.i.y.y.y.y.y.F Y C a y E ' k * + +                                           ",
"                                      . . $ $.e.z.z.z.i.y.y.y.y.A.P.n.q.q.J.J._ g * + .                                         ",
"                                    C 1.:.+.9.n.n.n.x.-.` ;.j.j.V.I.L.L.L.D.w.T A ' +.Y r                                       ",
"                                  . Y Y.P.N.m.n.x.x.z.O.o.q.x.n.n.V.T.!.!.w.d d #.x.n.q.y .                                     ",
"                                  . ..Y.W.Y.D.x.n.9.O.y p 0.n.n.n.N.F.G.H.1.d d #.z.n.q.y .                                     ",
"                                  . s N.F.F.F.F.F.2.t f $.M.C.n.n.n.n.n.n.&.f ..$.3.q.q.y .                                     ",
"                                  . + q r C B.Q.W.e.% e.T.W.L.n.n.n.n.n.n.&.U 3.<.M <.q.p .                                     ",
"                                @ m I V B I :.q.w.X.X *.B.K.L.K.K.L.J.L.K.r.<.e.<.: A @.8 X                                     ",
"                              . @ { h.c.c.h.n . . . . 0 ..w.G.!.!.!.~.~.~.K.n.t.*.$ # , O .                                     ",
"                              . @ { c.c.c.h./ z O . . 0 f O.*.8.N.L.W.~.~.K.t.*.f X # , O .                                     ",
"                              . @ ( h.h.h.d.} K @ . . 8 a s d d *.r.H.P.L.B.3.U 7 X > , # o                                     ",
"                              . O K p.h.a.) ( K @ . . X % i d d S ..O.#.#.X.f 7 X . # 3 i 9 X                                   ",
"                              y ..-.,.s./ N n 4 $ . . 1 z A Z d d d d d d d a o X # > 3 p 0 X                                   ",
"                          . . o.x.x.l.[ z . . . . . . m / / P d d f f f d f a 5 @ , < < p t X                                   ",
"                          . . X.m.n.z.l.A . . . . . . m / / ^ P 6.M.0.1.2.r.n.W 4 # : p d 0 X                                   ",
"                          . . o.n.n.m.x.O..     . $ r R [ / / / Z.W.H.Z.Z.Y.R.5.J X 9 d f 0 X .                                 ",
"                          . . o.n.n.n.n.+..     . Z 3.q.7.[ / / S.~.W.E.W.!.T.5.m O 8 d d 0 X . . .                             ",
"                          . . o.n.n.r.3.S . . y $.3.n.m.v.b.l.>.6.v.n.t.t.n.z.5.R X 8 d t 7 # X . .                             ",
"                          . . o.n.n.9. .0 . . S I.I.n.n.D.E.I.n.U X X X X X 8 3.:.$ 8 s % O , # . .                             ",
"                          . . a &.&.@.R V z & D I.W.I.I.L.L.D.x.O.q 8 : . . & 3.0.$.d & & 3 K 1 . .                             ",
"                          . . t Y Y R ( ( ^ 1 C J.W.W.W.U.B.x.e.O.d d 0 X . 5 :.q.q.U X , x ^ z . .                             ",
"                          . . V s.s.d.f.p.^ 1 y x.D.D.D.D.N.8.X.S d d 0 . . $ S X.X.t O x ! / z . .                             ",
"                          . . B d.h.c.c.{ B Q :.z.n.x.D.D.:.X.d d d t 5 . . X 8 d #.d : n K K 4 . .                             ",
"                          . . n ( d.c.c.~ % N.Y.C.n.n.I.J.s 8 d d i % . . . . . d e.%.s e < < # . .                             ",
"                              1 z ( p.p.B % N.Q.U.P.P.x.&.y i d 0 5 X . . . . . s z.9.*.M , # O                                 ",
"                                @ m L L 4 % e.Y.U.U.P.O.5 i a a 5 . . . . . . . y 9.z.e.A # .                                   ",
"                                  : : : @ . y D  . . .a i a t $ X . . . . . . . $ r :.q.C O                                     ",
"                                    . . . . . X o % 5 0 d d 0 . . . . . . . . . . . C %.t                                       ",
"                                            . % i a d d d d 9 . . . . . . . . . . . X %                                         ",
"                                          $ D ..f d d d s 8 % . . . . . . . . . $ 8 8 8 $                                       ",
"                                          X :.0.#.X. .U 0 o . .     . . . X o % r S f a % .                                     ",
"                                          + :.N.H.H.H.:.a o . .     . . . 5 a $.1.9.#.a % .                                     ",
"                                          $ :.D.W.~.!.t.U 8 o .     . X % d &.e.n.n.*.a % .                                     ",
"                                          $ *.D.W.~.!.F.8.U 9 .     . % a *.r.n.n.n.*.a % .                                     ",
"                                          X Y 0.G.L.L.r.#.y 5 .     . 5 d X.*.<.:.<.U 8 $                                       ",
"                                          X 0 X.0.z.r.#.t $ .       . % s d a d a d 7 .                                         ",
"                                          X 0 f O.#.O.a o X .       X X % 5 % % % % o .                                         ",
"                                          X t d d d d 5 . . .       . . . . . . . . . .                                         ",
"                                          X 0 d d d d 5 . . .       . . . . . . . . .                                           ",
"                                          X t d d a 7 o . .         . . . . . . . .                                             ",
"                                          X t f f 0 . . .           . . . . . X . .                                             ",
"                                          o o.2.2.D . . .           . . . . X 7 7 .                                             ",
"                                        . o o.3.2.+.t @ .           . X o $ 5 0 9 % $                                           ",
"                                      . . . % 8 8 ..3.s .           . % a a t % 5 i 7 X . .                                     ",
"                                    r S O.:.:.o.r s #.r .           . % 9 9 0 C X.$.d 7 7 %                                     ",
"                                  . y e.L.~.~.L.O.0 . . .           . . . . 7 2.n.n.*.d d t X                                   ",
"                                  . y e.L.~.~.U.q.o.0 $ .           . . . % d 9.n.n.w.<. .t X                                   ",
"                                  . y w.L.~.~.E.D.:.d 5 .           . . . 9 U 0.n.n.n.r.O.0 X                                   "
};
