/* XPM */
static char *PF_71676119210[] = {
/* columns rows colors chars-per-pixel */
"64 64 168 2 ",
"   c None",
".  c #1A0E13",
"X  c #1D1215",
"o  c #1F1418",
"O  c #221415",
"+  c #2C1313",
"@  c #261916",
"#  c #291D15",
"$  c #21161A",
"%  c #241A1D",
"&  c #2B1D1A",
"*  c #3B1613",
"=  c #351A17",
"-  c #301818",
";  c #371816",
":  c #2E221B",
">  c #2E2216",
",  c #322616",
"<  c #362917",
"1  c #35261A",
"2  c #3C221D",
"3  c #372B1B",
"4  c #3C2D1C",
"5  c #3F311E",
"6  c #261E20",
"7  c #291F21",
"8  c #272022",
"9  c #2B2325",
"0  c #2D2728",
"q  c #2E2929",
"w  c #312626",
"e  c #342B27",
"r  c #322728",
"t  c #322C2C",
"y  c #392E2E",
"u  c #3D3125",
"i  c #34302F",
"p  c #39322D",
"a  c #363332",
"s  c #3B3534",
"d  c #3A3836",
"f  c #3E3B39",
"g  c #451A13",
"h  c #47251C",
"j  c #52271D",
"k  c #5B2A1C",
"l  c #41311E",
"z  c #642E1E",
"x  c #66301E",
"c  c #71341F",
"v  c #483721",
"b  c #473927",
"n  c #4D3C22",
"m  c #4A382B",
"M  c #413735",
"N  c #443B34",
"B  c #4B3B32",
"V  c #443D3A",
"C  c #483F3D",
"Z  c #523F38",
"A  c #763620",
"S  c #783720",
"D  c #4A402D",
"F  c #544224",
"G  c #594625",
"H  c #53472F",
"J  c #5C4629",
"K  c #574A2F",
"L  c #5B4A2A",
"P  c #4C4231",
"I  c #45413D",
"U  c #4A433E",
"Y  c #564934",
"T  c #5A4D33",
"R  c #54443C",
"E  c #514B3E",
"W  c #5E5239",
"Q  c #624E29",
"!  c #65522A",
"~  c #6A552B",
"^  c #725C2E",
"/  c #644136",
"(  c #684436",
")  c #784C38",
"_  c #675737",
"`  c #6D5C34",
"'  c #755C31",
"]  c #776030",
"[  c #7C6432",
"{  c #474540",
"}  c #4B4642",
"|  c #4D4A45",
" . c #4F4D48",
".. c #514944",
"X. c #534E49",
"o. c #5C5142",
"O. c #54514B",
"+. c #5A544D",
"@. c #5C5750",
"#. c #5D5A52",
"$. c #644A40",
"%. c #695A48",
"&. c #7E5744",
"*. c #625C53",
"=. c #736544",
"-. c #7B6A44",
";. c #666056",
":. c #666259",
">. c #6B665C",
",. c #6E685C",
"<. c #786D52",
"1. c #7C745E",
"2. c #7B7157",
"3. c #6E6B61",
"4. c #726D62",
"5. c #757266",
"6. c #7A7466",
"7. c #757368",
"8. c #7A7569",
"9. c #7D796C",
"0. c #833C22",
"q. c #83442B",
"w. c #84513B",
"e. c #846B35",
"r. c #886E36",
"t. c #866D38",
"y. c #8E7238",
"u. c #977A3C",
"i. c #9B7D3E",
"p. c #917439",
"a. c #845E49",
"s. c #80714B",
"d. c #837755",
"f. c #817965",
"g. c #837C6D",
"h. c #837F71",
"j. c #9F803F",
"k. c #88826E",
"l. c #8C8262",
"z. c #868273",
"x. c #898576",
"c. c #878679",
"v. c #898679",
"b. c #8D8A7A",
"n. c #998875",
"m. c #918E7D",
"M. c #93907F",
"N. c #98927E",
"B. c #A0836C",
"V. c #A1997B",
"C. c #959382",
"Z. c #989685",
"A. c #9C9987",
"S. c #9D9B89",
"D. c #A39E8C",
"F. c #A3A18F",
"G. c #A5A391",
"H. c #A8A694",
"J. c #ABA996",
"K. c #AFAD9A",
"L. c #B0AF9B",
"P. c #B4B29E",
"I. c #B8B59B",
"U. c #B7B6A1",
"Y. c #BCBBA6",
"T. c #C0BFA9",
"R. c #C3C3AD",
"E. c #C7C7B0",
/* pixels */
"                                                              . . . . . .                                                       ",
"                                                            y V V M 0 6 6 %                                                     ",
"                                                          . V z.h.5.} s s 8 .                                                   ",
"                                                        9 ..>.z.A.D.5.O.d i 9 $                                                 ",
"                                                      . r 4.z.z.G.L.C.*.a a q o .                                               ",
"                                                      . r 4.z.z.b.C.x.*.6 % o X .                                               ",
"                                                      . 9 @.>.>.9.h.z.6.+.U s $ .                                               ",
"                                                      . @ a f f >.z.h.A.Y.A.4.t . .                                             ",
"                                                      . o i @.c.z.b.D.U.E.F.9.*.f X                                             ",
"                                                      . $ i 7.E.G.Z.P.Y.Y.Z.8.8.+.O                                             ",
"                                                      . $ a 7.E.Y.L.S.Z.Z.3.| X.s X                                             ",
"                                                      ; w q @.Z.H.H.m.h.z.@.s t 9 X                                             ",
"                                                    O k z - 0 { 4.x.z.z.z.#.i % X                                               ",
"                                                  ; j c A k h 8 { *.*.#.#.V 6 $ .                                               ",
"                                                O j 0.0.0.0.k + r a a a a 6 . X X                                               ",
"                                              - k c 0.0.0.0.A z 2 % % % % - * * ; .                                             ",
"                                            y B q.w.w.q.0.0.0.0.Z U M s y R ( j * + +                                           ",
"                                          $ *.8.g.g.g.w.0.0.0.0.B.H.h.8.8.S.D./ g g + .                                         ",
"                                        M ..,.h.x.h.h.%.( a.a.a.B.J.G.F.G.C.7.R m $.y .                                         ",
"                                      % X.b.x.z.h.x.g.O.| 6.g.h.z.N.P.R.R.7.d d X.h...$                                         ",
"                                    V h.D.L.C.h.z.z.h.} a 5.z.z.z.x.Z.A.A.:.d d X.g.4.@.e                                       ",
"                                  . M x.D.P.D.Z.Z.h.*.M s h.b.z.z.z.z.h.z.#.f { +.,.8.6.y .                                     ",
"                                  . $ w *.m.K.T.Y.9.8 q O.G.G.z.z.z.z.z.z.@.I >.;.b %.6.p .                                     ",
"                                @ n n l B X.>.6.7.| X q | 8.C.G.D.G.D.G.F.8.;.9.;., N +.9 .                                     ",
"                              . @ ' p.' v X X . . . . 0 d d 4.T.R.R.R.R.R.S.z.z.@.$ # , O .                                     ",
"                              . @ ' u.y.e.^ G l + . . 0 d d  .3.v.D.S.S.S.7.O.O.f X # , O .                                     ",
"                              . @ ~ u.i.i.i.[ F @ . . 9 a s d d #.5.5.5.5. .d i 9 X > , # @                                     ",
"                              . O G [ i.i.i.[ F @ . . o % i d d V { { { { I a % X . # 3 i 0 X                                   ",
"                              y } %.-.t.t.e.Q 4 $ . . , u B N d d d d d d i 9 o X @ > 3 p q X                                   ",
"                          . . ..z.z.1.` ~ Q 1 . . . . n ~ ~ K d f d d d d 9 X X @ , , 3 p t X                                   ",
"                          . . | z.z.d.` n 3 & . . . . n ~ ~ ! K 1.c.5.:.>.6.5.T 3 # : p d q X                                   ",
"                          . . ..z.z.6.=.n .     . $ r Y ` ~ ~ ~ N.Y.S.M.M.L.I.<.F o 0 d d t X .                                 ",
"                          . . ..z.z.z.g.E .     . M ,.6.2.` ~ ~ V.E.Y.U.U.T.I.<.n X 0 d d t X . . .                             ",
"                          . . ..z.z.z.z.... . y +.4.z.z.z.l.d.=.1.k.z.z.z.z.g.<.Y X 9 d d q X . . .                             ",
"                          . . ..z.z.z.z.... . V H.H.z.z.C.U.K.h.I X X X X X 9 ,.*.O 9 d d t o . . .                             ",
"                          . . ..z.z.6.*.s . . V J.Y.J.J.H.G.C.z.X.0 0 % . . : >.5.+.d : 8 % # @ . .                             ",
"                          . . { 6.7.>.U e @ o V D.Y.Y.Y.K.C.9.8.O.d d 0 . . 6 *.6.6.I . X # 4 > . .                             ",
"                          . . t | | E L L F > y h.C.C.C.C.v.3.} V d d q . . $ V | | t X # 4 G 4 . .                             ",
"                          . . u _ ` _ [ ^ ~ $.*.g.z.z.C.C.*. .d d a t 6 . . X 9 s O.d > l F ! l . .                             ",
"                          . . J i.s.i.i.t.` V.L.m.z.z.J.D.s 6 d d a % . . . . . s 9.@.s L ! ~ l . .                             ",
"                          . . n e.u.j.j.^ b N.Y.K.H.H.h.@.i t d q 6 X . . . . . s 9.4.*.H n l < . .                             ",
"                          . . 4 Q e.u.u.J % 9.K.K.K.H.X.6 i a i 6 . . . . . . . y 4.g.8.P < 3 # . .                             ",
"                              & 1 Q ] ] n o y C V { { a t s t 6 X . . . . . . . @ y *.6.P > O O                                 ",
"                                O l n F 3 . . . 6 $ 6 i d d 0 . . . . . . . . . . . M +.u # X                                   ",
"                                  O O O $   . $ a a a d d s 0 . . . . . . . . . . . X o o .                                     ",
"                                          $ V | f d d d a 0 % . . . . . . . . . . . 6 9 o .                                     ",
"                                          $ *.6.O.{ { I t % . .     . . . X o 6 % 7 r a % .                                     ",
"                                          X *.b.S.S.S.*.t o . .     . . . 6 s O.*.:...a % .                                     ",
"                                          $ *.C.Y.E.R.9.I 0 $ .     . X % d @.7.z.z.#.a % .                                     ",
"                                          $ *.Z.Y.R.E.A.3.I 9 .     . 6 a #.9.z.z.z.#.a % .                                     ",
"                                          o { 4.S.H.G.9.O.t 6 .     . 6 d  .#.;.*.*.I 9 $                                       ",
"                                          X q | 5.9.9.X.t $ .       . : a a d a d a 8 .                                         ",
"                                          X q V X.O. .a % X .       . o % % % % 6 % o .                                         ",
"                                          X q d d s d 8 . . .       . . . . X . . . . .                                         ",
"                                          X q d d a d 8 . . .       . . . . . . . . .                                           ",
"                                          X q s d a 9 o . .         . . . . . . . .                                             ",
"                                          X t f f q . . .           . . . . . . . .                                             ",
"                                          $ ..>.3.V . . .           . . . . o 9 8 .                                             ",
"                                        . o ..,.>...r @ .           . X o $ % q 0 % $                                           ",
"                                      . . . % 9 7 } 4.s .           . % a a q 6 8 i 8 . . .                                     ",
"                                    r V X.*.*.X.t s X.r .           . $ 0 0 q V | +.f 8 8 6                                     ",
"                                  . y 6.G.E.E.G.X.r . . .           . . . . 8 :.z.z.#.d d t X                                   ",
"                                  . y 7.G.E.E.K.7...0 $ .           . . . % s 4.z.z.5.:.{ q X                                   ",
"                                  . y 7.F.E.E.U.C.:.s 6 .           . . . 0 I 5.z.z.z.8. .t X                                   "
};
