/* XPM */
static char *PF_81676119210[] = {
/* columns rows colors chars-per-pixel */
"64 64 167 2 ",
"   c None",
".  c #1A0E13",
"X  c #1D1115",
"o  c #1F1418",
"O  c #221515",
"+  c #2C1313",
"@  c #261916",
"#  c #291D15",
"$  c #21161A",
"%  c #241A1D",
"&  c #2B1D1A",
"*  c #3B1613",
"=  c #351A17",
"-  c #301818",
";  c #371816",
":  c #2E221B",
">  c #322616",
",  c #352817",
"<  c #35261B",
"1  c #3C221D",
"2  c #3C2D1C",
"3  c #3F311E",
"4  c #261E20",
"5  c #291F21",
"6  c #272022",
"7  c #2B2325",
"8  c #2D2728",
"9  c #2E2929",
"0  c #312626",
"q  c #342B26",
"w  c #322728",
"e  c #322C2C",
"r  c #392E2E",
"t  c #3C3125",
"y  c #34302F",
"u  c #3A302F",
"i  c #363331",
"p  c #3B3533",
"a  c #3A3836",
"s  c #3E3B39",
"d  c #451A13",
"f  c #47251C",
"g  c #52271D",
"h  c #5B2A1C",
"j  c #41311E",
"k  c #642E1E",
"l  c #66301E",
"z  c #71341F",
"x  c #483721",
"c  c #473927",
"v  c #4D3C22",
"b  c #453A28",
"n  c #4E352E",
"m  c #413735",
"M  c #443B34",
"N  c #443D3A",
"B  c #483F3D",
"V  c #4D3932",
"C  c #523F38",
"Z  c #763620",
"A  c #783720",
"S  c #4A402D",
"D  c #534224",
"F  c #594625",
"G  c #53472F",
"H  c #5C4629",
"J  c #574A2F",
"K  c #5B4A2A",
"L  c #4C4231",
"P  c #45423E",
"I  c #4A433E",
"U  c #564934",
"Y  c #5A4D33",
"T  c #54443C",
"R  c #514B3E",
"E  c #5E5239",
"W  c #624E29",
"Q  c #65512A",
"!  c #69552B",
"~  c #725C2F",
"^  c #644136",
"/  c #684232",
"(  c #68453A",
")  c #784C38",
"_  c #675737",
"`  c #6D5B33",
"'  c #765D31",
"]  c #776030",
"[  c #7C6432",
"{  c #464440",
"}  c #4B4642",
"|  c #4D4A45",
" . c #4F4D48",
".. c #514A44",
"X. c #594F41",
"o. c #534E49",
"O. c #5C5142",
"+. c #54514B",
"@. c #5B554D",
"#. c #5A5750",
"$. c #5D5A52",
"%. c #644A40",
"&. c #6A5A4A",
"*. c #7E5744",
"=. c #615C54",
"-. c #736544",
";. c #76694A",
":. c #666055",
">. c #666259",
",. c #6B665C",
"<. c #6D685D",
"1. c #716854",
"2. c #786D52",
"3. c #7A725B",
"4. c #6E6B61",
"5. c #726D62",
"6. c #757266",
"7. c #7A7466",
"8. c #757368",
"9. c #7A7569",
"0. c #7D796C",
"q. c #7F7E72",
"w. c #833C22",
"e. c #83442B",
"r. c #84513B",
"t. c #846B35",
"y. c #886E36",
"u. c #977A3C",
"i. c #9B7D3E",
"p. c #845E49",
"a. c #80714B",
"s. c #837755",
"d. c #817965",
"f. c #837C6D",
"g. c #837E72",
"h. c #9F803F",
"j. c #88826E",
"k. c #8C8262",
"l. c #868273",
"z. c #898576",
"x. c #878679",
"c. c #898679",
"v. c #8E8B7B",
"b. c #998875",
"n. c #918E7D",
"m. c #93907F",
"M. c #98927E",
"N. c #A0836C",
"B. c #A1997B",
"V. c #969382",
"C. c #999786",
"Z. c #9C9987",
"A. c #9D9B89",
"S. c #A29D8B",
"D. c #A3A18F",
"F. c #A5A391",
"G. c #A8A694",
"H. c #ABA996",
"J. c #AFAD9A",
"K. c #B0AF9B",
"L. c #B3B29D",
"P. c #B8B59B",
"I. c #B7B6A1",
"U. c #BDBCA6",
"Y. c #C0BFA9",
"T. c #C3C3AC",
"R. c #C7C7B0",
/* pixels */
"                                                              . . . . . .                                                       ",
"                                                            r M M p 8 5 4 $                                                     ",
"                                                          . N g.g.8.} a a 7 .                                                   ",
"                                                        7 ..<.l.A.S.8.+.a e 8 $                                                 ",
"                                                      . w 5.l.l.F.K.V.=.i i 9 $ .                                               ",
"                                                      . w 5.l.l.v.V.z.=.% $ o X .                                               ",
"                                                      . 7 #.<.,.9.g.g.7.@.} i % .                                               ",
"                                                      . $ i N s ,.z.g.Z.U.Z.<.r . .                                             ",
"                                                      . $ y #.x.5.4.C.I.R.F.0.$.M X                                             ",
"                                                      . $ y 8.R.g.=.F.U.U.C.9.0.@.X                                             ",
"                                                      . $ y 8.R.I.A.C.V.V.4.| | p X                                             ",
"                                                      - 1 9 #.C.G.H.v.l.l.#.a e 7 X                                             ",
"                                                    O h l & 8 { 4.c.z.l.l.#.i 4 o                                               ",
"                                                  = g Z A h f 5 { >.0.9.$.N 5 O .                                               ",
"                                                O f w.w.w.w.h + 0 N ,.$.a 4 . . .                                               ",
"                                              ; h z w.w.w.w.Z k 1 5 r w 4 - * * ; .                                             ",
"                                            r V r.r.r.w.w.w.w.w.C B m u u T ( g * + +                                           ",
"                                          $ @.9.f.f.d.r.w.w.w.w.N.H.l.9.9.A.S.^ d d + .                                         ",
"                                        p ..5.l.l.l.f.&./ *.p.p.N.H.F.F.F.V.9.L n ( r .                                         ",
"                                      4 o.z.z.l.l.l.g.+.| 7.g.l.g.V.I.T.Y.8.a a +.q...$                                         ",
"                                    N g.S.J.M.g.g.l.f.I y 6.l.l.l.z.C.Z.Z.>.a s +.f.6.@.q                                       ",
"                                  . p c.K.T.G.C.C.g.>.m p g.V.C.v.l.l.g.l.#.s { #.<.7.6.y .                                     ",
"                                  . $ 0 9.T.Y.Y.U.0.6 9 +.F.U.U.A.l.l.l.l.$.P ,.:.b &.9.u X                                     ",
"                                  . O 1 X.9.9.7.9.| X 9 } 0.D.R.K.F.S.F.D.0.$.=.| : S O.7 X                                     ",
"                                  O < W x . X . . . . w a a 6.Y.Y.T.T.T.T.A.9.} 9 X # > X .                                     ",
"                                @ H ' y.t.~ F j O . . w a a | 4.4.9.V.A.A.8. .P 9 X # > O .                                     ",
"                              . @ ' h.h.h.i.[ D @ . . 7 i a a a a P >.5.6. .e i 6 X : > O .                                     ",
"                              . @ ' h.h.i.i.[ D @ . . o % y a a a s { { { 9 o o X . # > O .                                     ",
"                              . @ W y.y.y.t.W 2 O . . < t b M a a a a a a 6 . . X @ : q 7 4                                     ",
"                              . @ v ! ! ! W < . . . . v ! ! J a a s a a a 7 X X @ > t a a e X                                   ",
"                          . . M =.1.;.! D 2 & . . . . v ! ! _ J 3.x.5.,.,.8.6.U 3 # 0 a a 9 X                                   ",
"                          . . ..g.l.d.-.c .     . $ w U ' ! Q Q M.Y.A.m.m.L.P.a.v X 7 a a e X                                   ",
"                          . . ..l.l.j.d.I .     . M <.7.3.` ! ! B.R.U.I.U.T.P.2.v X 8 a a e X                                   ",
"                          . . | l.l.l.l.o.. . r @.<.l.l.j.k.s.-.3.l.g.l.g.g.f.2.U O 7 a a 9 X .                                 ",
"                          . . ..l.l.l.l.o.. . N H.H.l.l.V.I.J.g.I X X X . X : ,.=.O 8 a a e o X . .                             ",
"                          . . ..l.l.7.=.p . . N H.U.H.H.H.D.V.g.o.8 8 % . . 7 ,.6.@.p % 4 % # O . .                             ",
"                          . . I 9.9.,.I q # X N S.U.U.U.J.v.g.9.+.a a 9 . . & =.8.7.P X . # 2 # . .                             ",
"                          . . e | | R K K D < r g.V.V.V.V.x.4.} s a a 9 X . $ N | | q X # j F 2 . .                             ",
"                          . . r _ ` _ [ ~ ! %.=.f.l.g.V.V.>. .a s a e 4 . . o 7 a o.a : j D Q j . .                             ",
"                          . . H i.a.i.i.t.` B.K.n.g.z.H.A.p 7 a a y $ . . . . . M 7.#.p K ! ! j . .                             ",
"                          . . v t.u.h.h.~ c M.T.J.H.F.g.#.r e a 9 4 . . . . . . p 0.5.=.G j D > . .                             ",
"                          . . j W t.u.i.H $ 9.J.J.J.H.o.4 r i y 4 . . . . . . . u 5.f.0.L , , # . .                             ",
"                              # < W ] ] v X r N { N { i y i 9 4 o . . . . . . . $ r =.7.L > O O                                 ",
"                                O j v v 2 . . o o 4 4 e a a 8 . . . . . . . . . . . m @.t # X                                   ",
"                                  O o O X   . % y a i a a s 8 . . . . . . . . . . . o $ X .                                     ",
"                                            . $ i a a a i 7 % . . . . . . . . . . . . . .                                       ",
"                                            % w { { { P e o . .     . . . o o $ % & $ o                                         ",
"                                          $ ..5.V.A.A.$.i o . .     . . . 4 i @.=.:.} 8 %                                       ",
"                                          $ =.V.U.R.T.0.{ 7 o .     X o % s +.9.l.l.$.i % .                                     ",
"                                          $ =.V.U.R.T.C.,.P 8 .     . % i $.0.l.l.z.$.i % .                                     ",
"                                          X { 5.A.G.F.0.+.r 4 .     X % a | $.:.=.=.N 7 $                                       ",
"                                          X e | 6.f.0.+.e $ .       X % i a a i a a 6 .                                         ",
"                                          X 9 s | +. .r % X .       . X % % % % % % o .                                         ",
"                                          X 9 a a a a 4 . . .       . . . . X . . . . .                                         ",
"                                          X e a a a a 4 . . .       . . . . . . . . .                                           ",
"                                          X 9 a a i 7 o . .         . . . . . . . .                                             ",
"                                          X e s N 8 . . .           . . . . . X X .                                             ",
"                                          o ..<.4.N . . .           . . . . X 7 6 X                                             ",
"                                        . o ..,.,...w @ .           . X % o % 9 8 $ $                                           ",
"                                      . . . % 7 5 } 5.p .           . % i i 9 4 5 y 6 X . .                                     ",
"                                    0 N o.=.=.o.w p +.w .           . $ 7 8 9 a | @.a 6 6 4                                     ",
"                                  . r 9.G.R.R.F.o.8 . . .           . . . . 6 <.l.l.$.a a e X                                   ",
"                                  . r 9.F.R.R.J.9.| w $ .           . . . % p 5.l.l.6.>.{ 9 X                                   ",
"                                  . r 9.D.R.R.I.v.>.a 4 .           . . . 8 { 5.l.l.l.0.| e X                                   "
};
