/* XPM */
static char *PF_91676119210[] = {
/* columns rows colors chars-per-pixel */
"64 64 169 2 ",
"   c None",
".  c #1A0E13",
"X  c #1D1115",
"o  c #1F1418",
"O  c #221515",
"+  c #2C1313",
"@  c #261916",
"#  c #291D15",
"$  c #21161A",
"%  c #241A1D",
"&  c #2B1D1A",
"*  c #3B1613",
"=  c #351A17",
"-  c #301818",
";  c #371816",
":  c #2D211B",
">  c #2E2216",
",  c #322616",
"<  c #362917",
"1  c #35261B",
"2  c #3C221D",
"3  c #362A1A",
"4  c #3C2D1C",
"5  c #3F311E",
"6  c #261E20",
"7  c #291F21",
"8  c #272022",
"9  c #2B2325",
"0  c #2D2728",
"q  c #2E2929",
"w  c #312626",
"e  c #342B27",
"r  c #322728",
"t  c #322C2C",
"y  c #392E2E",
"u  c #3D3125",
"i  c #34302F",
"p  c #39322D",
"a  c #363332",
"s  c #3B3534",
"d  c #3A3836",
"f  c #3E3B39",
"g  c #451A13",
"h  c #47251C",
"j  c #52271D",
"k  c #5B2A1C",
"l  c #41311E",
"z  c #642E1E",
"x  c #66301E",
"c  c #71341F",
"v  c #483721",
"b  c #473927",
"n  c #4D3C22",
"m  c #453A28",
"M  c #4E352E",
"N  c #413735",
"B  c #443B34",
"V  c #443D3A",
"C  c #483F3D",
"Z  c #4D3932",
"A  c #523F38",
"S  c #763620",
"D  c #783720",
"F  c #4A402D",
"G  c #534224",
"H  c #594625",
"J  c #53472F",
"K  c #5C4629",
"L  c #574A2F",
"P  c #5C4A29",
"I  c #4C4231",
"U  c #45423E",
"Y  c #4A433E",
"T  c #564934",
"R  c #5A4D33",
"E  c #54443C",
"W  c #514B3E",
"Q  c #5E5239",
"!  c #624E29",
"~  c #65512A",
"^  c #69552B",
"/  c #725C2F",
"(  c #644136",
")  c #684436",
"_  c #784C38",
"`  c #675737",
"'  c #6E5C34",
"]  c #765D31",
"[  c #776030",
"{  c #7C6433",
"}  c #464440",
"|  c #4B4642",
" . c #4D4A45",
".. c #514A44",
"X. c #594F41",
"o. c #534E49",
"O. c #5C5142",
"+. c #54524B",
"@. c #5B554D",
"#. c #5A5750",
"$. c #5D5A52",
"%. c #644A40",
"&. c #6A5A4A",
"*. c #7E5744",
"=. c #615C54",
"-. c #736544",
";. c #7C6D4C",
":. c #666055",
">. c #656259",
",. c #6B665C",
"<. c #6D685D",
"1. c #716854",
"2. c #786D52",
"3. c #7A725B",
"4. c #6E6B61",
"5. c #726D62",
"6. c #757266",
"7. c #7A7466",
"8. c #757368",
"9. c #7A7569",
"0. c #7D796C",
"q. c #7F7E72",
"w. c #833C22",
"e. c #83442B",
"r. c #84513B",
"t. c #846B35",
"y. c #886D36",
"u. c #8F7339",
"i. c #977A3C",
"p. c #9B7D3E",
"a. c #94773B",
"s. c #845E49",
"d. c #80714B",
"f. c #837755",
"g. c #817965",
"h. c #837C6D",
"j. c #837F72",
"k. c #9F803F",
"l. c #88826E",
"z. c #8C8262",
"x. c #868273",
"c. c #898576",
"v. c #878679",
"b. c #898679",
"n. c #8E8B7B",
"m. c #998875",
"M. c #918E7D",
"N. c #93907F",
"B. c #98927E",
"V. c #A0836C",
"C. c #A1997B",
"Z. c #969382",
"A. c #999786",
"S. c #9C9987",
"D. c #9D9B89",
"F. c #A29D8B",
"G. c #A3A18F",
"H. c #A5A491",
"J. c #A8A694",
"K. c #ABA995",
"L. c #AFAD9A",
"P. c #B0AF9B",
"I. c #B3B29E",
"U. c #B8B59B",
"Y. c #B7B6A1",
"T. c #BDBCA6",
"R. c #C0BFA9",
"E. c #C3C3AD",
"W. c #C7C7B0",
/* pixels */
"                                                              . . . . . .                                                       ",
"                                                            t V V N 0 6 6 $                                                     ",
"                                                          . V j.j.6. .s s 8 .                                                   ",
"                                                        9 ..<.x.S.F.6.+.d t 0 $                                                 ",
"                                                      . r 5.x.x.H.P.M.:.a a q $ .                                               ",
"                                                      . r 5.x.x.M.Z.c.=.% % o X .                                               ",
"                                                      . 9 #.<.,.9.j.x.6.@.Y a % .                                               ",
"                                                      . $ a V f ,.x.j.A.R.F.<.t . .                                             ",
"                                                      . o i #.v.5.4.A.Y.W.H.0.$.B X                                             ",
"                                                      . o i 8.W.j.=.H.T.T.A.9.0.+.$                                             ",
"                                                      o % i 8.W.Y.F.A.Z.Z.4. . .d X                                             ",
"                                                      = = q #.A.H.J.M.x.x.$.s t 9 X                                             ",
"                                                    O k z & w } 4.b.x.x.x.$.i 6 X                                               ",
"                                                  = j S D k h 8 } >.0.9.$.V 7 O .                                               ",
"                                                O h w.w.w.w.k + w U ,.$.s 7 . . X                                               ",
"                                              ; k c w.w.w.w.S z 2 7 y r 6 & * * ; .                                             ",
"                                            y Z e.r.r.e.w.w.w.w.( C N s y E ) j * + +                                           ",
"                                          $ @.9.h.h.h.r.w.w.w.w.V.K.j.9.7.F.F.( g g + .                                         ",
"                                        s ..5.x.c.j.h.&.) s.s.s.m.H.H.H.H.Z.9.Y M ) y .                                         ",
"                                      6 o.c.c.x.j.c.j.+.Y 7.j.x.x.M.I.R.E.6.d d +.q...$                                         ",
"                                    C j.F.L.M.x.x.x.j.| a 6.x.x.x.c.A.A.S.>.d d +.h.6.@.t                                       ",
"                                  . s b.P.E.J.A.Z.j.=.N s q.Z.Z.M.j.x.x.x.#.f } @.<.7.8.y .                                     ",
"                                  . $ 9 8.W.R.R.T.0.8 q +.H.T.R.F.x.x.x.x.$.U ,.:.m :.7.p .                                     ",
"                                  . @ 2 X.7.7.7.7. .X q  .9.Z.K.G.G.G.G.G.0.$.:...: m O.9 X                                     ",
"                                  O 1 ! l @ O . . . . 0 d d +.q.H.E.E.E.E.D.9.| 0 X # , X .                                     ",
"                                @ K ] y.{ / H l O . . $ 9 a } +.>.9.Z.D.D.6. .q o . # < @ .                                     ",
"                              . @ ] k.k.k.p.{ G @ . . . o a d d s U >.6.6. .q % . . # , O .                                     ",
"                              . @ ] k.k.k.p.{ G @ . . . o a d d d f U } } q o X . X # , O .                                     ",
"                              . @ ! u.k.a.t.P 4 O . . , l Z F d d d d d d 8 . . X @ > < : 6                                     ",
"                              . @ n [ i.t.! 1 . . . . v ^ ^ L d d f d d d 9 X X @ , < < p t X                                   ",
"                          . . B =.1.d.{ P 3 & X . . . n ^ ^ ~ T 7.v.5.,.>.9.7.T 5 # 9 p s q X                                   ",
"                          . . ..j.x.g.*.m X     . % r T ' ^ ^ ^ B.T.D.N.N.I.U.d.n X 0 d f q X                                   ",
"                          . . ..x.x.j.g.W .     . N <.7.3.' ^ ^ C.W.T.Y.T.R.U.;.n X 9 d d q X                                   ",
"                          . . ..x.x.x.x.... . y @.<.c.x.x.z.f.-.3.l.x.x.x.q.h.2.T O 9 s d t X .                                 ",
"                          . . ..x.x.x.x.... . V K.J.x.x.B.Y.L.j.Y X X X X X 0 ,.=.$ 8 d d q X . . .                             ",
"                          . . ..x.x.9.=.d . . V K.T.K.K.J.H.Z.j.o.0 9 % . . 7 ,.6.@.d : 8 8 : O . .                             ",
"                          . . } 9.9.,.Y y @ O V F.T.T.T.L.n.j.9.+.d d 0 . . 7 =.7.0.V X X # 4 # . .                             ",
"                          . . t  . .W P P n = p j.Z.Z.Z.Z.v.4.| f d d q . . $ B  .W q X # 5 H 4 . .                             ",
"                          . . u ` ' ` { / ~ ` =.h.c.j.Z.Z.=. .d d d t 6 . . o 9 s +.d : l G ~ l . .                             ",
"                          . . K p.d.p.p.t./ A.P.M.j.x.L.G.s 9 d d i % . . . . . s 0.#.s P ~ ^ l . .                             ",
"                          . . n t.i.k.k./ b B.R.L.H.J.j.#.i t d q 6 X . . . . . s 0.5.=.J n n < . .                             ",
"                          . . 4 ! t.i.p.K % 9.L.L.L.K.o.6 i d i 6 . . . . . . . y 5.h.9.I , , @ . .                             ",
"                              & < P ] [ n X y C U U V d i s t $ X . . . . . . . $ y =.7.I , O O                                 ",
"                                O v n n 4 . . X % % 6 t s d 0 . . . . . . . . . . . N @.u # X                                   ",
"                                  O O O O   . % i d a d d d 0 . . . . . . . . . . . O $ X .                                     ",
"                                            . $ a d d d a 9 % . . . . . . . . . . . . . .                                       ",
"                                            % 0 U } } U i o . .     . . . X o 6 % 7 $ X                                         ",
"                                          $ ..5.Z.D.D.$.a o . .     . . . 6 s +.:.=.| r %                                       ",
"                                          $ =.Z.T.W.E.0.U 9 o .     X o % d #.8.x.x.$.a % .                                     ",
"                                          $ =.Z.T.E.E.S.4.U 0 .     . % a $.0.x.x.x.=.a % .                                     ",
"                                          X } 6.D.J.H.0.+.y 6 .     X % d +.=.=.=.:.U 8 $                                       ",
"                                          X t | 6.h.0.+.t $ .       X % a a a d a d 8 .                                         ",
"                                          X t f  .+.o.a o X .       . X % % % % % % o .                                         ",
"                                          X q d d s d 6 . . .       . . . . . . . . . .                                         ",
"                                          X q d d s d 8 . . .       . . . . . . . . .                                           ",
"                                          X t s d a 9 o . .         . . . . . . . X                                             ",
"                                          X t f f r . . .           . . . . . . . .                                             ",
"                                          $ ..,.<.C . . .           . X . . X 9 8 X                                             ",
"                                        . $ ..,.<...t @ .           . X % o % q 9 % $                                           ",
"                                      . . . % 9 7 | <.s .           . % a a q 6 8 y 8 X . .                                     ",
"                                    w V o.=.$.o.r d o.r .           . $ 9 0 q f | #.f 8 8 6                                     ",
"                                  . y 9.H.W.W.H.o.r . . .           . . . . 8 ,.x.x.$.d d t X                                   ",
"                                  . y 6.H.W.W.L.7. .0 $ .           . . . % d <.x.x.8.>.} q X                                   ",
"                                  . y 8.H.W.W.Y.Z.>.d 7 .           . . . 0 } 6.x.x.x.0. .t X                                   "
};
