/* XPM */
static char *RUN_F11676373412[] = {
/* columns rows colors chars-per-pixel */
"64 64 173 2 ",
"   c None",
".  c #1A0E13",
"X  c #1D1115",
"o  c #1F1518",
"O  c #221515",
"+  c #261917",
"@  c #2B1E16",
"#  c #21161A",
"$  c #241A1D",
"%  c #2C1C1A",
"&  c #381613",
"*  c #2E2216",
"=  c #332617",
"-  c #362917",
";  c #36241D",
":  c #372B19",
">  c #3A2C1B",
",  c #3D301D",
"<  c #261E20",
"1  c #2A1F22",
"2  c #2A2224",
"3  c #2D2728",
"4  c #2E2929",
"5  c #362C22",
"6  c #322728",
"7  c #322D2C",
"8  c #382E2D",
"9  c #382721",
"0  c #3C3127",
"q  c #34302F",
"w  c #3D352B",
"e  c #363231",
"r  c #3A3534",
"t  c #3A3836",
"y  c #3D3B39",
"u  c #481A13",
"i  c #492318",
"p  c #55281C",
"a  c #43341D",
"s  c #4B3B1F",
"d  c #6E331F",
"f  c #482B25",
"g  c #423423",
"h  c #4B3A21",
"j  c #453928",
"k  c #483D2B",
"l  c #533228",
"z  c #5F382A",
"x  c #513E24",
"c  c #423330",
"v  c #423A36",
"b  c #433D3A",
"n  c #503730",
"m  c #6B3927",
"M  c #534124",
"N  c #5D4A25",
"B  c #574A2F",
"V  c #5A4C2E",
"C  c #594724",
"Z  c #4E4533",
"A  c #44413D",
"S  c #514635",
"D  c #544839",
"F  c #584A33",
"G  c #5C503F",
"H  c #614E27",
"J  c #665229",
"K  c #69552A",
"L  c #6D592C",
"P  c #755E2F",
"I  c #604339",
"U  c #7F4F3A",
"Y  c #685735",
"T  c #6E5D37",
"R  c #6C5D3C",
"E  c #705E3B",
"W  c #7C6432",
"Q  c #796438",
"!  c #464440",
"~  c #494641",
"^  c #4C4944",
"/  c #4F4D48",
"(  c #504B45",
")  c #534F49",
"_  c #54524C",
"`  c #5A554D",
"'  c #5E5B53",
"]  c #615248",
"[  c #645B4B",
"{  c #6C5A4D",
"}  c #615D55",
"|  c #755C50",
" . c #7C6B43",
".. c #776A4C",
"X. c #7A6C4A",
"o. c #686050",
"O. c #66635A",
"+. c #69645A",
"@. c #6D695E",
"#. c #666154",
"$. c #716B5D",
"%. c #766854",
"&. c #7C7155",
"*. c #7B7258",
"=. c #6F6B60",
"-. c #716D62",
";. c #796E61",
":. c #757166",
">. c #7B7461",
",. c #7A766A",
"<. c #7E7A6D",
"1. c #76756A",
"2. c #833C22",
"3. c #83442C",
"4. c #844D36",
"5. c #8B4D33",
"6. c #85543E",
"7. c #866C36",
"8. c #8B7037",
"9. c #8F7339",
"0. c #93773A",
"q. c #9C7D3E",
"w. c #95783B",
"e. c #845640",
"r. c #845A45",
"t. c #836748",
"y. c #85754F",
"u. c #867345",
"i. c #9A7D40",
"p. c #837550",
"a. c #877955",
"s. c #897C58",
"d. c #857463",
"f. c #837C6D",
"g. c #817A66",
"h. c #837E70",
"j. c #A17960",
"k. c #9F803F",
"l. c #8C805E",
"z. c #8F8360",
"x. c #89816C",
"c. c #938867",
"v. c #868273",
"b. c #898575",
"n. c #8C877A",
"m. c #8C897A",
"M. c #918D7D",
"N. c #978972",
"B. c #9D9576",
"V. c #96917C",
"C. c #A49D7E",
"Z. c #959383",
"A. c #999684",
"S. c #9A9886",
"D. c #9D9B89",
"F. c #A39F86",
"G. c #A09E8C",
"H. c #A3A18E",
"J. c #ADA48D",
"K. c #B1AA8B",
"L. c #A5A391",
"P. c #A9A793",
"I. c #ACAA96",
"U. c #AEAD99",
"Y. c #B0AF9B",
"T. c #B4B39E",
"R. c #B8B59B",
"E. c #B4B095",
"W. c #B7B6A1",
"Q. c #BCBBA5",
"!. c #BFBEA8",
"~. c #C3C3AC",
"^. c #C7C7B0",
/* pixels */
"                                                                v.v.b.=.~ t t                                                   ",
"                                                                v.b.Z.n.O.~ y t                                                 ",
"                                                              v.b.m.U.E.n.O.y t r                                               ",
"                                                              b.v.b.D.G.n.O.4 2 3                                               ",
"                                                              v.h.v.v.v.v.' $ X X                                               ",
"                                                              ` ` ' :.b.v.v.h.@._ w                                             ",
"                                                              t ~ _ =.<.m.L.~.L.f.~ 2                                           ",
"                                                              t 1.Z.+.@.H.Q.~.L.f.-.+.                                          ",
"                                                              r n.Q.h.1.L.T.W.M.-.-.-.                                          ",
"                                                              r n.~.W.P.Z.M.M.@.! ! ~                                           ",
"                                                            f 6 } Z.L.L.m.v.b.} t t                                             ",
"                                                      2.2.2.p . 4 ! -.v.v.v.v.} t                                               ",
"                                          v.v.v.f.e.2.2.2.2.d p 6 4 ^ @.<.:.} b 2                                               ",
"                                        b.v.v.v.f.r.3.3.2.2.2.2.i $ 6 ~ =.} r 1 .                                               ",
"                                      E.M.v.v.v.f.d.r.5.2.2.2.2.m p ; 6 e 8 < % &                     K K                       ",
"                                    K.J.A.M.v.v.v.v.d.4.2.2.2.2.5.6.l 6 6 8 r f u u                 H H K K                     ",
"                          k.k.k.k.q.u.s.I.L.b.v.v.v.d.U 2.2.2.2.j.F.h.=.=.h.D.%.u u u               a s H K K K                 ",
"                        W 8.w.k.k.q.7.u.x.Z.S.S.A.:.` m m U 6.6.N.U.H.S.S.A.A.{ u l I %.            s s M N K K                 ",
"                      K L L 7.k.k.k.q.W c } W.~.W.' o o 8 ;.f.f.n.Z.Y.~.~.Z./ w > [ f.h.v.      K K J N a s J K                 ",
"                      ...... .7.0.k.k.7.x D -.-.=.r o < b <.h.b.h.b.D.D.n.=.y 5 : D o.,.v.      K J C s > s J K                 ",
"                      v.v.v.&.K 7.k.q.0.P h X . . . o 7 _ <.b.b.h.h.b.;.~ t y 0 : - j @.v.      J H a - - s H K                 ",
"                      v.v.v.,.&.y.        > . . . . # q ' D.I.I.G.h.b.-.~ ^ O.#.[ Z , Z Z ,     > : @ @ - > s s                 ",
"                      v.v.v.v.v.            . . . . o q } L.W.!.L.m.M.f._ } h.,.=.Z - - - - :   # o o # = - - -                 ",
"                      v.v.v.v.v.            . . . . o q ! ' ,.Z.P.W.T.H.,.,.v.' 8 : - - : : 5 t q 7 7 3 # +                     ",
"                      v.v.v.<.:.            . . . . # 7 t t / :.Z.W.Y.H.<.=.} v X @ - - - * 6 t t t t q $                       ",
"                      v.v.x.@.A             . . . . o 7 t t y ! -.M.Z.<.) t 1 $ X @ - - * O 2 t t t t t                         ",
"                      +.+.O.` Z V           . . . . o 2 4 t t t ) +.O.` e 1 X . X * - - * . * t t t t                           ",
"                      y y t Z K K L         . . . . . . * q t t t t y q # . . .   - - - * . 2 t t t                             ",
"                      E E E Q 7.P K           . X ; a g g t t t t t t 7 # . .       - - = @ * 2 4                               ",
"                      q.q.q.k.k.7.K           . X h K K V v v t b ! ! t 6 1           - - : + .                                 ",
"                      W 7.q.q.k.9.            . X h K K K V V V >.Z.,.:.b.n.                                                    ",
"                      K W 9.w.0.              6 7 B T L K K K K B.!.L.D.!.^.                                                    ",
"                          P P P               @.$.>.*.T K K K K B.^.!.Q.~.^.                                                    ",
"                          K K K               Z.D.D.M.p.X.a.s.s.m.Z.Z.Z.m.m.                                                    ",
"                                            b.L.!.~.T.M.V.R.Q.Q.,.~ ~ y 3 2                                                     ",
"                                          T.L.L.P.P.G.M.A.!.L.:._ t t e 3 2                                                     ",
"                                        ~.^.^.J.b.b.b.b.A.Q.,.. 2 t t t t t                                                     ",
"                                        z.C.~.Q.I.I.I.I.G.c.G . 3 t t t t t t                                                   ",
"                                        K s.E.R.R.R.R.R.B.Y g o 4 t t t t t t t                                                 ",
"                                          X.p.p.p.p.p.p.R > 6 4 e t t t t t t t y                                               ",
"                                            M M M M M M g O < y y t t t t t t t t t                                             ",
"                                            + + + + + + O . < y r t t t t t t t t t y                                           ",
"                                            . . . . . . . . # 4 4 4 e t t t t ! _ =.1.L.                                        ",
"                                            . . . . . . . . . . . o 4 t t t t ' b.I.~.^.^.                                      ",
"                    . . . .           . . $ 2 $ . . . . . . .     o < 2 2 y } b.I.Q.^.^.^.                                      ",
"                  . X X X . .       . X X 2 r 2 . . . . . . .       . . . v <.L.^.~.~.~.~.                                      ",
"                  . o 2 2 X . . . . . o 3 4 r 2 . . . . . . .         . . v <.P.^.L.S.S.S.                                      ",
"                  o < 7 4 o o # o . . o 4 e t 4 # # o X . .             . v h.D.T.Z.:.:.:.                                      ",
"              . X 3 e t 4 o < 7 $ . . . # 2 r e q e 4 o .               . v f.m.m.+.~ ^ ^                                       ",
"              r v ~ _ ) v # < t 2 . . . . < r ~ / _ ^ 4 <               . r ` O.@.^ t t t                                       ",
"              ,.,.f.<.<.' < 2 t < . . . . < r ' <.<.-.~ r                   $ 7 A y t t t                                       ",
"              v.v.v.<.@.) 1 < t 2 . . . . 2 t ' v.v.<.`                     . 2 t t t t t                                       ",
"              b.v.v.:.^ t                   t } v.v.b.                      . 2 t y t t t                                       ",
"              b.h.@.` ~                                                       $ 2 4 t t t                                       ",
"              b.<.` t                                                         1 2 t ! ! ~                                       ",
"                                                                              O.+.=.=.=.-.                                      ",
"                                                                              +.+.{ +.+.{                                       ",
"                                                                              1 2 2 2 1 2                                       ",
"                                                                              1 2 q b b (                                       ",
"                                                                              t y +.f.v.h.b.b.                                  ",
"                                                                              t y @.n.G.P.P.T.^.                                ",
"                                                                                y +.n.Y.~.~.^.^.                                ",
"                                                                                  / O.n.I.~.^.^.                                ",
"                                                                                  r ~ -.A.!.^.^.                                "
};
