/* XPM */
static char *R_F21676373412[] = {
/* columns rows colors chars-per-pixel */
"64 64 177 2 ",
"   c None",
".  c #1A0E13",
"X  c #1D1115",
"o  c #1F1418",
"O  c #211514",
"+  c #261A16",
"@  c #2A1E15",
"#  c #20161A",
"$  c #241A1D",
"%  c #2A1E1C",
"&  c #331816",
"*  c #3A1A16",
"=  c #2E2116",
"-  c #322517",
";  c #362917",
":  c #312319",
">  c #372919",
",  c #3B2D1B",
"<  c #3E271E",
"1  c #3E301A",
"2  c #271F21",
"3  c #2A1F22",
"4  c #2B2325",
"5  c #2E2728",
"6  c #2F2929",
"7  c #352C25",
"8  c #302728",
"9  c #332D2D",
"0  c #382F2D",
"q  c #372725",
"w  c #34302F",
"e  c #3F372D",
"r  c #363332",
"t  c #3A3634",
"y  c #3A3836",
"u  c #3E3C39",
"i  c #481A13",
"p  c #4A261E",
"a  c #46221D",
"s  c #44341F",
"d  c #47381D",
"f  c #4B3B1F",
"g  c #632E1D",
"h  c #67301E",
"j  c #6E331F",
"k  c #482620",
"l  c #4A2D21",
"z  c #423423",
"x  c #4D3D20",
"c  c #42372E",
"v  c #493C2A",
"b  c #443532",
"n  c #423A36",
"m  c #423E3B",
"M  c #5E3D33",
"N  c #6C3A29",
"B  c #7B3921",
"V  c #613F35",
"C  c #4A402F",
"Z  c #524123",
"A  c #594724",
"S  c #5D4A26",
"D  c #5B4D2E",
"F  c #4B4232",
"G  c #44423E",
"H  c #49423E",
"J  c #524730",
"K  c #584D35",
"L  c #504838",
"P  c #5F4439",
"I  c #614E27",
"U  c #634F29",
"Y  c #655229",
"T  c #69552A",
"R  c #6E592C",
"E  c #735D2E",
"W  c #665637",
"Q  c #6D5A31",
"!  c #6F5F3A",
"~  c #715F36",
"^  c #7F6733",
"/  c #73623C",
"(  c #78663D",
")  c #464440",
"_  c #4B4641",
"`  c #4E4B45",
"'  c #4F4D48",
"]  c #514B45",
"[  c #534E48",
"{  c #5A5245",
"}  c #55524B",
"|  c #59554E",
" . c #5D584F",
".. c #555045",
"X. c #595751",
"o. c #5D5A53",
"O. c #654B40",
"+. c #655C47",
"@. c #795E4D",
"#. c #625C54",
"$. c #756645",
"%. c #7C6B44",
"&. c #756748",
"*. c #636057",
"=. c #6E6757",
"-. c #66635A",
";. c #6A655B",
":. c #6C695E",
">. c #796D51",
",. c #726C5F",
"<. c #7D735A",
"1. c #6D6A60",
"2. c #716E62",
"3. c #767265",
"4. c #7B7564",
"5. c #7A766A",
"6. c #7D796C",
"7. c #7F7D70",
"8. c #833C22",
"9. c #834027",
"0. c #83442B",
"q. c #844D36",
"w. c #84543E",
"e. c #856B35",
"r. c #886F3A",
"t. c #8B713A",
"y. c #92763B",
"u. c #96793C",
"i. c #9B7D3E",
"p. c #845741",
"a. c #8D5E47",
"s. c #856A57",
"d. c #856E5B",
"f. c #877A56",
"g. c #827451",
"h. c #817A64",
"j. c #847C6C",
"k. c #857362",
"l. c #9B7C65",
"z. c #837F71",
"x. c #9F803F",
"c. c #8E825F",
"v. c #9D8857",
"b. c #85806F",
"n. c #8C8262",
"m. c #868273",
"M. c #888474",
"N. c #8A8779",
"B. c #8D8A7A",
"V. c #918D7D",
"C. c #9B9271",
"Z. c #93907E",
"A. c #9F987E",
"S. c #9E977C",
"D. c #B3A377",
"F. c #928F81",
"G. c #969483",
"H. c #999685",
"J. c #9C9A88",
"K. c #9B9886",
"L. c #A3A18E",
"P. c #A5A391",
"I. c #AAA792",
"U. c #ABAA96",
"Y. c #AEAD99",
"T. c #B2AE93",
"R. c #B1AF9B",
"E. c #B4B39E",
"W. c #BCB390",
"Q. c #B8B7A2",
"!. c #BBBAA4",
"~. c #BFBFA9",
"^. c #B6B4A0",
"/. c #C0BFA9",
"(. c #C1BCA5",
"). c #C2C2AB",
"_. c #C7C7B0",
/* pixels */
"                                                                m.m.m.#.y y y                                                   ",
"                                                                m.B.H.5.} ) y y                                                 ",
"                                                            m.m.m.H.!.L.6.} y y y                                               ",
"                                                            m.m.m.G.P.H.z.` 4 4 4                                               ",
"                                                            m.z.z.m.m.m.z.H # X O                                               ",
"                                                            X.X.X.;.z.m.m.z.6.#._ 3                                             ",
"                                                            y u ` o.3.m.F.R.!.G.;.0 4                                           ",
"                                                            y [ N.m.} 7.^./.(.H.j.:.#.                                          ",
"                                                            y X.U.P.1.N.^.^.U.m.1.2.2.                                          ",
"                                                            y X.U.~.R.L.F.B.m.X.) ) )                                           ",
"                                                            q m 5.G.U.H.m.m.5.' y y                                             ",
"                                                      8.8.B i + r X.7.m.m.m.5.[ y                                               ",
"                                                8.8.8.8.8.B h a 6 y | 2.z.2.[ r 4                                               ",
"                                              0.0.0.8.8.8.8.8.N * 2 w | 5.[ w 2 .                                               ",
"                                            j.d.s.s.p.8.8.8.8.8.g k 3 9 t 8 $ & *                                               ",
"                                          V.m.m.m.m.d.w.8.8.8.8.8.N b 0 q 0 b i i                                               ",
"                                        _.J.m.m.m.m.j.k.p.8.8.8.8.a.H.N.,.B.B.P i i                                             ",
"                                      W._.T.H.B.m.m.6.1.@.w.w.w.w.l.(.E.K.H.M.M i i i                                           ",
"                                    i.D._.).Q.G.m.m.;.G #.j.j.j.j.H.).).(.5.G p i i i           T T T                           ",
"                                  v.i.v.C.j.6.G.P.P.2.6 X.M.z.M.m.V.P.H.m.| t a l P O.          x A T T                         ",
"                                x.x.x.e.T < 0 F.).).6.o ..m.M.M.m.m.m.#.y y y 7 F 4.m.          , d Y T T T                     ",
"                          R t.v.x.x.x.u.e.U v { o.X._ 6 1.Y.Y.L.V.m.m.#.y }  .7 c 3.m.m.      Y A Z f A T T                     ",
"                        / ~ r.u.x.x.x.x.i./ Z @ . . 4 y 6.^.!.E.J.V.V.:._ :.2.0 9 =.6.m.    T T I Z ; Z T T                     ",
"                    m.m.h.<.( e.u.x.x.x.  l @ O . . 2 y ' -.M.J.Y.E.E.G.2.6.3.0 % c +.m.    T S f s ; f T T                     ",
"                    m.m.m.b.>.( t.u.i.    . . . . . 2 y y u o.6.G.I.^.G.1.;. .9 @ - F =.*.  Z x ; - ; d S S                     ",
"                    m.m.m.m.j.<.( E       . . . . . 2 y y y G ) ' -.N.1.) 9 : : - ; , z e t 4 O X + ; , , 1                     ",
"                    m.m.m.m.m.j.>.&.      . . . . . # 5 w t y y y _ *._ 4 $ X = ; ; - @ 7 y 5 2 % = @ = ; ;                     ",
"                    m.m.m.m.m.m.m.m.      . . . . . . . 5 y y y y y y 6 . . X = ; ; @ . 4 y y y y 6 X X                         ",
"                        m.m.m.6.-.o.        . . + , z s c y t t y y y 4 . . O - ; ; @ X 4 y y y y w o                           ",
"                        6.j.6.2.L n           . : S T T J y u u ) ) m w 4     ; ; ; @ . 4 y y y y y                             ",
"                        } } } ..K D T         . : S T T Y D J W M.N.2.5.B.    ; ; ; @ . 4 y y y                                 ",
"                        L L L K Q E T T       0 c W ! ! Q T T g.T.^.H.U._.    ; > > = X 4 w y y                                 ",
"                        t.t.t.t.t.e.R T     j.2.,.4.h.h.$.T T %.T.).!.~._.        ; ; = % #                                     ",
"                        t.t.u.x.x.y.E f.  P.J.J.J.J.Z.m.<.$.<.n.Z.G.G.F.B.        ; ; ; + .                                     ",
"                        R E t.x.x.x.    _.).).).).).I.M.b.M.I.L.#.) ) y 3                                                       ",
"                          R e.e.e.e.    C.C.C.C.C.C.A.L.L.L.A.n.` y y 4 .                                                       ",
"                            T T T T     T T T T T T c.).).Q.f.U n y y 4 .                                                       ",
"                                          T T T T T ( c.h.2.{ F u y y 4 .                                                       ",
"                                          T T T Y S S S n y y y y y y 5 .                                                       ",
"                                                  - = - 9 y y y y y y 4 .                                                       ",
"                                                  . . . 5 y y y y y y 5 X                                                       ",
"                                                  . . . 4 y y y y y y r                                                         ",
"                                                  . . . 4 y y y y G } |                                                         ",
"                                                  . . . 4 y y y y } 6.m.                                                        ",
"                                                  . . . 4 y y m | 6.L.E._.                                                      ",
"                                                  X X . 3 r m [ 3.K.)._._.                                                      ",
"                                                  6 2 . 2 3 [ 2.6.J.)._._.                                                      ",
"                                                  r 5 2 . 2 #.z.M.G.E.Q.Q.                                                      ",
"                            X . . 2 w 4 . . . . 2 w r w 2 2 #.z.m.N.Z.Z.G.                                                      ",
"                            $ $ . 2 r 4 . . . . 2 w G } H n ] #.-.:.:.:.:.                                                      ",
"                            y 6 # 2 r 4 . . . . 2 r } 6.j.2.n 3 y m m G m                                                       ",
"                            o.X.` n 6 4 3 o . . 2 w X.z.z.6.n # 9 y y y y                                                       ",
"                            m.m.m.#.$ 3 y 2 . . o w X.z.M.6.t # w y y y y                                                       ",
"                            m.m.m.-.w 9                     4 $ w y y y y                                                       ",
"                            m.z.6.-.m                       . # 9 y y y y                                                       ",
"                            m.5.X.'                         . # w y y y y                                                       ",
"                            2.-.) y                           # 5 y ] ] '                                                       ",
"                            G G u y                             X y 2.5.5.                                                      ",
"                              y y                               m H { | { n                                                     ",
"                                                                z.#.2 . X X .                                                   ",
"                                                                _ n 5 t [ #.7.P.                                                ",
"                                                                o 3 u #.M.Y._._._.                                              ",
"                                                                5 m -.5.M.U._._._.                                              ",
"                                                                u [ z.z.M.Y._._._.                                              "
};
