/* XPM */
static char *R_F31676373412[] = {
/* columns rows colors chars-per-pixel */
"64 64 174 2 ",
"   c None",
".  c #1A0E13",
"X  c #1D1115",
"o  c #1F1418",
"O  c #221615",
"+  c #271917",
"@  c #21171B",
"#  c #251B1E",
"$  c #2A1C19",
"%  c #2B1F15",
"&  c #381613",
"*  c #301918",
"=  c #2E231C",
"-  c #2E2216",
";  c #332616",
":  c #362917",
">  c #31231B",
",  c #372918",
"<  c #382A18",
"1  c #3F301A",
"2  c #271F21",
"3  c #291F21",
"4  c #2B2324",
"5  c #2D2728",
"6  c #2F292A",
"7  c #372321",
"8  c #392E22",
"9  c #322D2C",
"0  c #382F2E",
"q  c #362A27",
"w  c #36312E",
"e  c #3B3129",
"r  c #363332",
"t  c #3A3534",
"y  c #3A3836",
"u  c #3D3B39",
"i  c #4A1E17",
"p  c #4D251C",
"a  c #452119",
"s  c #50271F",
"d  c #52291D",
"f  c #43331D",
"g  c #6A321F",
"h  c #482C26",
"j  c #452924",
"k  c #522A22",
"l  c #4A3921",
"z  c #403528",
"x  c #503F21",
"c  c #403634",
"v  c #433D34",
"b  c #4F3831",
"n  c #423E3B",
"m  c #6C3D2B",
"M  c #7A3821",
"N  c #743B26",
"B  c #534223",
"V  c #5D4A26",
"C  c #57472F",
"Z  c #5A4528",
"A  c #5B4B2D",
"S  c #44423E",
"D  c #4A413E",
"F  c #574933",
"G  c #55483C",
"H  c #5F5236",
"J  c #5B5139",
"K  c #624F27",
"L  c #64522B",
"P  c #69552A",
"I  c #6D592C",
"U  c #715C2D",
"Y  c #7B4B37",
"T  c #67593D",
"R  c #735F32",
"E  c #726037",
"W  c #796130",
"Q  c #76643B",
"!  c #7C683D",
"~  c #474440",
"^  c #484641",
"/  c #4D4B45",
"(  c #524B46",
")  c #544F49",
"_  c #5A554E",
"`  c #575349",
"'  c #595750",
"]  c #5D5A52",
"[  c #684C42",
"{  c #6A5045",
"}  c #665948",
"|  c #775C4C",
" . c #625E55",
".. c #715F53",
"X. c #6D634F",
"o. c #736443",
"O. c #7E6B40",
"+. c #76694A",
"@. c #72674C",
"#. c #636057",
"$. c #656259",
"%. c #69645A",
"&. c #6C695E",
"*. c #786D51",
"=. c #756558",
"-. c #786B5D",
";. c #7E755F",
":. c #6B6960",
">. c #716D62",
",. c #757165",
"<. c #787366",
"1. c #777468",
"2. c #7A766A",
"3. c #7E7A6C",
"4. c #7E7C71",
"5. c #833C22",
"6. c #83432A",
"7. c #844B34",
"8. c #8A523A",
"9. c #806733",
"0. c #896F36",
"q. c #846B36",
"w. c #8F7339",
"e. c #90743A",
"r. c #96793D",
"t. c #9C7D3E",
"y. c #845640",
"u. c #8E6852",
"i. c #867A58",
"p. c #857361",
"a. c #807964",
"s. c #887E61",
"d. c #827D6D",
"f. c #837F71",
"g. c #9F803F",
"h. c #9F8140",
"j. c #988250",
"k. c #9B875A",
"l. c #A08242",
"z. c #A58C53",
"x. c #8A856F",
"c. c #928764",
"v. c #868273",
"b. c #898576",
"n. c #8B8779",
"m. c #8E8B7C",
"M. c #918E7E",
"N. c #9B8976",
"B. c #93907F",
"V. c #9D9576",
"C. c #AF9D6E",
"Z. c #A89F7E",
"A. c #AAA17F",
"S. c #B3A478",
"D. c #959383",
"F. c #989584",
"G. c #9B9887",
"H. c #9E9B8A",
"J. c #A79B87",
"K. c #A09E8C",
"L. c #A7A082",
"P. c #A3A18F",
"I. c #AEA586",
"U. c #A6A492",
"Y. c #A9A793",
"T. c #ABA996",
"R. c #ADAC98",
"E. c #B1AF9A",
"W. c #B4B39D",
"Q. c #BEB99D",
"!. c #B7B6A1",
"~. c #BCBBA5",
"^. c #C4C4AD",
"/. c #C7C7B0",
/* pixels */
"                                                            v.v.v.&.n y y                                                       ",
"                                                            v.m.D.v.] ^ y y                                                     ",
"                                                          v.v.M.W.T.v.] y y y                                                   ",
"                                                        v.v.v.m.K.H.b._ 5 4 4                                                   ",
"                                                        v.f.v.f.f.v.v.) o o o                                                   ",
"                                                        ' _ ' #.3.v.v.f.3.%.( 9                                                 ",
"                                                        y u ^ ' >.f.m.T./.K.<.n 3                                               ",
"                                                        y S 4.m. .>.R.~.^.K.3.-.%.                                              ",
"                                                        y ~ G.R.4.4.R.!.W.m.>.>.>.                                              ",
"                                                        y ~ G./.!.U.D.m.m.$.S S ~                                               ",
"                                                        0 0 :.D.U.K.v.v.f._ y y                                                 ",
"                                                  5.5.5.p o 9 ( 2.v.v.v.v._ y                                                   ",
"                                                5.5.5.5.g p 7 9 ( :.f.>.] u 4                                                   ",
"                                              5.5.5.5.5.5.M a $ 9 ( ,.' r 2 X                                                   ",
"                                            5.5.5.5.5.5.5.5.g d 7 5 t q 2 * &                                                   ",
"                                          7.7.7.7.7.7.7.6.5.5.N b 0 q 0 t j i                                                   ",
"                                          p.p.p.p.p.p.p.8.5.5.8.N.D.>.v.H.{ k ..v.                                              ",
"                                          v.v.v.v.v.v.v.| m 7.u.J.T.H.G.D.[ k =.v.                                              ",
"                                        v.v.v.v.v.v.v.v.] S %.d.v.H.~.n.S h k =.v.                                              ",
"                                        U.M.v.v.m.K.F.v.] S &.v.v.v.b. .t G { -.                                                ",
"                                        ^.K.b.v.F.~.T.v.] S &.v.v.%.n y n %.v.                                                  ",
"                                        C.I.R.R.Y.P.2.D :.M.b.v.v.:.u ) %.2.v.                                                  ",
"                                        h.S.Q.E.H.3.) o ,.!.H.M.D.1.) #.v.2.,.                                                  ",
"                                        h.z.k.} n r w 9 %.G.T.!.W.H.1.2.f.` 0                                                   ",
"                                      h.g.g.w.Z > @ 2 t ' ,.M.U.R.H.,.%.$.t O                                                   ",
"                                  h.h.t.g.h.t.w.I $ 2 t n S / ] 4.1./ r 4 = ;                                                   ",
"                                  0.0.0.0.r.t.w.P $ 2 t y y y S ] ) r 2 . = 8                                                   ",
"                                  I I I I 0.r.W B O 4 y y y y y u 6 o . . 5 y                                                   ",
"                                  *.*.*.*.y.W B 8 l e y y y y y y 6 o @ 5 r t y                                                 ",
"                                  v.v.v.x.*.K = - V A v u u S S S t 4 9 t y y y y                                               ",
"                                  v.v.v.x.2.X.q > V L F A H x.m.,.1.v.$.y y y y y                                               ",
"                                  v.v.v.x.v.,.w * V P P P E Z.!.H.U.^.v.y y t r w                                               ",
"                                  v.v.v.v.v.,.w ; V P P P E L.^.~.~./.v.y y r 2 , A P P                                         ",
"                                  v.v.v.v.v.,.v e T o.o.o.+.x.D.n.D.n.] 6 6 3 2 - f V P                                         ",
"                                      v.v.b.2./ / ,.v.a.d.2.' S 5 2 3 @ X o X . O : x P                                         ",
"                                        #. .] G J @.;.v.D.G.] 9 o . . 2 3 @ . @ - : 1 B V                                       ",
"                                        u u S K P P +.b.T.!.:.w o . . 4 y 2 X - : : < < B P P                                   ",
"                                        Q E W q.W U i.Y.V.i.` 9 @ . . 4 y 5   > 1 B B B V P P                                   ",
"                                        r.g.g.g.r.! k.W.i.A v r @ . . 2 y     : f K P P P P P                                   ",
"                                        W 0.g.g.z.Z.V.i.F = w 9 @ . . @           L P P P                                       ",
"                                        I q.e.e.i.A.i.Z 8 # 4 4 o . . .           P P P                                         ",
"                                          U U U R Q A $ q 9 2 o . . . . .                                                       ",
"                                          f f l l l 8 2 6 t 2 X o 4 2 @ .                                                       ",
"                                          X X X o . 2 y t t 2 o r t y 4 X                                                       ",
"                                          . O # 5 5 / f.v.4.^ 6 r ~ ] ^ 4                                                       ",
"                                          X @ r u S 2.^./.~.:.t u ' 3.#.y                                                       ",
"                                  . . . . . # ) :.%.D././.~.:.~ #.,.v.#.y                                                       ",
"                                  . . . . . 3 _ 2.f.D.!.!.R. .n $.1.,.' y                                                       ",
"                                  . . . . . o y ] 4.n.D.D.n.n 4 u / / ^                                                         ",
"                                  . . . . @ 4 9 ^ $.:.%.1.3.c @ 9 y t                                                           ",
"                                  . . . . 5 t y y n n u ^                                                                       ",
"                                  . . . . 5 y y y y y y                                                                         ",
"                                  . . . . 5 y y y y y                                                                           ",
"                                      . . 5 y y y y y                                                                           ",
"                                        . 5 y y y y y                                                                           ",
"                                        . 5 y y y                                                                               ",
"                                        X r ( / /                                                                               ",
"                                        . ) 2.2.2.                                                                              ",
"                                        n ( } _ (                                                                               ",
"                                        d.n X X X X .                                                                           ",
"                                        D r 9 D _ >.n.^.                                                                        ",
"                                        O 9 ^ >.F.~././.                                                                        ",
"                                        9 ) >.d.F.~././.                                                                        ",
"                                        u $.v.v.F.~././.                                                                        "
};
