/* XPM */
static char *R_F41676373413[] = {
/* columns rows colors chars-per-pixel */
"64 64 160 2 ",
"   c None",
".  c #1A0E13",
"X  c #1D1115",
"o  c #1F1418",
"O  c #221615",
"+  c #251814",
"@  c #291C15",
"#  c #21171A",
"$  c #241B1E",
"%  c #2A1D1B",
"&  c #381613",
"*  c #311916",
"=  c #311C1C",
"-  c #2E2116",
";  c #342717",
":  c #362917",
">  c #32251D",
",  c #3D2D1E",
"<  c #271F21",
"1  c #2A1F21",
"2  c #2B2324",
"3  c #2D2728",
"4  c #2F2A2A",
"5  c #332525",
"6  c #362D27",
"7  c #312728",
"8  c #332C2C",
"9  c #392F2F",
"0  c #3E3125",
"q  c #35302F",
"w  c #363332",
"e  c #3A3534",
"r  c #3A3836",
"t  c #3E3C39",
"y  c #481A13",
"u  c #411F19",
"i  c #4B241B",
"p  c #50281D",
"a  c #43331F",
"s  c #67301E",
"d  c #6B321F",
"f  c #70341F",
"g  c #422C26",
"h  c #453421",
"j  c #483522",
"k  c #473823",
"l  c #4B3A21",
"z  c #403429",
"x  c #4A3B29",
"c  c #533F26",
"v  c #55352C",
"b  c #59372E",
"n  c #433A37",
"m  c #433D3A",
"M  c #483F3C",
"N  c #6F3F2D",
"B  c #773720",
"V  c #7E3A21",
"C  c #763D28",
"Z  c #524123",
"A  c #50452F",
"S  c #494234",
"D  c #44423E",
"F  c #4B433D",
"G  c #564037",
"H  c #554931",
"J  c #584A33",
"K  c #5C503C",
"L  c #624E29",
"P  c #65522B",
"I  c #69552B",
"U  c #735D2E",
"Y  c #7D4E39",
"T  c #6E5D37",
"R  c #655338",
"E  c #6F5E38",
"W  c #755C31",
"Q  c #7C6433",
"!  c #766138",
"~  c #7A663D",
"^  c #464440",
"/  c #4D4743",
"(  c #4E4C46",
")  c #4F4D48",
"_  c #524B45",
"`  c #534E48",
"'  c #595243",
"]  c #55524B",
"[  c #5A554E",
"{  c #5F584F",
"}  c #5C5750",
"|  c #5D5A52",
" . c #6B5E41",
".. c #625E55",
"X. c #655F58",
"o. c #746543",
"O. c #7C6E4D",
"+. c #646057",
"@. c #686150",
"#. c #666359",
"$. c #6A645A",
"%. c #6D695E",
"&. c #756053",
"*. c #76675A",
"=. c #726B5F",
"-. c #7B7258",
";. c #6E6B61",
":. c #726E63",
">. c #747266",
",. c #7C7562",
"<. c #757369",
"1. c #7A7569",
"2. c #7E7A6D",
"3. c #833C22",
"4. c #834128",
"5. c #844B34",
"6. c #826934",
"7. c #896E36",
"8. c #846D3C",
"9. c #8A6E38",
"0. c #8B7037",
"q. c #8E7239",
"w. c #93763B",
"e. c #96783C",
"r. c #9B7D3E",
"t. c #805B48",
"y. c #85624E",
"u. c #856C59",
"i. c #846654",
"p. c #887E5F",
"a. c #827552",
"s. c #857361",
"d. c #817A66",
"f. c #827D6E",
"g. c #827E71",
"h. c #9F803F",
"j. c #87816E",
"k. c #868273",
"l. c #898576",
"z. c #8D8A7B",
"x. c #918E7D",
"c. c #928F80",
"v. c #959281",
"b. c #989584",
"n. c #9B9887",
"m. c #9D9B8A",
"M. c #A19F8D",
"N. c #A3A18E",
"B. c #A6A491",
"V. c #A8A793",
"C. c #ACAA96",
"Z. c #ADAC98",
"A. c #B0AE97",
"S. c #B0AE9A",
"D. c #B4B39E",
"F. c #B7B6A1",
"G. c #BCBBA5",
"H. c #BFBEA8",
"J. c #C4C3AD",
"K. c #C7C7B0",
/* pixels */
"                                                                    k.k.k.$.m r r                                               ",
"                                                                    k.z.v.g.} ^ r r                                             ",
"                                                                k.k.k.v.F.V.k.} w r r                                           ",
"                                                                k.k.k.x.M.n.l.] 3 3 3                                           ",
"                                                                k.k.k.k.l.k.k.( O O o                                           ",
"                                                                ] [ ] #.2.k.k.g.f.g.:.n                                         ",
"                                                                r t ^ | :.k.z.C.K.H.M./ 2                                       ",
"                                                                r ^ g.z.| <.Z.H.J.C.x.:.#.                                      ",
"                                                                r ^ c.M.:.g.S.F.Z.l.:.:.:.                                      ",
"                                                                r ^ <.b.C.V.c.x.z...^ ^ ^                                       ",
"                                                                0 q ] <.M.M.l.l.g.] r r                                         ",
"                                                              3.i o 8 ) 1.k.k.g.g.] r                                           ",
"                                                            3.3.s i > q ` ;.g.:.} r 2                                           ",
"                                                          3.3.3.3.B i % 8 ) <.} w 1 .                                           ",
"                                                        V 3.3.3.3.V s p 1 5 e 8 $ @ &                                           ",
"                                                      B s B C 5.5.5.4.d u 5 z 9 5 i y                                           ",
"                                                    ; * * * b s.s.u.5.V f t.m.k.$.b y y y                                       ",
"                                                  ; @ O $ 9 ..k.k.f.i.5.C i.C.B.b.&.b y y                                       ",
"                                                ; + . . 9 :.f.k.k.g.f.=./ [ k.V.H.v.*.v y                                       ",
"                                              : ; + . . n c.v.k.k.l.m.k.n / f.b.B.f...v                                         ",
"                                              : ; + . . / C.V.l.l.x.A.b.w n f.k.g.[ t                                           ",
"                                              : ; + . . 5 ] g.C.A.B.<./ $ n 2.b.V.g.#.                                          ",
"                                                ; + . . O % ..C.Z.n.M . o F l.C.J.m.k.                                          ",
"                                                  X . . > W R M F n 1 # 3 ..Z.H.J.m.k.                                          ",
"                                                  . . . a w.W a g a , 0 e +.n.V.S.g.#.                                          ",
"                                                  . . . g q.e.9.9.9.0.Q S D ) :.l._ 1                                           ",
"                                                  . . . , Q e.h.r.r.h.q.F r r ) ..q .                                           ",
"                                                  . . . ; L 6.h.r.r.h.y.S r r t r < .                                           ",
"                                                X , a a a a I h.h.h.q.~ @.] t 8 2 $                                             ",
"                                              . O a I I Z % Z e.e.e.Q o.d.%.D 3 .                                               ",
"                                              . O l I I L c a a P ~ O.-.j.2.%.m .                                               ",
"                                              7 6 J T I I I a X x E ,.k.k.k.k.[ 7 z                                             ",
"                                              %.=.,.-.E I I h . _ 2.j.k.k.k.k.1.=.E I I I                                       ",
"                                              k.k.k.j.p.a.o.K t _ @.1.k.k.k.k.1.%.o.Q Q Q                                       ",
"                                              k.k.k.x.A.C.l.2.1.F 5 #.k.k.k.k.#.D ~ r.r.r.                                      ",
"                                              n.k.k.x.F.S.x.c.N.| 3 m ] ......' H Q h.h.e.U                                     ",
"                                            J.B.k.l.v.F.S.c.M.J.<.w < o 8 w r A I 9.h.h.0.W I                                   ",
"                                            M.V.Z.C.C.N.B.C.c.<.] w o X $ 2 < > , P Q Q Q                                       ",
"                                            x.V.G.H.S.v.n.H.z.r t w < . . . . . X k P I I                                       ",
"                                            D.V.b.b.v.l.b.H.l.r r w $ . . . . . X 6 S                                           ",
"                                            b.b.b.b.b.b.b.c.;.r r w $ . . . . . . < 4                                           ",
"                                            8 1.G.G.G.G.c.M w r r w $ . . . . . . o o                                           ",
"                                            . ] g.f.g.g.X.8 4 r r w o . . . . o 2 w / $.                                        ",
"                                              O o o o O 1 w e r     . . . . . 2 t #.g.k.k.                                      ",
"                                              < 3 m ] ;.1.k.#.r       $ 2 3 2 8 t $.k.k.k.                                      ",
"                                            . 3 ^ %.x.F.K.K.z.r         w w w w t X.2.2.2.                                      ",
"                                            . n ;.2.c.F.K.K.V.          < < $ < < m ] ] ]                                       ",
"                                            . M <.2.z.Z.F.G.G.          . . . . . 2 w w r                                       ",
"                                            . 7 ( ;.l.x.v.v.x.      . X . . . . . o $                                           ",
"                                          # < 7 t [ %.;.:.g.        2 o X . . . . . .                                           ",
"                                        . < w r r t t D ^       r r w 4 o . . . .                                               ",
"                                        . < w r r r r r         < 2 2 2 2 2 2 $                                                 ",
"                                        . < w r r r r         . X . . $ 8 r r                                                   ",
"                                      # 2 8 r r r r           3 3 3 3 3 2 2                                                     ",
"                                    2 7 m D t r r             r w w t t 7 2                                                     ",
"                                . $ ` $.;.} n r                 1 3 ] ;.$.[ t                                                   ",
"                                $ 2 _ #.X...`                     2 $.k.k.$.m                                                   ",
"                                w 8 3 1 1 M >.                      f.k.k.$.t                                                   ",
"                                r r m m n ' g.                        1.%.] t                                                   ",
"                                r D %.g.g.g.                            t t r                                                   ",
"                                r D ;.x.N.S.J.K.                                                                                ",
"                                r D $.z.D.J.K.K.K.                                                                              ",
"                                    ] #.z.Z.J.K.K.                                                                              ",
"                                    r ( 1.m.J.K.K.                                                                              "
};
