/* XPM */
static char *R_F51676373413[] = {
/* columns rows colors chars-per-pixel */
"64 64 167 2 ",
"   c None",
".  c #1A0E13",
"X  c #1D1115",
"o  c #1F1418",
"O  c #221515",
"+  c #2F1716",
"@  c #261A16",
"#  c #281B16",
"$  c #20171A",
"%  c #241A1D",
"&  c #2A1D1C",
"*  c #361A17",
"=  c #381B17",
"-  c #3B1E1A",
";  c #2F2119",
":  c #2D2116",
">  c #322517",
",  c #362917",
"<  c #3C2C1E",
"1  c #32231A",
"2  c #261E21",
"3  c #291F21",
"4  c #272022",
"5  c #2B2425",
"6  c #2D2728",
"7  c #2E2929",
"8  c #312424",
"9  c #332A24",
"0  c #312728",
"q  c #322C2C",
"w  c #35302F",
"e  c #363231",
"r  c #3A3534",
"t  c #3A3836",
"y  c #3E3B39",
"u  c #4A261D",
"i  c #54281B",
"p  c #42321F",
"a  c #652F1E",
"s  c #67301E",
"d  c #6D321F",
"f  c #443321",
"g  c #49382C",
"h  c #5D3021",
"j  c #53352B",
"k  c #423935",
"l  c #423C39",
"z  c #483F3D",
"x  c #6F3622",
"c  c #63392B",
"v  c #6A3B29",
"b  c #753620",
"n  c #713A26",
"m  c #7B3A22",
"M  c #534024",
"N  c #5B4826",
"B  c #5C4728",
"V  c #594B2E",
"C  c #484133",
"Z  c #44413D",
"A  c #4A423E",
"S  c #524731",
"D  c #564C38",
"F  c #5E4E38",
"G  c #584B31",
"H  c #5F5133",
"J  c #624E2C",
"K  c #64512B",
"L  c #69552A",
"P  c #6D582C",
"I  c #735D2E",
"U  c #7F4933",
"Y  c #6C5A31",
"T  c #6C5C3C",
"R  c #765E31",
"E  c #77602F",
"W  c #7B6331",
"Q  c #74633C",
"!  c #7D683C",
"~  c #464440",
"^  c #4A4642",
"/  c #4B4944",
"(  c #524C46",
")  c #524E49",
"_  c #5D5343",
"`  c #56534C",
"'  c #59544D",
"]  c #5D5650",
"[  c #5D5A52",
"{  c #6A5D43",
"}  c #645D4E",
"|  c #7B5846",
" . c #7C5A48",
".. c #625D55",
"X. c #655F58",
"o. c #6A6048",
"O. c #736443",
"+. c #756849",
"@. c #676156",
"#. c #66635A",
"$. c #6A655B",
"%. c #6D695F",
"&. c #726C5F",
"*. c #756753",
"=. c #7B7056",
"-. c #6E6D63",
";. c #726E63",
":. c #757166",
">. c #7C7461",
",. c #767368",
"<. c #7A7569",
"1. c #7D796D",
"2. c #7F7D71",
"3. c #833C22",
"4. c #844F38",
"5. c #84543E",
"6. c #846A35",
"7. c #886E36",
"8. c #8D733A",
"9. c #93763B",
"0. c #977A3E",
"q. c #9D7E3E",
"w. c #905F48",
"e. c #8A7443",
"r. c #947C4A",
"t. c #856E5C",
"y. c #986C53",
"u. c #857752",
"i. c #82785D",
"p. c #857463",
"a. c #8E7866",
"s. c #837C6C",
"d. c #827E71",
"f. c #9F803F",
"g. c #A18852",
"h. c #A89059",
"j. c #8A8066",
"k. c #868273",
"l. c #898576",
"z. c #888779",
"x. c #8D8A7A",
"c. c #918D7D",
"v. c #A49B7D",
"b. c #ABA17E",
"n. c #908F80",
"m. c #949383",
"M. c #999684",
"N. c #9B9887",
"B. c #9E9C8A",
"V. c #A19F8D",
"C. c #A49984",
"Z. c #A3A18E",
"A. c #A7A592",
"S. c #A9A793",
"D. c #AAA995",
"F. c #AEAD99",
"G. c #B0AE9B",
"H. c #B7B399",
"J. c #B9B099",
"K. c #BDB695",
"L. c #B7B6A1",
"P. c #B8B7A2",
"I. c #BBBAA5",
"U. c #BFBFA9",
"Y. c #C0BFA9",
"T. c #C3C3AC",
"R. c #C7C7B0",
/* pixels */
"                                                                        k.l.k...t t t                                           ",
"                                                                      k.k.x.M.,.) Z t t                                         ",
"                                                                    l.k.k.B.P.N.<.' t t t                                       ",
"                                                                    k.k.k.M.F.N.d.` 7 0 7                                       ",
"                                                                    k.k.k.l.x.l.d.^ $ X o                                       ",
"                                                                    #.#.#.#.#.:.d.X.z ' ] k                                     ",
"                                                                    y y y y y ..k.d.k.S.S.( .                                   ",
"                                                                    t t y ` 1.-...l.S.P.L.:.^                                   ",
"                                                                    t t r ,.U.z.y z.R.R.I.N.k.                                  ",
"                                                                    t t y ,.U.D.z.m.Z.Z.M.:.[                                   ",
"                                                                    r r y -.I.T.T.V.k.2.,.` t                                   ",
"                                                                  i 5 7 r #.N.B.B.n.2.$.` /                                     ",
"                                                                3.d = 3 w ) <.s.k.1.:.( r                                       ",
"                                                          k n 3.3.m s u & r ( %.k.%.( q %                                       ",
"                                                        k j n 3.3.3.3.s = 8 q ( %.( q 8 +                                       ",
"                                                      k c n 3.3.3.3.3.m d u % 5 q 5 & u s                                       ",
"                                                    t k v m d s a x 4.4.4.c - + * * - v 5.                                      ",
"                                                  y t k v b u + + j *.p.p.| x x d x x  .p.        L L L                         ",
"                                                9 7 e t j i + $ q ( 1.d.d.t.w.U 5.w.y.a.k.      I E I P L                       ",
"                                              , # o 7 r ; O . 0 ..<.d.d.l.d.p.a.p.C.J.M.k.    L I 8.7.I L L L                   ",
"                                              , : @ & 5 $ . . 9 -.d.l.l.d.n.V.V.V.x.d.;.$.o.I W 7.0.9.6.I P L                   ",
"                                              , , , @ X X . . q X.d.l.d.d.V.Y.Y.Y.-.3 w C V I 8.q.f.q.q.7.P L                   ",
"                                              # : , @ . . . . 4 ) <.M.Z.Z.n.1.<.<.z o 6 y V P Y ! 0.f.f.9.6.6.                  ",
"                                              X # , @ . . . X o w X.G.R.R.d.$ . . . . 6 l V K C D 8.f.f.f.q.q.                  ",
"                                              5 & @ o . . . . X 2 k ..%.%._ f p p 9 5 5 9 _ *.@.} { T T Q 0.                    ",
"                                              t 5 X X . . . . . . . X O O p L P L S r 5 5 @.k.k.:./ t t t                       ",
"                                              t w 5 $ . . . . . . # p M J R 6.7.6.Y G ( } :.k.k.1.%...Z                         ",
"                                              t t r 4 . . . . . . & j E 0.f.f.q.q.6.Y =.k.k.k.k.k.k.k.                          ",
"                                                t r 4 . . . X . . o ; B 9.q.q.f.q.6.L =.k.k.k.k.k.                              ",
"                                                t t 9 # @ # # O X . . u W 9.q.f.q.6.Y =.k.k.k.k.k.                              ",
"                                                t t g M M M M p @ . . + p P q.f.q.6.Y =.k.k.k.                                  ",
"                                                  t V L L L L N < 8 k r q F r.g.h.e.Y =.k.k.k.                                  ",
"                                                    K L L L L J N { x.x.:.>.j.v.K.Z.                                            ",
"                                                    +.Q P L L L L u.H.H.B.M.M.F.R.                                              ",
"                                                  k.s.p.{ L P P L u.H.T.U.I.I.U.R.                                              ",
"                                                k.k.c.M.i.O.O.T H o.l.M.m.m.m.m.m.1.                                            ",
"                                              k.k.l.A.P.M.s.s.;./ Z ~ ~ / / / ~ ^ Z t                                           ",
"                                            M.Z.Z.Z.A.S.n.s.X.( Z t y e 7 7 6 6 5 e t t                                         ",
"                                          k.Z.T.T.T.Z.l.d.;.k 2 q t t 7 o . . . X 6 t t t t y                                   ",
"                                          A.Z.S.S.A.c.l.M.n.k $ q e 6 2 o . . . X $ 5 5 6 q                                     ",
"                                          T.D.l.l.l.d.c.F.A.^ $ w q o . . . . . . . . . .                                       ",
"                                          #.k.S.S.S.D.V.d.] y 7 e 7 o . . . . . . . . . . . $ q                                 ",
"                                          . X.P.P.P.I.S.) $ q t t w o X . . . . . . . . . . $ e Z                               ",
"                                            z ] ..] ] ) k 0 e t t e   . . . . . . . . . o 3 t ' %.s.                            ",
"                                              . X o $ $ 7 t t t t t     X . . . . . . . o q / -.k.k.k.                          ",
"                                              . % 7 q q r t t r           . . . . . . . o 7 ^ ;.k.k.k.                          ",
"                                            5 8 t ^ ^ ~ y t t t             . . . . . o % q ~ #.;.;.&.                          ",
"                                          . k #.-.;.;.-./ t t t                   . X 4 q r y ^ A r q                           ",
"                                          . A d.k.k.c.c.,.[ ~ y                     X 5 q e q q 5 $ .                           ",
"                                          . ^ d.l.l.Z.P.G.A.                          o o o o o $ . .                           ",
"                                        . . k %.1.l.D.R.R.R.                          X . . . . . . .                           ",
"                                      . . . 6 Z #.l.D.R.R.R.                          . . . . . . . .                           ",
"                                    $ 2 2 2 7 t ) $.2.n.n.n.                          X . . . . . .                             ",
"                          . . . . X 2 q r r t t y l Z ~ ~ ~                           X . X . . .                               ",
"                        2 k z q 4 4 6 r t t t t y t t t t                             . X % 2 o .                               ",
"                  t r 2 2 ..;./ r r t t t t t t t t                               . . . o 7 q $ .                               ",
"                  ..[ l q l ( [ ` Z t t t t t                                     5 5 5 4 5 5 5 5                               ",
"                  k.1.' r % 8 #.;./ t t t t t                                     t t r e 4 % e y                               ",
"                  k.k.;.] 0 8 $.1.`                                               4 4 4 5 A ' ..[ ^                             ",
"                  x.x.x.1.l 0 #.k.                                                . . X 5 ..k.k.:.) Z                           ",
"                  G.G.F.B.' e '                                                   . X 2 t $.k.k.1.;.[ Z                         ",
"                  R.R.R.P.-.t                                                       X 6 Z %.k.k.k.k.%.~ t                       ",
"                  R.R.R.U.m.                                                                  k.k.k.%.Z t                       ",
"                  R.R.R.R.                                                                    k.k.k.-.~ t                       "
};
