/* XPM */
static char *R_61676373413[] = {
/* columns rows colors chars-per-pixel */
"64 64 177 2 ",
"   c None",
".  c #1A0E13",
"X  c #1D1115",
"o  c #1F1418",
"O  c #211415",
"+  c #261915",
"@  c #211619",
"#  c #241B1D",
"$  c #291F1C",
"%  c #2B1916",
"&  c #311816",
"*  c #391F1B",
"=  c #2E2116",
"-  c #2E211A",
";  c #332617",
":  c #362917",
">  c #34261B",
",  c #3C2C1D",
"<  c #271E21",
"1  c #2A1F21",
"2  c #292223",
"3  c #2D2728",
"4  c #2E2929",
"5  c #342A24",
"6  c #332D2D",
"7  c #392F2E",
"8  c #362421",
"9  c #34302F",
"0  c #3A312E",
"q  c #3C3023",
"w  c #363231",
"e  c #393634",
"r  c #3A3836",
"t  c #3F3D3A",
"y  c #401F18",
"u  c #422019",
"i  c #4A241C",
"p  c #51261B",
"a  c #5A2B1E",
"s  c #40301E",
"d  c #662F1E",
"f  c #473825",
"g  c #4B3B23",
"h  c #4B382B",
"j  c #5C392D",
"k  c #403735",
"l  c #433B34",
"z  c #413F3C",
"x  c #483F3C",
"c  c #513B33",
"v  c #593D32",
"b  c #603729",
"n  c #63392A",
"m  c #6C3B28",
"M  c #743620",
"N  c #7C3A22",
"B  c #554325",
"V  c #594726",
"C  c #5D4A27",
"Z  c #5F4F2D",
"A  c #484237",
"S  c #43413E",
"D  c #4C443B",
"F  c #524731",
"G  c #594B36",
"H  c #554B3A",
"J  c #5F5134",
"K  c #614E28",
"L  c #655129",
"P  c #69552A",
"I  c #6E592C",
"U  c #745D2E",
"Y  c #784D3A",
"T  c #665737",
"R  c #6C5930",
"E  c #6D5E3C",
"W  c #63553A",
"Q  c #715F3B",
"!  c #77602F",
"~  c #7C6431",
"^  c #72623D",
"/  c #796438",
"(  c #474540",
")  c #4A4642",
"_  c #4D4A45",
"`  c #4F4D48",
"'  c #524B44",
"]  c #584941",
"[  c #514E49",
"{  c #5A5244",
"}  c #55524B",
"|  c #5B554D",
" . c #575144",
".. c #5E5B53",
"X. c #664D40",
"o. c #625946",
"O. c #7D5845",
"+. c #605C53",
"@. c #6B634E",
"#. c #756747",
"$. c #76694A",
"%. c #7B6C48",
"&. c #636057",
"*. c #69665C",
"=. c #6C685F",
"-. c #696457",
";. c #736950",
":. c #786D50",
">. c #706C5F",
",. c #7E755D",
"<. c #6D6B61",
"1. c #716E62",
"2. c #7B6F61",
"3. c #757266",
"4. c #7C7564",
"5. c #7A7669",
"6. c #7D796C",
"7. c #747268",
"8. c #833C22",
"9. c #86442A",
"0. c #844830",
"q. c #84523C",
"w. c #816834",
"e. c #896F37",
"r. c #856D3D",
"t. c #8A7037",
"y. c #8D733A",
"u. c #91753B",
"i. c #977A3E",
"p. c #9A7C3D",
"a. c #835742",
"s. c #845A44",
"d. c #895A43",
"f. c #856E5C",
"g. c #85705E",
"h. c #8C7F5B",
"j. c #897759",
"k. c #807965",
"l. c #837C6D",
"z. c #8A7D6C",
"x. c #817E71",
"c. c #9F803F",
"v. c #8E825F",
"b. c #8A8063",
"n. c #908461",
"m. c #938866",
"M. c #868273",
"N. c #888475",
"B. c #8B8877",
"V. c #878678",
"C. c #888678",
"Z. c #8E8B7C",
"A. c #978F73",
"S. c #918E7E",
"D. c #9C9272",
"F. c #9F997E",
"G. c #9E977B",
"H. c #A38771",
"J. c #959281",
"K. c #9A9686",
"L. c #9A9887",
"P. c #9D9B8A",
"I. c #A19E8C",
"U. c #AD9A83",
"Y. c #A4A18E",
"T. c #A5A491",
"R. c #A9A794",
"E. c #ABA996",
"W. c #AFAE99",
"Q. c #B3B29D",
"!. c #BAB79D",
"~. c #B6B5A1",
"^. c #BDBBA5",
"/. c #BFBFA9",
"(. c #C0BFA9",
"). c #C3C3AC",
"_. c #C7C7B0",
/* pixels */
"                                                                          M.M.M.5.[ r r r                                       ",
"                                                                          M.N.S.S.*._ t r                                       ",
"                                                                        M.M.N.R.Q.S.<.) r r                                     ",
"                                                                        M.M.N.P.T.S.1.k 3 3 3                                   ",
"                                                                        M.M.M.N.V.M.=.5 . . .                                   ",
"                                                                        +.+...+.&.6.5.| | <.| X                                 ",
"                                                                        r r r z ) <.x.M.I.(.6.<                                 ",
"                                                                        r r t <.V.*.1.P.~.).K.|                                 ",
"                                                                        r r z J.Q.7.<.T./.^.I.6.                                ",
"                                                                        r e S J./.R.P.K.K.K.6.[                                 ",
"                                                                      h 6 w z V.~.~.E.J.x.3...t                                 ",
"                                                                8.8.8.p # 3 t 1.J.J.Z.V.1.[ (                                   ",
"                                                                8.8.8.d y 8 6 [ <.6.x.1.| 7 4                                   ",
"                                                      r r l m 8.8.8.8.N N i @ 7 _ 1.7.[ w @ o                                   ",
"                                                    r r e l m 8.8.8.8.0.s.X.D c c ] ) 7 1 o                                     ",
"                                                  r r r e l m 8.8.8.8.s.l.x.l.a.M * X . .               P P P P                 ",
"                                                r r r e c b N 8.8.9.d.f.M.M.x.f.s.n p p j 2.          U w.w.I P P P             ",
"                                              e e r r e j N N N 8.q.z.N.M.M.M.M.z.d.9.8.a.z.M.      I U u.u.! P P P             ",
"                                        : : - - 3 e 6 # * u u p M q.k.x.M.M.M.I.E.U.H.j.g.l.M.    I w.y.p.p.t.w.P P             ",
"                                      : : : = o < w - . . . . % a Y z.M.x.S.J.I.E.E.Y.N.l.M.    P I / u.p.c.c.u.! U             ",
"                                    : : : : : = % # @ . . . . X & c 5.z.x.I.W.3.) ) ] E #.      P P J W y.c.v.p.u.u.            ",
"                                  : : : : : : : % O X X . . . . . 6 +.6.J.K.J.] % > , V P       #.E {  .^ r.r.y.p.c.            ",
"                                  : : : : ; : : ; ; + . . . . . . o 1 *.~.6.e h V V C L P     M.l.k.4.1.{ D D G                 ",
"                                  : : = = = = = ; ; + . . . . . . X < _ x.o., K ~ ~ ~ ~ !   ,.M.M.M.M.6.&.[ S                   ",
"                                  : ; + X X . X X   X . . . . . . # 6 6 1 f L w.i.i.p.p.t.U $.M.M.M.M.M.l.l.                    ",
"                                    : 2 2 2 - 2 2     . . . . . . < w 7 1 h I r.c.c.c.c.t.I $.M.M.M.M.M.M.                      ",
"                                      r r r r r r     . . . . . . # 7 r r F P y.c.c.c.c.y.U #.M.M.M.M.M.                        ",
"                                      r r r r r r       . . . . . o < 4 r l F J ^ y.c.c.t.U R $.k.M.M.                          ",
"                                      r r r e e w       . X X O O X . < e r r r A / i.i.e.U P P :.M.                            ",
"                                      r r r 9 2 # .     . O , g g , O 2 e r r r t H T / U P P                                   ",
"                                      r e w 3 @ X O X   + > B P P B - 0 } ` ( ` } S l K P P                                     ",
"                                      r w 2 # = = = + X s B K P P K B ;.P.C.7.Z.P.                                              ",
"                                        9 # + ; : : , 9 G E P P P P P v.).W.F.Q./.                                              ",
"                                          = : : : : H 3.4.,.^ P P P P v.).).^.).~.<.r                                           ",
"                                          @.@.@.| G @.M.M.M.b.v.v.:.T @.M.M.N.Z.C.} r r                                         ",
"                                          ^.^.^.I.M.M.M.M.Z.E.^.!.J._ 9 1 1 2 e S t r r r r r                                   ",
"                                          D.D.D.F.Y.Y.Y.Y.I.G.A.B.<.( 3 X . . < 4 w r r r r                                     ",
"                                          P P P v./._._._.!.j.Z l r e 3 . . . . o 4 r r r                                       ",
"                                            P P %.v.m.m.m.h.G q e r r 3 . . . . X # 2 2 2                                       ",
"                                              K K K K K K B > < 9 r w 3 . . . . . . . . .                                       ",
"                                              : > > > > , > 3 4 e 6 2 o . . . . . . . . . .                                     ",
"                                              . . . o o o < 6 e w 3 X . . . . . . . . . . . .                                   ",
"                                              . . . < 9 6 9 w w 2 o X . . . . . . . . . . . . .                                 ",
"                                            @ # < o 3 r r r r w # . . . . . . . . . . . . . 1 7 )                               ",
"                        . . .             . # 6 w w w r r r r e       . . . . . . . . . . . r 1.6.M.                            ",
"                      . . 1 k 7         o < 6 ` | | ( r r r r           . . . . . . . . o # _ M.M.M.                            ",
"                r 6 @ . . k 7._ . . . . @ 6 _ 7.l.6...r r r                   . . . . . # w | M.M.M.                            ",
"                +.} 7 6 x } +.( 2 2 2 2 9 [ *.l.M.M.1...) r                     . . X < 4 e ) ..| '                             ",
"                M.5.` ` 5.*.t r r r r r ) 3.M.M.M.N.N.M...e                       X @ 6 e e e e 2 .                             ",
"            M.M.M.3.) ` 5.*.t r r r r r z [ *.6.J.R.E.R.M.                          @ < 2 < 2 2 @ .                             ",
"            B.S.Z.6.| | 5.*.t r r r r r r r ` 1.K.)._._.                              . . . . . . .                             ",
"            Q.Q.Q.Y.6.<.              r r r S ` M.)._._.                              . . . . . . .                             ",
"            _._._./.K.N.              r r r r r 1./._._.                              . . . . . . .                             ",
"            _._._.).                                                                  . . . . . . .                             ",
"            _._._._.                                                                  . . . . . @ # @                           ",
"                                                                                          . . . 2 6 < .                         ",
"                                                                                          < 2 < 2 3 2 <                         ",
"                                                                                          e e e 2 X 3 e                         ",
"                                                                                          2 3 2 e _ | ..)                       ",
"                                                                                          . . . [ M.M.5.} t                     ",
"                                                                                          . @ 3 | M.M.l.<...)                   ",
"                                                                                          . 2 r +.6.x.M.M.1.) r                 ",
"                                                                                                _ } 3.M.M.1.) r                 ",
"                                                                                                r t *.M.M.3.) r                 "
};
