/* XPM */
static char *R_F71676373413[] = {
/* columns rows colors chars-per-pixel */
"64 64 171 2 ",
"   c None",
".  c #1A0E13",
"X  c #1D1216",
"o  c #1F1418",
"O  c #221515",
"+  c #241816",
"@  c #2A1D16",
"#  c #21161A",
"$  c #23191C",
"%  c #2A1C19",
"&  c #311816",
"*  c #2E2116",
"=  c #332617",
"-  c #362917",
";  c #33241B",
":  c #3C231E",
">  c #3B2B1D",
",  c #271F21",
"<  c #2A1F22",
"1  c #2B2324",
"2  c #2D2728",
"3  c #2F2A2A",
"4  c #362A20",
"5  c #322728",
"6  c #322D2D",
"7  c #382F2E",
"8  c #382723",
"9  c #3E3122",
"0  c #37312E",
"q  c #3B362F",
"w  c #363332",
"e  c #393634",
"r  c #3A3836",
"t  c #3D3B39",
"y  c #56281C",
"u  c #5E2C1D",
"i  c #44341F",
"p  c #6C321F",
"a  c #552D21",
"s  c #473720",
"d  c #4A3D2B",
"f  c #4D3C22",
"g  c #523026",
"h  c #513E24",
"j  c #403735",
"k  c #423F3B",
"l  c #613A2B",
"z  c #6E3421",
"x  c #723520",
"c  c #544225",
"v  c #5A4726",
"b  c #5B4528",
"n  c #5C4C2A",
"m  c #4D4333",
"M  c #45423E",
"N  c #49433F",
"B  c #584D35",
"V  c #564D3B",
"C  c #524635",
"Z  c #624E28",
"A  c #7C432D",
"S  c #64512A",
"D  c #69552A",
"F  c #6E592C",
"G  c #725D2E",
"H  c #754D3B",
"J  c #645636",
"K  c #6C5A33",
"L  c #68573F",
"P  c #6E5E39",
"I  c #65573A",
"U  c #705F3B",
"Y  c #76602F",
"T  c #7B6332",
"R  c #74643E",
"E  c #7F6A3E",
"W  c #474441",
"Q  c #4C4642",
"!  c #4C4944",
"~  c #524C43",
"^  c #544E49",
"/  c #55514B",
"(  c #5A564E",
")  c #5C5342",
"_  c #595750",
"`  c #5C5952",
"'  c #635640",
"]  c #685448",
"[  c #615B4D",
"{  c #615C54",
"}  c #6A6048",
"|  c #756645",
" . c #736648",
".. c #76694B",
"X. c #7F714F",
"o. c #676057",
"O. c #66635A",
"+. c #69655B",
"@. c #6D695E",
"#. c #786D51",
"$. c #766D59",
"%. c #7D745D",
"&. c #6D6B60",
"*. c #726E63",
"=. c #786D62",
"-. c #757265",
";. c #7B7465",
":. c #7F7863",
">. c #757469",
",. c #797669",
"<. c #7D796C",
"1. c #7E7D71",
"2. c #833C22",
"3. c #83432A",
"4. c #834C35",
"5. c #8A4930",
"6. c #845039",
"7. c #826736",
"8. c #856B35",
"9. c #896F36",
"0. c #8D733C",
"q. c #90753A",
"w. c #96793D",
"e. c #9B7C3E",
"r. c #845742",
"t. c #945F46",
"y. c #85604C",
"u. c #97644B",
"i. c #836553",
"p. c #856956",
"a. c #837551",
"s. c #85715F",
"d. c #897C58",
"f. c #857563",
"g. c #847D6E",
"h. c #817A66",
"j. c #927560",
"k. c #837F71",
"l. c #9F803F",
"z. c #A08447",
"x. c #8F8360",
"c. c #85806F",
"v. c #868273",
"b. c #888475",
"n. c #8D8A7B",
"m. c #8C877A",
"M. c #918E7E",
"N. c #958C73",
"B. c #93907F",
"V. c #9C9476",
"C. c #A89C79",
"Z. c #928F80",
"A. c #949281",
"S. c #9B9886",
"D. c #9C9A88",
"F. c #A29E87",
"G. c #A19F8D",
"H. c #A3A18D",
"J. c #A9A38F",
"K. c #AAA487",
"L. c #B7A68F",
"P. c #A4A390",
"I. c #A9A793",
"U. c #ADAB97",
"Y. c #AEAD99",
"T. c #B4B39E",
"R. c #B7B7A2",
"E. c #BCBBA5",
"W. c #BEBEA8",
"Q. c #C3C3AC",
"!. c #C7C7B0",
/* pixels */
"                                                                        v.v.,.! r r r                                           ",
"                                                                      v.b.A.M.@.! j r                                           ",
"                                                                    v.v.b.I.R.M.&.k r r                                         ",
"                                                                    v.v.b.D.H.n.&.e 1 1                                         ",
"                                                                    v.v.v.v.k.v.{ 5 O X                                         ",
"                                                                    ( _ ( ( { >.,.{ +.k./ .                                     ",
"                                                                    r r t W ( @.k.m.I.Q.*.1                                     ",
"                                                                    r r t >.A.O.&.P.E.!.A.o.                                    ",
"                                                                    r r t Z.R.1.<.I.R.R.M.*.                                    ",
"                                                                    r r t n.Q.R.I.A.Z.n.+.W                                     ",
"                                                                  a 5 0 t 1.U.Y.G.n.>.+./ r                                     ",
"                                                            2.2.2.u O 1 t +.b.b.b.v.+.t                                         ",
"                                                      r l 2.2.2.2.x y 8 1 N o.,.,.O.N 1                                         ",
"                                                      r l 2.2.3.3.3.3.a O 5 k o.O.k 2 .                                         ",
"                                                  r r r l 2.2.3.r.p.p.H u : < 7 0 1 $                                           ",
"                                                  r e 6 g z A r.g.v.v.p.4.a & & & & 8                                           ",
"                                              r r r 5 o % 8 ] f.g.v.v.g.s.H p p p p H g.        D D D                           ",
"                                              5 3 5 * . . $ ` v.v.v.v.v.g.j.u.5.3.6.p.v.        T G K D                         ",
"                                          - = + X X X . . $ { v.b.v.v.v.b.J.L.t.4.s.c.v.    D G q.9.F D D D                     ",
"                                          - = * O . . . . o N @.g.M.G.P.J.b.=.i.p.g.v.v.  F T 9.w.w.9.G D F                     ",
"                                        - - - - * X . . . o 2 ! -.S.E.Q.E.{ 1 { v.v.v.  D F 0.e.e.l.l.9.F F                     ",
"                                        - - - - * X . . . X # k M.Z.{ { { m d ~ o.g.v.  D D J P w.l.e.w.9.9.                    ",
"                                        - = = = @ O . . . . . 7 m.g.8 % ; c F m ! *.<.  R K V V 7.a.w.w.e.l.                    ",
"                                        - @ O O X . . . . . . # j N c Z T 8.9.F B ~ { v.h.%.-.+.) V B J                         ",
"                                        * % $ $ o X . . . . . . . ; Z 7.e.l.e.8.K m [ v.v.v.v.,.` Q t                           ",
"                                        o 1 w w 2 o . . . . . . . ; Z 7.l.l.e.e.9.D  .k.v.v.v.k.<.-.                            ",
"                                        1 3 r r w 1 o X . . . . . % i G l.l.l.l.q.G | v.v.v.v.v.v.                              ",
"                                        r e r r r r 1 X . . . X . . X b l.l.l.l.0.G | v.v.v.v.v.                                ",
"                                          r r r r r 2 X * s i > O . . - Z 7.e.e.q.G P ..:.v.v.                                  ",
"                                          r r r r w 2 O s D D v ; + < $ % K z.u.8.G D D #.v.                                    ",
"                                              r 6 1 4 s v D D Z c ' c.;.o.N.C.U h S D                                           ",
"                                              ! k 6 m P K D D D D d.Q.Y.B.T.Y.N @ v                                             ",
"                                              -.-.@.-.:.| D D D D d.E.Q.R.Q.U.N X                                               ",
"                                              n.v.v.v.v.%.| a.X.J } v.m.m.B.v.k ,                                               ",
"                                          !.E.S.v.v.v.v.g.c.I.H.( w 1 1 1 e W r e                                               ",
"                                          x.V.F.H.H.P.P.H.H.v.+.W 2 X . . $ 5 w r r                                             ",
"                                        D D R K.Q.Q.Q.Q.Q.T.~ $ w 3 X . . . # 6 r r r r                                         ",
"                                        D D G a.x.x.x.x.$.( t 5 w 2 X . . . X 6 r r r                                           ",
"                                        D D D D D D D S 9 # 3 r r 2 X . . . o 2 e e r                                           ",
"                                          D D D D D B m r 6 w r r 3 o . . . . # %                                               ",
"                                            D D S c d r r r r r r 3 o . . . . . .                                               ",
"                                                  $ 1 r r r r r r 3 X . . . . . .                                               ",
"                                                . . 1 r r r r 0 3 , X . . . . . .                                               ",
"                                              . . . % r r r r 0 $ . . . . . . . .                                               ",
"                    r r 1 . . . . . . . . . o 1 w Q ( ` ! r r 6 o . . . . , 6 k ( ;.                                            ",
"                    k k 2 O # # o X X o X X # w / ,.v.v.{ k r 6 $ . . . o 3 ! -.v.v.v.                                          ",
"                    &.&.Q 6 ~ / e 2 3 3 6 2 w ( -.g.v.b.>.+.! e   . . , 3 ^ *.<.v.v.v.                                          ",
"                    v.v.o.^ O.@./ M r r r r M o.,.1.n.A.A.n.` r     . 1 r ` >.-.*.*.@.                                          ",
"                    v.v.<.&.` / @.` k r r r t W ` <.S.R.R.Y.O.r     . 1 r M ! ! k 7 5                                           ",
"                    D.S.D.A.` ! -.*.M r r r r r ! O.B.Q.!.Q.,.r     . , 2 6 2 2 1 X .                                           ",
"                    Q.Q.W.R.+.! -.v.              M >.Q.!.Q.          X o X X X X . .                                           ",
"                    !.!.!.W.1.! -.                  >.Q.!.              . . . . . . X                                           ",
"                    !.!.!.!.                                            . . . . . . .                                           ",
"                                                                          . . . . . .                                           ",
"                                                                          . . . . . .                                           ",
"                                                                          . . . . . .                                           ",
"                                                                          . . . X # #                                           ",
"                                                                          . . . # 6 1 X                                         ",
"                                                                          , , , 1 1 1 <                                         ",
"                                                                          r e r 6 # < r                                         ",
"                                                                          1 1 1 7 N ( { / r r                                   ",
"                                                                          . . X w -.v.v.{ t t e                                 ",
"                                                                          . X 1 M >.v.v.>.+.! r                                 ",
"                                                                          X o 2 ^ ,.v.b.b.<./ r                                 "
};
