/* XPM */
static char *R_F81676373413[] = {
/* columns rows colors chars-per-pixel */
"64 64 166 2 ",
"   c None",
".  c #1A0E13",
"X  c #1D1215",
"o  c #1F1418",
"O  c #241315",
"+  c #2B1E15",
"@  c #21171A",
"#  c #241B1E",
"$  c #2C1E1B",
"%  c #331D1B",
"&  c #2E2116",
"*  c #2B201D",
"=  c #362917",
"-  c #3E231E",
";  c #3F2E1F",
":  c #35261B",
">  c #271E21",
",  c #2B2325",
"<  c #2D2728",
"1  c #2E2929",
"2  c #312727",
"3  c #3D2723",
"4  c #312825",
"5  c #322728",
"6  c #332D2D",
"7  c #3A2F2E",
"8  c #3E3127",
"9  c #36312F",
"0  c #3A302F",
"q  c #363332",
"w  c #3A3634",
"e  c #3A3836",
"r  c #3D3B39",
"t  c #45251E",
"y  c #52271B",
"u  c #56281C",
"i  c #5E2C1D",
"p  c #45341F",
"a  c #4C3C23",
"s  c #4C3E29",
"d  c #423424",
"f  c #533025",
"g  c #583328",
"h  c #403735",
"j  c #423C35",
"k  c #423E3B",
"l  c #6A3B29",
"z  c #733520",
"x  c #743822",
"c  c #7A3921",
"v  c #554226",
"b  c #55492E",
"n  c #5C4A2C",
"m  c #53432A",
"M  c #474033",
"N  c #4B4136",
"B  c #45423F",
"V  c #4A433E",
"C  c #544830",
"Z  c #584B32",
"A  c #544C39",
"S  c #614C2A",
"D  c #64512E",
"F  c #69552A",
"G  c #725D2D",
"H  c #744330",
"J  c #754D3B",
"K  c #625333",
"L  c #6D5A33",
"P  c #6B5B3A",
"I  c #745E31",
"U  c #77602F",
"Y  c #7A6333",
"T  c #73623C",
"R  c #7A673E",
"E  c #464440",
"W  c #494641",
"Q  c #4E4B46",
"!  c #504743",
"~  c #514A45",
"^  c #514E48",
"/  c #585247",
"(  c #54514B",
")  c #5A554E",
"_  c #5C5751",
"`  c #5D5A52",
"'  c #6D5042",
"]  c #695F46",
"[  c #665D49",
"{  c #635E55",
"}  c #746646",
"|  c #766949",
" . c #7C6D4C",
".. c #636057",
"X. c #666359",
"o. c #69645B",
"O. c #6C695E",
"+. c #796150",
"@. c #736A57",
"#. c #7B725A",
"$. c #6E6B61",
"%. c #726E63",
"&. c #757166",
"*. c #797467",
"=. c #777569",
"-. c #7A766A",
";. c #7D796C",
":. c #823C23",
">. c #834027",
",. c #83432A",
"<. c #84503A",
"1. c #826934",
"2. c #896F36",
"3. c #8A6E38",
"4. c #8B7037",
"5. c #8C713A",
"6. c #917439",
"7. c #97793C",
"8. c #9B7D3E",
"9. c #845A45",
"0. c #8F5840",
"q. c #8B624D",
"w. c #81724C",
"e. c #856A57",
"r. c #856F5D",
"t. c #837550",
"y. c #9E765E",
"u. c #827D6E",
"i. c #857463",
"p. c #827D70",
"a. c #9F803F",
"s. c #918766",
"d. c #92806E",
"f. c #948B6B",
"g. c #868273",
"h. c #898576",
"j. c #8D897A",
"k. c #908D7D",
"l. c #9D8E7B",
"z. c #94917F",
"x. c #A88870",
"c. c #A59D7F",
"v. c #949281",
"b. c #999685",
"n. c #9B9886",
"m. c #9E9D8B",
"M. c #A59E82",
"N. c #AA9C87",
"B. c #A19E8C",
"V. c #A3A18E",
"C. c #ADA78A",
"Z. c #B6A58D",
"A. c #A5A391",
"S. c #AAA793",
"D. c #ACAA96",
"F. c #AEAE9B",
"G. c #B0AE97",
"H. c #B4B39E",
"J. c #B8B49C",
"K. c #B6B5A0",
"L. c #B8B7A2",
"P. c #BBBAA5",
"I. c #BEBEA8",
"U. c #C1BBA3",
"Y. c #C3C3AC",
"T. c #C7C7B0",
/* pixels */
"                                                                        g.g.-.^ e e e                                           ",
"                                                                      g.h.k.k.o.Q r e                                           ",
"                                                                    g.g.h.S.L.k.$.k e e                                         ",
"                                                                    g.g.g.n.V.k.$.w , ,                                         ",
"                                                                    p.g.g.g.g.g.o.2 O o                                         ",
"                                                                    ) ( ) &.g.g.p.p.p.;.( . .                                   ",
"                                                                    e B ( o.;.h.B.I.Y.U.%.> >                                   ",
"                                                                    e $.m.&.` b.P.Y.K.n.u.{ o.                                  ",
"                                                                    r &.H.g.&.F.I.L.b.&.%.%.%.                                  ",
"                                                                    r ..j.A.K.I.L.b.&.E E E B                                   ",
"                                                                  f 1 B o.z.D.D.B.j.X.r e e e                                   ",
"                                                            :.:.:.i O , r O.h.h.h.g.X.r                                         ",
"                                                          :.:.:.:.z u 3 , V ..*.=...V ,                                         ",
"                                                        x c :.,.,.>.:.u O < k o.X.B 2 O                                         ",
"                                                      e 3 t ' e.e.9.>.z i - > 7 q > - i                                         ",
"                                                    q 6 6 7 o.g.g.r.<.,.:.y % 7 7 % g 0.                                        ",
"                                                  e 1 @ V %.u.p.g.u.i.9.:.c H u.d.H q.Z.                                        ",
"                                                  6 6 h { g.g.g.g.g.g.+.l x J l.N.y.x.Y.                                        ",
"                                                  X k *.u.g.g.g.g.g.g.{ h h W *.n.J.U.                                          ",
"                                                  . ~ B.z.g.g.g.g.g.h.) 2 W X.-.k.B.S.                                          ",
"                                                  . _ P.V.h.h.h.h.g.u.~ o ) g.h.h.g.g.                                          ",
"                                                + . 7 _ h.D.D.D.G.h.! w 1 { h.B.B.j.g.                                          ",
"                                              = & O . . o.D.D.D.D.-.4 5 W &.b.L.H.g.*.                                          ",
"                                              = + O . . 5 W V V W k 6 ! %.b.L.Y.A...^                                           ",
"                                              = & X . . % p 3 ; t 8 e ( %.b.H.H.v.Q r                                           ",
"                                              = & X . . v 3.4.3.5.P j k W &.k.k.*.E e                                           ",
"                                                + X . . S 8.a.a.a.R j e r X.u.$.` E                                             ",
"                                                  . . . S a.a.a.a.R M e r X.*.( r                                               ",
"                                                  . . . S 8.5.1.1.S 4 6 r ^ ) B e                                               ",
"                                                  . . . n 7.Y L L m $ 2 q q q e r                                               ",
"                                                  . . . a Y  .#.#.@.{ k > # > 1                                                 ",
"                                                  5 5 5 s K #.g.g.g.g._ < # .                                                   ",
"                                                  O.O.O./ B O.g.g.g.g.-.O.w .                                                   ",
"                                                g.g.h.g.=.$.O.%.u.g.g.*.o.N :                                                   ",
"                                              g.g.g.g.g.V.G.O.^ &.g.g.X.k b S                                                   ",
"                                              g.j.B.V.V.S.V.=.{ { ....[ P Y 1.I                                                 ",
"                                              h.b.P.Y.T.V.g.g.=.Q e e P a.a.7.Y F                                               ",
"                                              G.D.V.B.B.z.h.B.l.] K T 5.a.a.8.5.4.                                              ",
"                                              J.D.z.k.k.k.z.C.V.} G 6.8.a.a.8.8.7.                                              ",
"                                              t.s.D.H.H.H.G.f.| A Z G 5.a.a.8.1.Y                                               ",
"                                              F w.c.C.C.C.c.} s j M n U 5.6.4.U F                                               ",
"                                                  } R } R T d * 0 e r Z G G G                                                   ",
"                                                  F F F v p + @ 6 e e M b a a                                                   ",
"                                                        X X . @ 9 e e e w , .                                                   ",
"                                                        . . . , ^ ( r e e 1                                                     ",
"                                                        X O @ q &.&.E r e                                                       ",
"                                                      . > 6 Q $.m.b.&.) e                                                       ",
"                                                    o o 1 k $.v.H.H.b.*._                                                       ",
"                                                  . > 6 q B $.v.L.Y.L.H.S.                                                      ",
"                                                @ # 2 e e r ) =.A.L.Y.T.T.                                                      ",
"                                          . . . # 6 e e e r r ^ -.m.I.T.                                                        ",
"                                          h k 6 1 q e e e e 1 6 W O.L.                                                          ",
"                                  r r < X ( =.^ e e e q e q # . . .                                                             ",
"                                  o.X.W 1 E _ .._ k 1 , , > X . . .                                                             ",
"                                  g.g.o.E k E %.&.E , X . . . . . .                                                             ",
"                                  g.g.;.$.^ E %.;.  # X . . . .                                                                 ",
"                                  b.b.b.v.{ B o.g.    . . . @ @                                                                 ",
"                                  P.P.P.L.%.r         . . X < q                                                                 ",
"                                  T.T.T.T.h.e         , > , < 1 q                                                               ",
"                                  T.T.T.T.            q w q # @ 6 e                                                             ",
"                                                      , , , k ( ` _ k e e                                                       ",
"                                                      . X # { g.g.$.W r e                                                       ",
"                                                      . # q o.g.g.;.$.( e                                                       ",
"                                                      . , B O.g.g.g.g.{ e                                                       "
};
