/* XPM */
static char *R_F91676373413[] = {
/* columns rows colors chars-per-pixel */
"64 64 162 2 ",
"   c None",
".  c #1A0E13",
"X  c #1D1215",
"o  c #1F1418",
"O  c #231315",
"+  c #251915",
"@  c #291C16",
"#  c #20161A",
"$  c #241B1E",
"%  c #2A1C19",
"&  c #381613",
"*  c #2F241D",
"=  c #312517",
"-  c #362917",
";  c #33241A",
":  c #3E241F",
">  c #3C2D1C",
",  c #34291B",
"<  c #3E301A",
"1  c #271F21",
"2  c #2A1F22",
"3  c #2B2324",
"4  c #2D2728",
"5  c #2F292A",
"6  c #342923",
"7  c #322728",
"8  c #322C2C",
"9  c #382E2D",
"0  c #383026",
"q  c #34302F",
"w  c #3D342A",
"e  c #363332",
"r  c #3A3533",
"t  c #3A3836",
"y  c #3D3B38",
"u  c #491D16",
"i  c #45201A",
"p  c #56281C",
"a  c #5E2C1D",
"s  c #44341E",
"d  c #4A3A1E",
"f  c #422A26",
"g  c #493623",
"h  c #4F3E20",
"j  c #48342F",
"k  c #423524",
"l  c #533025",
"z  c #513F24",
"x  c #403635",
"c  c #423C35",
"v  c #423E3A",
"b  c #593C32",
"n  c #723520",
"m  c #544223",
"M  c #5B4925",
"N  c #574A2F",
"B  c #5A4C2E",
"V  c #4B4132",
"C  c #44413D",
"Z  c #4A423D",
"A  c #524632",
"S  c #5B4D30",
"D  c #534C3C",
"F  c #614E27",
"G  c #604F2C",
"H  c #64512B",
"J  c #69552B",
"K  c #6B582F",
"L  c #735D2E",
"P  c #6D4130",
"I  c #6B5C3A",
"U  c #775F30",
"Y  c #7B6331",
"T  c #72623E",
"R  c #7C673C",
"E  c #464440",
"W  c #4B4641",
"Q  c #4D4A45",
"!  c #514E49",
"~  c #5E5644",
"^  c #54524C",
"/  c #59554E",
"(  c #5A5750",
")  c #5D5A52",
"_  c #644A40",
"`  c #6A5E47",
"'  c #615D54",
"]  c #736442",
"[  c #786845",
"{  c #646157",
"}  c #66635A",
"|  c #69655B",
" . c #6D695E",
".. c #746655",
"X. c #766E57",
"o. c #796D51",
"O. c #706A5F",
"+. c #7D695B",
"@. c #7D745C",
"#. c #6F6C61",
"$. c #716D62",
"%. c #767166",
"&. c #797364",
"*. c #77756A",
"=. c #7A7669",
"-. c #7D7A6D",
";. c #833C22",
":. c #83432B",
">. c #844B34",
",. c #8A4A31",
"<. c #84543E",
"1. c #806634",
"2. c #806833",
"3. c #836C3B",
"4. c #8E7238",
"5. c #92763A",
"6. c #97793C",
"7. c #9C7E3E",
"8. c #845742",
"9. c #8F5940",
"0. c #826E41",
"q. c #85604C",
"w. c #85744F",
"e. c #967C46",
"r. c #997D42",
"t. c #856956",
"y. c #9C6F56",
"u. c #81775B",
"i. c #8B715E",
"p. c #857463",
"a. c #817A67",
"s. c #837D6C",
"d. c #827E70",
"f. c #9F803F",
"g. c #888068",
"h. c #92876A",
"j. c #958A69",
"k. c #868273",
"l. c #898475",
"z. c #8C877A",
"x. c #8D8B7B",
"c. c #908D7D",
"v. c #93907F",
"b. c #969484",
"n. c #989684",
"m. c #9B9886",
"M. c #9D9B8A",
"N. c #A49C80",
"B. c #A19E8D",
"V. c #A3A18E",
"C. c #B6A78F",
"Z. c #A6A491",
"A. c #A9A793",
"S. c #ACAA96",
"D. c #ADAC99",
"F. c #B1AF9B",
"G. c #B4B39E",
"H. c #B7B6A1",
"J. c #BBBBA5",
"K. c #BEBEA8",
"L. c #C3C3AD",
"P. c #C7C7B0",
/* pixels */
"                                                                        k.l.=.Q t t t                                           ",
"                                                                      k.l.c.c.| Q x t                                           ",
"                                                                    l.k.l.A.H.b.| E t t                                         ",
"                                                                    l.k.k.m.V.x.#.e 4 2                                         ",
"                                                                    d.d.k.k.k.k.| 3 O O                                         ",
"                                                                    ( ( / %.k.k.d.s.$.( x . .                                   ",
"                                                                    t E ^  .-.l.B.K.S.l.! 3 2                                   ",
"                                                                    e #.M.$.) n.J.L.S.k.&.| |                                   ",
"                                                                    t -.L.x.#.M.H.G.b.$.$.$.$.                                  ",
"                                                                    y -.L.J.D.n.b.x.%.E E E E                                   ",
"                                                                  l 5 ( b.M.A.c.k.k.} y t t t                                   ",
"                                                            ;.;.;.a O 4 v | l.k.k.k.} y                                         ",
"                                                      ;.;.;.;.;.;.n p : 3 Z } =.*.} Z 3                                         ",
"                                                      ;.;.:.:.;.;.;.;.p O 4 v } } C 3 X                                         ",
"                                                  ;.;.;.<.t.t.q.:.;.;.n a : 3 9 q 3 % &                                         ",
"                                                  >.>.>.t.l.l.p.8.>.;.,.9.b 7 7 9 r f u i                                       ",
"                                                  p.p.p.s.d.k.s.s.q.:.y.C.l. . .-.m.t.u f t t                                   ",
"                                                  m.c.l.k.l.k.k.k.+.n i.F.Z.m.M.m.m...u f t t                                   ",
"                                                  L.A.l.k.k.k.k.k.O.v ' x.S.L.K.B.( x u f t t                                   ",
"                                                  %.l.B.b.d.k.s.| ' ' $.k.m.Z.x.$.E E P Z t t                                   ",
"                                                  O ' J.V.l.l.*.Q ^ s.l.l.d.=.! y y ( d.) t t                                   ",
"                                                Y z A ' l.S.S.b.^ { Z.n.d.l.=.! E ) %.k.) t t                                   ",
"                                              f.5.U m %  .S.D.n.( } D.A.c.c.d.) ( -.-.*./ t t                                   ",
"                                            f.f.7.5.U m V W ( ( C ( x.A.H.H.S.d.%.d.' e e                                       ",
"                                          5.5.6.f.f.1.m ; X 8 t t Q #.b.D.D.A.k. .| Z +                                         ",
"                                          L Y 5.f.f.K % O X 5 t t y C #.x.b.k.( t 4 * =                                         ",
"                                          o.[ 3.1.K g X . . 1 8 e t t Q } } ) t 3 X + -                                         ",
"                                        k.k.a.T m % . . . . . # q t t t y t e 1 . . + -                                         ",
"                                        k.k.s.@.` 6 . . ; s s k r t t t t t e o O + ; 0                                         ",
"                                        k.k.k.k.l.    . s J J G V y t C E E y 5 3 , 0 t                                         ",
"                                        k.k.k.k.k.    . s J J J B B N X.n.-.$.d.$.C e t                                         ",
"                                        k.k.k.=.&.    7 A I K J J J J h.P.A.M.J.B.! t t e                                       ",
"                                        k.k.-.( W      .&.t.] J J J J j.P.K.G.P.B.! t t 3 . .                                   ",
"                                         . .} D D   k.k.c.b.u.] ] I B ..z.z.z.z.%.E e 5 1 . .                                   ",
"                                        C y C S I a.k.k.Z.J.n.s.g. .C q $ 3 * 3 4 e 5 o . . .                                   ",
"                                      R I I I K ] a.k.k.A.L.m.=.( E r q 3 o . . X 3 6 < > 0 >                                   ",
"                                  f.f.f.f.f.6.Y ] a.l.l.A.K.B.#.8 $ e t t 3 . . X . - J J J J                                   ",
"                                  Y Y 4.f.f.f.w.g.V.D.D.Z.Z.A.z.9 1 e t t 8 3 o X @ - d M J J                                   ",
"                                  J J 2.6.6.f.j.M.G.K.K.m.d.F.B.r 1 e t t t e 1 % > < < h F F                                   ",
"                                      Y Y Y 0.v.S.m.n.b.b.z.F.B.x $ e t t t r q w m M M h s s                                   ",
"                                        J J T g.n.n.n.n.n.n.n.d.r 3 r t t t t t c B H J m - -                                   ",
"                                              9 ( A.K.J.J.F.' 8 e e t t t t t t t y A J H                                       ",
"                                                v $.d.d.d.%.r O 2 8 r t t t y ! ( / ~ J                                         ",
"                                                  o X o O X X . . 1 e t t t Z #.k.k.s.                                          ",
"                                                  . . . . . . . . 8 ) ' } %.z.B.A.A.A.                                          ",
"                                                  . . . . . X X X r $.d.l.A.L.L.P.L.P.                                          ",
"                                                  X . . . X 3 5 8 r ! #.l.c.V.J.P.P.P.                                          ",
"                                                  . . . o o 8 t t t t ^ *.-.c.A.J.L.                                            ",
"                                              . . . . . 3 8 e t t t t C Q #.l.c.n.                                              ",
"                                              . . . 2 r t t t t t t t t t /  .-.                                                ",
"                                              . . . x =.( t t t t t t t t y C                                                   ",
"                                            . . o 3 x ' ' ) ) ^ v t t t t t                                                     ",
"                                          . . . $ e t y { k.k.%.Q t                                                             ",
"                                        . . X 3 t ) } | ) / #.                                                                  ",
"                                      o o o o 5 Q =.l.x.#.^                                                                     ",
"                                  . . 3 8 5 5 3 x &.n.G.S.n.} t                                                                 ",
"                                  . . $ 8 8 5 3 e $.A.P.P.J.k.'                                                                 ",
"                                  . . X o o o 5 r     P.P.P.J.G.                                                                ",
"                                  1 1 1 3 3 1 5 4     P.P.P.P.                                                                  ",
"                                  t t t e t q o .       P.P.                                                                    ",
"                                      5 4 W ' ^ Q v                                                                             ",
"                                        O / k.k.$.Z t                                                                           ",
"                                          $.k.k.$.E t                                                                           ",
"                                          k.k.k.$.E t                                                                           "
};
