/* XPM */
static char *R_FX1676373413[] = {
/* columns rows colors chars-per-pixel */
"64 64 176 2 ",
"   c None",
".  c #1A0E13",
"X  c #1D1216",
"o  c #1F1418",
"O  c #231514",
"+  c #261915",
"@  c #2A1D17",
"#  c #201619",
"$  c #241B1D",
"%  c #2A1D1B",
"&  c #2A1617",
"*  c #3A1714",
"=  c #301A19",
"-  c #2F2216",
";  c #2F231B",
":  c #332617",
">  c #362917",
",  c #35261B",
"<  c #3C221E",
"1  c #3B2C1B",
"2  c #3E301B",
"3  c #271E20",
"4  c #291E20",
"5  c #272022",
"6  c #2B2325",
"7  c #2D2728",
"8  c #2E2929",
"9  c #312726",
"0  c #312824",
"q  c #3B2E22",
"w  c #322728",
"e  c #332D2C",
"r  c #392F2E",
"t  c #34302F",
"y  c #3F392F",
"u  c #3E3227",
"i  c #363231",
"p  c #3A3534",
"a  c #3A3836",
"s  c #3E3B39",
"d  c #481A13",
"f  c #461E17",
"g  c #43241E",
"h  c #49211B",
"j  c #52271B",
"k  c #5E2D1E",
"l  c #46361E",
"z  c #47381D",
"x  c #48391E",
"c  c #71341F",
"v  c #472921",
"b  c #562F26",
"n  c #4E3D20",
"m  c #473C2C",
"M  c #483430",
"N  c #443B34",
"B  c #423D3B",
"V  c #4C3C37",
"C  c #573F36",
"Z  c #523F38",
"A  c #6B3B29",
"S  c #783821",
"D  c #534222",
"F  c #594724",
"G  c #5F4C27",
"H  c #514128",
"J  c #5C4D2D",
"K  c #44413E",
"L  c #494138",
"P  c #5F4F32",
"I  c #5A4138",
"U  c #534A38",
"Y  c #514738",
"T  c #614E27",
"R  c #63512A",
"E  c #69552A",
"W  c #6E592C",
"Q  c #735D2E",
"!  c #784833",
"~  c #645533",
"^  c #6F5D35",
"/  c #6B5C3E",
"(  c #7C6431",
")  c #7E6837",
"_  c #464440",
"`  c #4A4641",
"'  c #4C4A45",
"]  c #4F4E48",
"[  c #524C47",
"{  c #524F49",
"}  c #55524C",
"|  c #5A544D",
" . c #5A5750",
".. c #5D5A52",
"X. c #675D4F",
"o. c #615D54",
"O. c #736544",
"+. c #786740",
"@. c #76694B",
"#. c #786C4F",
"$. c #7E6B40",
"%. c #656157",
"&. c #696354",
"*. c #656359",
"=. c #6A665C",
"-. c #6D695F",
";. c #796150",
":. c #77705C",
">. c #7B705C",
",. c #6E6B61",
"<. c #726D62",
"1. c #757166",
"2. c #7A7464",
"3. c #797569",
"4. c #7D7A6D",
"5. c #7B7768",
"6. c #7E7D71",
"7. c #833C22",
"8. c #84442B",
"9. c #844B33",
"0. c #89523A",
"q. c #826735",
"w. c #856B35",
"e. c #896E36",
"r. c #856E3E",
"t. c #886F3D",
"y. c #8C7137",
"u. c #8E733A",
"i. c #95793C",
"p. c #9C7E3E",
"a. c #94773B",
"s. c #855A44",
"d. c #895A44",
"f. c #84744C",
"g. c #856E5C",
"h. c #837363",
"j. c #877769",
"k. c #827C6D",
"l. c #827E70",
"z. c #A37E65",
"x. c #9F803F",
"c. c #87816F",
"v. c #8B846C",
"b. c #978A65",
"n. c #868273",
"m. c #898575",
"M. c #8B8778",
"N. c #8D8A7B",
"B. c #868578",
"V. c #918E7E",
"C. c #9F8A75",
"Z. c #95907B",
"A. c #A19A7C",
"S. c #908F80",
"D. c #959282",
"F. c #999685",
"G. c #9B9887",
"H. c #9C9B8A",
"J. c #A19F8D",
"K. c #A09C87",
"L. c #A3A18E",
"P. c #AAA589",
"I. c #B0A38D",
"U. c #A6A491",
"Y. c #A8A693",
"T. c #AAA995",
"R. c #AFAD99",
"E. c #B1AF9B",
"W. c #B2B19D",
"Q. c #B7B6A1",
"!. c #B8B7A2",
"~. c #BBBBA5",
"^. c #BFBEA8",
"/. c #C0BFA9",
"(. c #C4C4AD",
"). c #C7C7B0",
/* pixels */
"                                                                    n.n.n.3.{ p s a                                             ",
"                                                                    n.m.V.N.*.` s a                                             ",
"                                                                  n.n.M.T.R.N.=._ a a a                                         ",
"                                                                n.n.n.N.L.Y.V.,.B 7 7 7                                         ",
"                                                                n.n.n.n.m.N.m.=.e X X X                                         ",
"                                                                *.*.*.-.5.n.n.4.=.| ` M                                         ",
"                                                                s s a _ -.n.n.D.E.R.M.| $ .                                     ",
"                                                                a s %.4.-.,.V.R./.E.V.:.[ `                                     ",
"                                                                a K N.Q.,. .J.).).W.N.n.n.n.                                    ",
"                                                                a _ S./.H.N.G.L.L.N.*.......                                    ",
"                                                                p s B.~./.Q.F.n.n.,._ a a a                                     ",
"                                                          7.7.7.v 7 ] 3.V.F.N.n.n.,._ a                                         ",
"                                                          7.7.7.j & 9 s o.4.l.l.4.*.B i                                         ",
"                                                  7.7.7.7.7.7.7.S k g 6 B ..2.3...K 6 $                                         ",
"                                                  9.9.9.8.7.7.7.S S j = 0 s ..o.B 7 # O                                         ",
"                                              m.k.h.g.g.s.7.7.7.7.7.S b < % w w 3 & * *                                         ",
"                                              n.n.n.n.n.g.0.8.7.7.7.0.d.C r e i B M h d                                         ",
"                                          n.n.n.n.n.n.n.k.h.s.7.7.7.z.I.l.,.<.4.F.j.b d d                                       ",
"                                          V.D.N.n.n.n.n.n.n.;.A 9.d.C.R.J.K.H.H.G.h.b f g g                                     ",
"                                      E ) P.W.Z.n.n.n.n.n.n.*.N X.j.m.S.R./.~.L.*.V h g r p                                     ",
"                                      w.f.b.A.K.F.B.n.n.3.,.] a o.n.n.M.J.T.F.4.' N C Z a a                                     ",
"                                x.x.x.p.u.) f.I.R.S.n.n.*._ s a o.m.n.m.m.4. .B s { 1.*.K a       E E E E                       ",
"                              f.e.u.x.x.p.y.$.>.n.H.L.L.3.K  .3.V.J.V.n.n.1.{ B } =.k.&.m q       D D T E E                     ",
"                        m.m.n.#.W y.x.x.x.x.q.q _ U.).(.S.K 4.).(.(.J.n.n.3.] ' 1.n.m.X.q > >     1 1 D E E E E                 ",
"                        n.n.n.2.#.) w.i.x.x.q.1 w  .,.,.| a  .6.S.U.U.U.U.H.1.=.4.<.} N 1 > 1 l E F D n D T E E                 ",
"                        n.n.n.n.n.@.^ w.x.x.q.q . . . . 5 p a a o.m.T.(.).Q.D.l.k.o.; + : : : n E E T z 2 F E E                 ",
"                        n.n.n.n.n.X.Y ^     E @ . . . . 5 p a a ' ..n.J.J.D.,.} K N ; - > - + n E D z 2 2 F E E                 ",
"                        n.n.n.n.c. .a         . . . . . 3 t p a p s o.6.4.,.' 8 o O : : : @ o 2 G z : > 2 D R R                 ",
"                          n.n.n.n.| a         . . . . . X 3 8 a a s ` } } ' e # X O - - O ; 8 7 > - + - > l z z                 ",
"                            3.3.1.| L         . . . X + & + 7 a a a a a p i # . X O - - o 6 a 7 o # O @ : : > >                 ",
"                            { { ] U J R E         . = n D n m a a a p a s e 3 .   o X ; 8 i a i e 8 8 ; O -                     ",
"                            U Y U ~ Q Q E         . , T E E P N L L {  .{ ` B B     o 6 a a a a a a i 5 .                       ",
"                            t.t.t.u.y.( E         . > T E E P T J P v.P.n.4.V.J.    e i a a a a a a p 8                         ",
"                            y.p.x.x.p.w.E         u L X.^ E E E E W Z.(.T.J.!.).    a a a a a a a a a                           ",
"                            Q e.x.x.p.            <.2.h.#.W E E E ^ Z.).^.^.(.).        a a a a a a                             ",
"                            E ( y.y.y.          n.n.N.G.v.;.O.O.P H >.F.D.D.N.B.        a a a a a                               ",
"                              W W W Q         n.n.n.F.!.U.l.j.l.Y + y K ' K t 6                                                 ",
"                                E E E       !.Y.L.J.U.T.U.J.l.} a 5 t a a i 7 5 t                                               ",
"                                          ).(.(.(.(.E.V.J./.1.3 7 a a a a a a a a a                                             ",
"                                          Y.Y.Y.U.Y.U.U.S.1.' 4 e a a a a a a a a a a                                           ",
"                                          n.n.n.M.l.K./.l.3 4 s a a a a a a a a a a a a                                         ",
"                                          T.J.V.l.l.K./.k.# 4 a a a a a a a a a a a a a p                                       ",
"                                          ).!.F.M.M.K.!.3.# 4 a a a a a a a a p s K _ _ _ _                                     ",
"                                            ~.E.R.R.S.o.B X 4 s a a a a a a a _ ..1.B.S.S.D.                                    ",
"                                              E.R.R.4.6 . . 3 i i i i i i a B } 3.H.~.).).).                                    ",
"                                              [ [ [ p # . . X 3 $ $ 3 $ # 8 | <.6.F.~.).).).                                    ",
"                                              . . . . . . . . . . X . . . 6 | <.1.M.R.!.!.!.                                    ",
"                                              . . . . . . . . . .           e N ` *.N.F.F.F.                                    ",
"                                              # # X . . . . . .             . # t ' *.<.<.<.                                    ",
"                                          . o 7 8 o . . . . .               . # t B _ ' ` '                                     ",
"                                          # 6 i i 6 # 3 o . .               3 6 i a a a a                                       ",
"                                    . . o 8 p a p i i i 6 X .           . # 8 i a a a a                                         ",
"                                  . . . o 5 8 p B { | | B #             . # e p a a a a                                         ",
"                            . . . . . . X X # e ] <.k.l.4.              . # e p a a a a                                         ",
"                          3 . . . . . . . . X 5 B <.m.l.n.            3 N B s a a a a                                           ",
"              . . . . $ a 7 . . . . . . . . . . i <.n.m.n.          . 3 o.1.] a a a                                             ",
"              6 6 3 O 3 i 7 . . . . . . . .                         . # K o.o.o...%.                                            ",
"              s s e $ 4 i 7 . . . . . . .                           X o e ` ,.n.l.l.                                            ",
"              *.*.o.| B 6 6 7 $ X .                                 . # ` *. . . . .                                            ",
"              n.n.n.m...3 6 p 6 X                                   . 4 o.3.| K ' ]                                             ",
"              n.n.n.n.*.i e                                             1.4.1.1.N.L.~.                                          ",
"              n.n.l.3.*.B                                               n.m.N.H.~.).).).                                        ",
"              n.n.1. .'                                                     R.!.(.).).).                                        ",
"              n.n.,._ a                                                     ).).).).).).                                        "
};
