/* XPM */
static char *Heart_low_1_1676308986[] = {
/* columns rows colors chars-per-pixel */
"32 32 131 2 ",
"   c None",
".  c black",
"X  c #010000",
"o  c #020000",
"O  c #030101",
"+  c #040101",
"@  c #060000",
"#  c #050202",
"$  c #070202",
"%  c #090000",
"&  c #080101",
"*  c #090101",
"=  c #080202",
"-  c #090202",
";  c #090303",
":  c #0A0202",
">  c #0D0000",
",  c #0E0404",
"<  c #100000",
"1  c #120303",
"2  c #150000",
"3  c #110505",
"4  c #120404",
"5  c #120505",
"6  c #120606",
"7  c #1D0000",
"8  c #1B0707",
"9  c #1E0808",
"0  c #210000",
"q  c #2E0000",
"w  c #2B0808",
"e  c #310000",
"r  c #3C0000",
"t  c #3E0000",
"y  c #3B0B0B",
"u  c #380D0D",
"i  c #390F0F",
"p  c #3A0E0E",
"a  c #3D0C0C",
"s  c #3D0F0F",
"d  c #3A1111",
"f  c #400000",
"g  c #420000",
"h  c #470606",
"j  c #4C0000",
"k  c #410B0B",
"l  c #460909",
"z  c #4E0F0F",
"x  c #580000",
"c  c #590000",
"v  c #5E0000",
"b  c #401010",
"n  c #421212",
"m  c #461111",
"M  c #4F1111",
"N  c #4C1212",
"B  c #4D1212",
"V  c #4C1515",
"C  c #4F1515",
"Z  c #571212",
"A  c #531515",
"S  c #501616",
"D  c #511616",
"F  c #521616",
"G  c #531616",
"H  c #571414",
"J  c #561515",
"K  c #551616",
"L  c #541717",
"P  c #551717",
"I  c #561616",
"U  c #571616",
"Y  c #571717",
"T  c #581717",
"R  c #5C1414",
"E  c #5C1616",
"W  c #551818",
"Q  c #581818",
"!  c #6C0000",
"~  c #7D0000",
"^  c #791717",
"/  c #7B1E1E",
"(  c #7B1F1F",
")  c #7F1D1D",
"_  c #7E1E1E",
"`  c #7C2020",
"'  c #7E2020",
"]  c #7E2121",
"[  c #7F2121",
"{  c #7C2222",
"}  c #7D2222",
"|  c #7D2323",
" . c #7E2222",
".. c #7F2222",
"X. c #7E2323",
"o. c #7F2323",
"O. c #7D2424",
"+. c #7E2424",
"@. c #870000",
"#. c #860202",
"$. c #890000",
"%. c #8D0000",
"&. c #8B0404",
"*. c #940000",
"=. c #801B1B",
"-. c #801F1F",
";. c #841F1F",
":. c #A30000",
">. c #A70000",
",. c #B20000",
"<. c #B50000",
"1. c #832121",
"2. c #802222",
"3. c #812222",
"4. c #802323",
"5. c #832222",
"6. c #842121",
"7. c #C10000",
"8. c #C50000",
"9. c #CC0000",
"0. c #D40000",
"q. c #F20303",
"w. c #F30303",
"e. c #F60202",
"r. c #F20404",
"t. c #FA0101",
"y. c #FB0101",
"u. c #FD0000",
"i. c #FC0101",
"p. c #FE0000",
"a. c red",
/* pixels */
"          . . . . . . .               . . . . . . . .           ",
"          . . . . . . .               . . . . . . . .           ",
"      . * K K K W K W F w . .     . . u F W W C Q F M * .       ",
"    . . . O.....{ O...{ n . .     . . K O...O.O...O...$ . .     ",
"    . * * ..{ O...O.{ O.n * .     . , K O...O.{ { O.{ 1 * .     ",
". . Z { -...O...O...O...O...( $ . 1.{ O.{ O.{ O.O...O.{ { k . . ",
". . C O.O.{ { O.{ O.O.{ O...O.$ 6 ..O...O.{ O...{ O.{ O.O.N . . ",
". . V O.{ O...O.O.O...O.{ O...6 9 ....O...O.{ O.O...O...O.M . . ",
". . C ..O.{ O.{ O...O.{ O.{ ..O.O...O.{ O.{ O.{ { O.{ O...m . . ",
". . K O.{ O...O.{ O.{ O...O.O.{ ..O.{ O.{ O...O.O.{ O.{ O.i . . ",
". . F ..O...O...O.{ O...O.{ O.{ O.{ O...O...O.{ ..O.{ O.O.d . . ",
". . F O.{ O.{ O...O.{ O.{ O...O.{ O.{ O.{ O.{ O.O.{ O.....u . . ",
". . K ......O.{ O.{ O.{ O.{ O.{ O.{ O.....{ O.....O.....=.a . . ",
". . F ....O.{ O.{ O...O...O...O...O.O.{ O.....O.O.{ { O...l . . ",
". . F O.O.{ O...O.O.{ { O.{ O.{ ..O...O.{ O...O...O.O.{ ..z . . ",
". . R ....O.O.O.....O.....O.{ O.O.{ O.{ O.{ O.{ O.{ ...._ h . . ",
"    . $ 8 { O...O.{ O.O.O.{ O...{ O...O.{ O.{ O.{ O...6 $ .     ",
"    . . 6 O.......O...O.{ O...O.O.{ O.{ O...O...O.{ ..* . .     ",
"    . . * ^ ( -.1.1.1.1.1.1.....1.........O.O...E a u $ . .     ",
"          . $ <.p.t.p.p.p.t.t.p.t.t.w.r.w.w.&.@.j . .           ",
"          . . <.p.p.p.p.p.p.p.p.p.p.p.p.p.p.%.@.j . .           ",
"              f c ~ p.p.p.p.p.p.p.p.p.0.:.:.t q 7               ",
"              . . t p.p.p.p.p.p.p.p.p.8.$.@.2 . .               ",
"              . . t p.p.p.p.p.p.p.p.p.8.@.@.2 . .               ",
"                  . . . 9.p.p.p.p.*.@.v . .                     ",
"                  . . . 9.p.p.p.p.*.@.v . .                     ",
"                    . . $.>.,.7.7.! c f . .                     ",
"                        . . e $.$.0 . .                         ",
"                        . . e @.@.0 . .                         ",
"                            2 q q 1                             ",
"                            . . .                               ",
"                            . . .                               "
};
