/* XPM */
static char *Heart_mid1676308986[] = {
/* columns rows colors chars-per-pixel */
"32 32 134 2 ",
"   c None",
".  c black",
"X  c #010000",
"o  c #020000",
"O  c #030101",
"+  c #050101",
"@  c #070202",
"#  c #080000",
"$  c #090101",
"%  c #0A0000",
"&  c #080202",
"*  c #090202",
"=  c #0E0404",
"-  c #100000",
";  c #150000",
":  c #160000",
">  c #110505",
",  c #120505",
"<  c #120606",
"1  c #150404",
"2  c #1B0000",
"3  c #1D0000",
"4  c #1C0101",
"5  c #1E0808",
"6  c #210000",
"7  c #2E0000",
"8  c #280505",
"9  c #2F0707",
"0  c #2B0808",
"q  c #310000",
"w  c #3C0000",
"e  c #3E0000",
"r  c #3D0808",
"t  c #380D0D",
"y  c #380F0F",
"u  c #3A0E0E",
"i  c #3D0C0C",
"p  c #391010",
"a  c #400000",
"s  c #420000",
"d  c #470404",
"f  c #490000",
"g  c #4C0000",
"h  c #580000",
"j  c #590000",
"k  c #5E0000",
"l  c #401010",
"z  c #461111",
"x  c #4F1111",
"c  c #4C1212",
"v  c #4D1212",
"b  c #4C1515",
"n  c #4F1515",
"m  c #571212",
"M  c #531515",
"N  c #501616",
"B  c #521616",
"V  c #531616",
"C  c #571414",
"Z  c #561515",
"A  c #551616",
"S  c #541717",
"D  c #551717",
"F  c #561616",
"G  c #571616",
"H  c #571717",
"J  c #581717",
"K  c #551818",
"L  c #581818",
"P  c #6C0000",
"I  c #7D0000",
"U  c #6C1E1E",
"Y  c #781F1F",
"T  c #7A1E1E",
"R  c #7B1F1F",
"E  c #7F1D1D",
"W  c #7F1F1F",
"Q  c #7C2020",
"!  c #7D2222",
"~  c #7D2323",
"^  c #7E2222",
"/  c #7F2222",
"(  c #7E2323",
")  c #7F2323",
"_  c #7E2424",
"`  c #870000",
"'  c #890000",
"]  c #8D0000",
"[  c #860808",
"{  c #840B0B",
"}  c #8B0D0D",
"|  c #940000",
" . c #960000",
".. c #801B1B",
"X. c #801F1F",
"o. c #A20000",
"O. c #A30000",
"+. c #A70000",
"@. c #B20000",
"#. c #B50000",
"$. c #822121",
"%. c #832121",
"&. c #822222",
"*. c #832222",
"=. c #852020",
"-. c #842121",
";. c #852121",
":. c #872020",
">. c #862121",
",. c #C10000",
"<. c #C50000",
"1. c #C70000",
"2. c #CB0000",
"3. c #CC0000",
"4. c #CD0D0D",
"5. c #CF0D0D",
"6. c #D40000",
"7. c #D50B0B",
"8. c #D60B0B",
"9. c #D70B0B",
"0. c #D10C0C",
"q. c #D00D0D",
"w. c #D20C0C",
"e. c #D30C0C",
"r. c #D40C0C",
"t. c #D01C1C",
"y. c #E50000",
"u. c red",
"i. c #FF1A1A",
"p. c #D33F3F",
"a. c #FF5252",
"s. c #D0AAAA",
"d. c #D2ABAB",
"f. c white",
/* pixels */
"          . . . . . . .               . . . . . . . .           ",
"          . . . . . . .               . . . . . . . .           ",
"      . * A A A L A A N 0 . .     . . t K K K n L N M 2 .       ",
"    . . + ~ / / ~ ~ ~ ~ l . .     . . A ~ ~ ~ ~ / ~ ~ 8 . .     ",
"    . + 1 / ~ ~ ~ ~ ~ ~ U < +     + = A ~ ~ ~ ~ ~ ~ / 0 * .     ",
". . m ~ X./ ~ ~ ~ ~ ~ ~ ~ / ~ + . / ~ ~ ~ ~ ~ ~ ~ ~ ~ T Y r . . ",
". . n ~ ~ ~ ~ ~ ~ / ~ ~ ~ ~ ~ * < / / ~ ~ ~ ~ ~ ~ ~ ~ ~ / c . . ",
". . b ~ ~ ~ ~ ~ ~ / ~ ~ ~ ~ ~ < 5 / / ~ ~ ~ ~ ~ ~ ~ ~ ~ ~ c . . ",
". . N / ~ ~ ~ ~ ~ ~ ~ ~ ~ ~ / ~ ~ ~ ~ ~ ~ ~ ~ ~ ~ ~ ~ ~ ~ z . . ",
". . S / ~ ~ ~ ~ ~ ~ ~ ~ ~ ~ ~ ~ ~ ~ ~ ~ ~ ~ ~ ~ ~ ~ ~ ~ ~ p . . ",
". . N / ~ ~ / / ~ ~ ~ ~ ~ ~ ~ ~ ~ ~ ~ ~ ~ ~ ~ ~ ~ ~ ~ ~ ~ p . . ",
". . N ~ ~ ~ ~ / ~ ~ ~ ~ ~ ~ ~ / ~ ~ ~ ~ ~ ~ ~ / ~ ~ ~ ~ / t . . ",
". . A &./ -.-.-.&./ / / &.&.-.-.-.&.-.&.&.&.-.-.-.-.-.W X.i . . ",
". . [ 5.t.s.d.p.w.w.r.7.7.r.7.r.r.w.5.w.w.r.w.w.w.w.w.} [ d . . ",
". . O.u.i.f.f.a.u.u.u.u.u.u.u.u.u.u.u.u.u.u.u.u.u.u.u.| ` f . . ",
". . O.u.i.f.f.a.u.u.u.u.u.u.u.u.u.u.u.u.u.u.u.u.u.u.u.| ` f . . ",
"    . . 2 u.u.u.u.u.u.u.u.u.u.u.u.u.u.u.u.u.u.u.2.` ` * . .     ",
"    . . 2 u.u.u.u.u.u.u.u.u.u.u.u.u.u.u.u.u.u.u.2.` ' * . .     ",
"    . . ; +.+.y.u.u.u.u.u.u.u.u.u.u.u.u.u.u.<.,.| j j * . .     ",
"          . . #.u.u.u.u.u.u.u.u.u.u.u.u.u.u.] ` g . .           ",
"          . . #.u.u.u.u.u.u.u.u.u.u.u.u.u.u.] ` g . .           ",
"              a j I u.u.u.u.u.u.u.u.u.6.O.O.e 7 3               ",
"              . . w u.u.u.u.u.u.u.u.u.<.` ` ; . .               ",
"              . . w u.u.u.u.u.u.u.u.u.<.` ` ; . .               ",
"                  . . . 3.u.u.u.u.| ' k . .                     ",
"                  . . . 3.u.u.u.u.| ` k . .                     ",
"                    . . ' +.@.,.,.P j a . .                     ",
"                        . . q ` ` 6 . .                         ",
"                        . . q ` ` 8 . .                         ",
"                            ; 7 7 %                             ",
"                            . . .                               ",
"                            . . .                               "
};
