/* XPM */
static char *Floor_641675956130[] = {
/* columns rows colors chars-per-pixel */
"64 64 105 2 ",
"   c #111E1F",
".  c #111D1F",
"X  c #111C1E",
"o  c #121D1F",
"O  c #131F20",
"+  c #132021",
"@  c #121F20",
"#  c #111D1E",
"$  c #101C1D",
"%  c #111C1D",
"&  c #101B1C",
"*  c #101B1D",
"=  c #122021",
"-  c #121F21",
";  c #121E20",
":  c #142123",
">  c #152324",
",  c #142223",
"<  c #132122",
"1  c #152325",
"2  c #142224",
"3  c #132022",
"4  c #152224",
"5  c #182628",
"6  c #19282A",
"7  c #182729",
"8  c #162526",
"9  c #131F21",
"0  c #162527",
"q  c #172628",
"w  c #172729",
"e  c #162426",
"r  c #172527",
"t  c #1A2A2C",
"y  c #1C2C2E",
"u  c #1B2B2D",
"i  c #132123",
"p  c #1B2C2E",
"a  c #1A2B2C",
"s  c #182728",
"d  c #19292A",
"f  c #1D2D2F",
"g  c #1C2D2F",
"h  c #19292B",
"j  c #152426",
"k  c #182829",
"l  c #1D2E30",
"z  c #1A2A2B",
"x  c #1B2B2C",
"c  c #18282A",
"v  c #1E2F31",
"b  c #192A2C",
"n  c #1C2E30",
"m  c #1E3032",
"M  c #1F3133",
"N  c #1D2F31",
"B  c #1A2B2D",
"V  c #1D3032",
"C  c #1B2C2D",
"Z  c #121E1F",
"A  c #1A2C2E",
"S  c #1B2D2F",
"D  c #172526",
"F  c #142122",
"G  c #192829",
"H  c #121D1E",
"J  c #162627",
"K  c #1D3133",
"L  c #1F3234",
"P  c #213537",
"I  c #223739",
"U  c #1F3335",
"Y  c #213638",
"T  c #203436",
"R  c #203335",
"E  c #203234",
"W  c #213536",
"Q  c #1D2F30",
"!  c #203537",
"~  c #23383A",
"^  c #243A3C",
"/  c #223638",
"(  c #23393B",
")  c #233739",
"_  c #24393B",
"`  c #162425",
"'  c #1E3133",
"]  c #162628",
"[  c #1B2A2C",
"{  c #1E3234",
"}  c #1A292B",
"|  c #162325",
" . c #213436",
".. c #223537",
"X. c #142022",
"o. c #172627",
"O. c #213637",
"+. c #1B2D2E",
"@. c #1D3031",
"#. c #172728",
"$. c #101D1E",
"%. c #0F1B1C",
"&. c #1E3132",
"*. c #0F1A1B",
"=. c #152425",
/* pixels */
"              . X X X o O + + @       # $ $ # . X X X % & & & $ #             . X X X #   # $ * X X X % & $ #             # $ & ",
"= = = = = = = - ; o o O : > > , < = = @ # # @ - ; o o . % $ $ # @ = = = = = = - ; o o ; - @ # % . o o . % # @ = = = = = = @ # $ ",
"1 1 1 1 1 1 1 2 : 3 3 4 5 6 6 7 8 1 1 , @ @ , 2 : 3 3 9   # # @ , 1 1 1 1 1 1 2 : 3 3 : 2 , @   9 3 3 9   @ , 1 1 1 1 1 1 , @ # ",
"0 0 q w 7 7 7 q e 1 1 r t y y u 6 7 7 0 i i 0 w r e e e > : + i 0 7 7 7 7 7 7 q e 1 1 e q q 1 > e e e > = = 1 0 0 0 0 0 0 1 =   ",
"0 q 6 t u p p a 6 s s d p f f g y p p h e e h p u u u u t 6 j e h p p p p p p a 6 s s 6 a u t t u u u k < = 1 0 0 0 0 0 0 1 =   ",
"0 w t y f l l g a z z a g l l l l l l p 7 7 p l l l l l l p 7 7 p l l l l l l g a z z a g l l l l l l t , = 1 0 0 0 0 0 0 1 =   ",
"0 w t y f l l g u x x u g l l l l l l y h h y l l l l l l y h h y l l l l l l g u x x u g l l l l l l t , = 1 0 0 0 0 0 0 1 =   ",
"w c t y f l l g p u p g l v v v v v v g b b g l l l l l l y h b g v v v v v v l g p u y f l l l l l l t , + j q q q q q q j +   ",
"t t p g l l l g p p g n m M M M M M M N t b g l l l l l l y h t N M M M M M M m n g p y f l l l l l l t > < 0 7 7 7 7 7 7 0 < @ ",
"k 6 h t p y y p u B p n V m m m m m m n b h u y y y y y y u h b n m m m m m m V n p B u p y y y y C u k : + e q q q q q q e + Z ",
"< , > 8 c h h h 6 h b A S g g g g g g p c 7 h h h h h h h h 7 c p g g g g g g S A b h 6 h h h h 6 s D 4 @ Z F > > > > > > F Z # ",
"< < 2 8 c b b b t B A S N V V V V V V g h c b B B B B B B b c h g V V V V V V N n p u u p S S p B z G 8 + O > e e e e e e > O H ",
"J q c t p g g g N V K L P I I I I I I U p t n V V V V V V n t p U I I I I I I Y T R E R P Y Y P P W T Q 8 > 6 u u u u u u 6 4 + ",
"c h B g l l l v L U U ! ~ ^ ^ ^ ^ ^ ^ / N g L T T T T T T L g N / ^ ^ ^ ^ ^ ^ ( I / / ) _ ^ ^ ^ ^ ^ ^ T G D u l l l l l l x ` F ",
"c h B g l l l v L U U ! ~ ^ ^ ^ ^ ^ ^ I M ' Y ~ ~ ~ ~ ~ ~ Y ' M I ^ ^ ^ ^ ^ ^ ( I / / ) _ ^ ^ ^ ^ ^ ^ W z s C l l l l l l x ` F ",
"w c B y f l l v L U U ! ~ ^ ^ ^ ^ ^ ^ ~ R R ~ ^ ^ ^ ^ ^ ^ ~ R R ~ ^ ^ ^ ^ ^ ^ ( I / / ) _ ^ ^ ^ ^ ^ ^ P B 6 y l l l l l l x ` F ",
"] 7 t y f l l v L U U ! ~ ^ ^ ^ ^ ^ ^ ~ T T ~ ^ ^ ^ ^ ^ ^ ~ T T ~ ^ ^ ^ ^ ^ ^ ( I / / ) _ ^ ^ ^ ^ ^ ^ P p h y l l l l l l x ` F ",
"0 w t y f l l v L U U ! ~ ^ ^ ^ ^ ^ ^ ~ T T ~ ^ ^ ^ ^ ^ ^ ~ T T ~ ^ ^ ^ ^ ^ ^ ( I / / ) _ ^ ^ ^ ^ ^ ^ P p b g l l l l l l x ` F ",
"0 w t y f l l v L U U ! ~ ^ ^ ^ ^ ^ ^ ~ T T ~ ^ ^ ^ ^ ^ ^ ~ T T ~ ^ ^ ^ ^ ^ ^ ( I / / ) _ ^ ^ ^ ^ ^ ^ P p b g l l l l l l x ` F ",
"j r 6 [ y g g l ' { L T I ( ( ( ( ( ( I T T I ( ( ( ( ( ( I T T I ( ( ( ( ( ( ~ / P P / ~ ( ( ( ( ( ( P p h p g g g g g y } | + ",
"2 1 r 6 [ p p g n V m L P I I I I I I / R R / I I I I I I / R R / I I I I I I / P T T P / I I I I I I R u 6 u p p p p u } 5 : @ ",
"9 F | 5 } u u u p n N L P / / / / / / P E E P / / / / / / P E E P / / / / / / P T R R  .../ / / / / / E u h u p u u u t 6 0 3 ; ",
"$ Z , r } u u u t p N L P / / / / / / P E E P / / / / / / P E E P / / / / / / P T R R  .../ / / / / / R p t p g p u u t 6 0 3 ; ",
"& # , q t y y u t u N L P ) ) ) ) ) ) / R R / ) ) ) ) ) ) / R R / ) ) ) ) ) ) / P  . .P / ) ) ) ) ) ) T n A n n g y y u t 5 : 9 ",
"# = 8 d p f f g u y m T I _ _ _ _ _ _ I T T I _ _ _ _ _ _ I T T I _ _ _ _ _ _ ~ / ..../ ~ _ _ _ _ _ _ Y N S V m l f f g g } | X.",
"  < o.t g l l g p g ' ! ~ ^ ^ ^ ^ ^ ^ ~ T T ~ ^ ^ ^ ^ ^ ^ ~ T T ~ ^ ^ ^ ^ ^ ^ ( I / / ) _ ^ ^ ^ ^ ^ ^ / N n ' ' N l l l l x ` F ",
"  < o.t g l l g p g ' ! ~ ^ ^ ^ ^ ^ ^ ~ T T ~ ^ ^ ^ ^ ^ ^ ~ T T ~ ^ ^ ^ ^ ^ ^ ( I / / ) _ ^ ^ ^ ^ ^ ^ / N n ' ' N l l l l x ` F ",
"= , s a g l l g p g ' ! ~ ^ ^ ^ ^ ^ ^ ~ T T ~ ^ ^ ^ ^ ^ ^ ~ T T ~ ^ ^ ^ ^ ^ ^ ( I / / ) _ ^ ^ ^ ^ ^ ^ / N g m ' N l l l l x ` F ",
"1 0 d u g l l g p g ' ! ~ ^ ^ ^ ^ ^ ^ ~ T T ~ ^ ^ ^ ^ ^ ^ ~ T T ~ ^ ^ ^ ^ ^ ^ ( I / / ) _ ^ ^ ^ ^ ^ ^ Y n p m ' N l l l l x ` F ",
"0 w t y f l l g p g ' ! ~ ^ ^ ^ ^ ^ ^ ~ T T ~ ^ ^ ^ ^ ^ ^ ~ T T ~ ^ ^ ^ ^ ^ ^ ( I / / ) _ ^ ^ ^ ^ ^ ^ O.+.a @.' N l l l l x ` F ",
"0 w t y f l l g p g ' ! ~ ^ ^ ^ ^ ^ ^ ~ T T ~ ^ ^ ^ ^ ^ ^ ~ T T ~ ^ ^ ^ ^ ^ ^ ( I / / ) _ ^ ^ ^ ^ ^ ^ P a d N ' N l l l l x ` F ",
"1 e 7 } u y y p u p N U Y ~ ~ ~ ~ ~ ~ / R R / ~ ~ ~ ~ ~ ~ / R R / ~ ~ ~ ~ ~ ~ I / P P / I ~ ~ ~ ~ ~ I L c #.+.N g y y p u 6 4 + ",
"= 3 , e c h h b b B A n L T T T T T T R M M R T T T T T T R M M R T T T T T T T R E E R T T T T T R L S 8 > c t b h h c o.4 O H ",
"= < , e c b b t A p p n L T T T T T T R M M R T T T T T T R M M R T T T T T T T R E E R T T T T T R L S 8 > 7 b b b b 6 o.> O H ",
"1 8 7 } u g g n V ' ' U Y ~ ~ ~ ~ ~ ~ / R R / ~ ~ ~ ~ ~ ~ / R R / ~ ~ ~ ~ ~ ~ I / P P / I ~ ~ ~ ~ ~ I L d q t g g g g y u 6 4 + ",
"0 w t y f l l v L U U ! ~ ^ ^ ^ ^ ^ ^ ~ T T ~ ^ ^ ^ ^ ^ ^ ~ T T ~ ^ ^ ^ ^ ^ ^ ( I / / ) _ ^ ^ ^ ^ ^ ^ P B 6 y l l l l l l x ` F ",
"0 w t y f l l v L U U ! ~ ^ ^ ^ ^ ^ ^ ~ T T ~ ^ ^ ^ ^ ^ ^ ~ T T ~ ^ ^ ^ ^ ^ ^ ( I / / ) _ ^ ^ ^ ^ ^ ^ P p h y l l l l l l x ` F ",
"0 w t y f l l v L U U ! ~ ^ ^ ^ ^ ^ ^ ~ T T ~ ^ ^ ^ ^ ^ ^ ~ T T ~ ^ ^ ^ ^ ^ ^ ( I / / ) _ ^ ^ ^ ^ ^ ^ P p b g l l l l l l x ` F ",
"0 w t y f l l v L U U ! ~ ^ ^ ^ ^ ^ ^ ~ T T ~ ^ ^ ^ ^ ^ ^ ~ T T ~ ^ ^ ^ ^ ^ ^ ( I / / ) _ ^ ^ ^ ^ ^ ^ P p b g l l l l l l x ` F ",
"0 w t y f l l v L U U ! ~ ^ ^ ^ ^ ^ ^ ~ T T ~ ^ ^ ^ ^ ^ ^ ~ T T ~ ^ ^ ^ ^ ^ ^ ( I / / ) _ ^ ^ ^ ^ ^ ^ P p b g l l l l l l x ` F ",
"0 w t y f l l v L U U ! ~ ^ ^ ^ ^ ^ ^ ~ T T ~ ^ ^ ^ ^ ^ ^ ~ T T ~ ^ ^ ^ ^ ^ ^ ( I / / ) _ ^ ^ ^ ^ ^ ^ P p b g l l l l l l x ` F ",
"1 e 7 } u y y n V ' ' U / ~ ~ ~ ~ ~ ~ / R R / ~ ~ ~ ~ ~ ~ / R R / ~ ~ ~ ~ ~ ~ I / P P / I ~ ~ ~ ~ ~ ~ T A h u y y y y p u 6 4 + ",
"= 3 , e c h h t A S n m U T T T T T T R M M R T T T T T T R M M R T T T T T T T R E E R T T T T T T T ' b 7 h h h h h c o.4 O H ",
"$.  < ` k b b b b A n m U T T T T T T R M M R T T T T T T R M M R T T T T T T T R E E R T T T T T T T ' B c b t b b b 6 o.> O H ",
"%.  > 7 u g g p u S V U / ~ ~ ~ ~ ~ ~ / R R / ~ ~ ~ ~ ~ ~ / R R / ~ ~ ~ ~ ~ ~ I / P P / I ~ ~ ~ ~ ~ ~ P n p n N g g g y u 6 4 + ",
"$ @ 0 } y l l g p g ' ! ~ ^ ^ ^ ^ ^ ^ ~ T T ~ ^ ^ ^ ^ ^ ^ ~ T T ~ ^ ^ ^ ^ ^ ^ ( I / / ) _ ^ ^ ^ ^ ^ ^ / N n ' ' N l l l l x ` F ",
"9 2 7 t g l l g p g ' ! ~ ^ ^ ^ ^ ^ ^ ~ T T ~ ^ ^ ^ ^ ^ ^ ~ T T ~ ^ ^ ^ ^ ^ ^ ( I / / ) _ ^ ^ ^ ^ ^ ^ / N n ' ' N l l l l x ` F ",
"3 > 7 u g l l g p g ' ! ~ ^ ^ ^ ^ ^ ^ ~ T T ~ ^ ^ ^ ^ ^ ^ ~ T T ~ ^ ^ ^ ^ ^ ^ ( I / / ) _ ^ ^ ^ ^ ^ ^ / N n ' ' N l l l l x ` F ",
"@ : #.t g l l g p g ' ! ~ ^ ^ ^ ^ ^ ^ ~ T T ~ ^ ^ ^ ^ ^ ^ ~ T T ~ ^ ^ ^ ^ ^ ^ ( I / / ) _ ^ ^ ^ ^ ^ ^ / N n ' ' N l l l l x ` F ",
"= , s a g l l g p g ' ! ~ ^ ^ ^ ^ ^ ^ ~ T T ~ ^ ^ ^ ^ ^ ^ ~ T T ~ ^ ^ ^ ^ ^ ^ ( I / / ) _ ^ ^ ^ ^ ^ ^ / N S m ' N l l l l x ` F ",
"1 0 d u g l l g p g ' ! ~ ^ ^ ^ ^ ^ ^ ~ T T ~ ^ ^ ^ ^ ^ ^ ~ T T ~ ^ ^ ^ ^ ^ ^ ( I / / ) _ ^ ^ ^ ^ ^ ^ Y g B V ' N l l l l x ` F ",
"j r 6 [ y g g g u p V T I ( ( ( ( ( ( I T T I ( ( ( ( ( ( I T T I ( ( ( ( ( ( ~ / P P / ~ ( ( ( ( ( ( T t h n m l g g g y } | + ",
"2 1 r 6 [ p p u t B n ' P I I I I I I / R R / I I I I I I / R R / I I I I I I / P T T P / I I I I I Y ' c q p n g p p u } 5 : @ ",
": 4 e 7 t u u u t B S m  ./ / / / / / P E E P / / / / / / P E E P / / / / / / P T R R  .../ / / / P T N q e t g p u u t 6 0 3 ; ",
": 4 e 7 t u u u p S n m  ./ / / / / / P E E P / / / / / / P E E P / / / / / / P T R R  .../ / / / P T N 0 1 h p u u u t 6 0 3 ; ",
"4 1 r 6 [ y y g n N N ' P ) ) ) ) ) ) / R R / ) ) ) ) ) ) / R R / ) ) ) ) ) ) / P  . .P / ) ) ) ) I Y &.#.e } y y y y u t 5 : 9 ",
"e r 6 [ y f f l ' { { T I _ _ _ _ _ _ I T T I _ _ _ _ _ _ I T T I _ _ _ _ _ _ ~ / ..../ ~ _ _ _ _ ( ( T a c u f f f f g g } | X.",
"1 0 c t p y y n V ' ' U / ~ ~ ~ ~ ~ ~ / L L / ~ ~ ~ ~ ~ ~ / L L / ~ ~ ~ ~ ~ ~ I P  . .P I ~ ~ ~ ~ ~ ~ T B c u y y y y y y } | + ",
"= : 8 7 h h h t p g g N L T T T T T T L N N L T T T T T T L N N L T T T T T T R L ' ' L R T T T T T T V 7 e c h h h h h h 7 , @ ",
"$.@ , 8 q w w c } t t p N ' ' ' ' ' ' N p p N ' ' ' ' ' ' N p p N ' ' ' ' ' ' m N n n N m ' ' ' ' ' ' g e 2 J w w w w w w 0 < @ ",
"%.# 3 1 0 ] ] q 7 6 6 t g N N N N N N g t t g N N N N N N g t t g N N N N N N l g p p g l N N N N N N u > < j ] ] ] ] ] ] j +   ",
"*.* ; : 2 1 1 =.e 0 0 7 B y y y y y y u h h u y y y y y y u h h u y y y y y y p u t t u p y y y y y p k < @ , 1 1 1 1 1 1 , @ # ",
"*.& X ; - = = + 3 3 3 1 7 h h h h h h h 7 7 h h h h h h h h 7 7 h h h h h h h h 6 6 6 6 h h h h h h 7 1 Z # @ = = = = = = @ # $ ",
"*.& % #         ; ; ; : q c c c c c c 7 q w c c c c c c c 7 q w c c c c c c c c 7 7 7 7 c c c c c w e : # $ #             # $ & "
};
