/* XPM */
static char *Coin_641675956130[] = {
/* columns rows colors chars-per-pixel */
"64 64 150 2 ",
"   c None",
".  c #17111A",
"X  c #21171D",
"o  c #25191E",
"O  c #2A1D1E",
"+  c #2E211E",
"@  c #32241E",
"#  c #392A1E",
"$  c #2B1C20",
"%  c #332621",
"&  c #3D2626",
"*  c #362C23",
"=  c #392D22",
"-  c #3B3024",
";  c #43321F",
":  c #422D23",
">  c #4C2D2B",
",  c #522F2F",
"<  c #463420",
"1  c #53322C",
"2  c #59362E",
"3  c #5D3C2B",
"4  c #653F2E",
"5  c #603930",
"6  c #6B3F33",
"7  c #5D4424",
"8  c #574A2C",
"9  c #584A2C",
"0  c #624426",
"q  c #67442A",
"w  c #69462A",
"e  c #6D4A29",
"r  c #765926",
"t  c #79542A",
"y  c #7F473F",
"u  c #7F483E",
"i  c #695A31",
"p  c #726134",
"a  c #7F4640",
"s  c #844C3E",
"d  c #884F3E",
"f  c #825035",
"g  c #885A31",
"h  c #87503A",
"j  c #8B523D",
"k  c #8E5838",
"l  c #915B37",
"z  c #93573E",
"x  c #945B3C",
"c  c #9C5E3F",
"v  c #806027",
"b  c #876429",
"n  c #8C642B",
"m  c #876B2F",
"M  c #8F6A2A",
"N  c #936D2A",
"B  c #967029",
"V  c #816D38",
"C  c #976136",
"Z  c #9E6A34",
"A  c #9D613C",
"S  c #87743A",
"D  c #A16D32",
"F  c #A1663B",
"G  c #A5693B",
"H  c #AC6D3C",
"J  c #A67332",
"K  c #AF7734",
"L  c #AF7833",
"P  c #AE723C",
"I  c #B37A35",
"U  c #B2733C",
"Y  c #B8753E",
"T  c #B57A3B",
"R  c #BD7B3D",
"E  c #814840",
"W  c #8F5240",
"Q  c #955641",
"!  c #985742",
"~  c #9B5942",
"^  c #A35D45",
"/  c #A35C48",
"(  c #A46242",
")  c #AA6344",
"_  c #AF6944",
"`  c #A96549",
"'  c #B46D44",
"]  c #B67142",
"[  c #BA7442",
"{  c #BF7A43",
"}  c #B3734B",
"|  c #BA7C4C",
" . c #C37E40",
".. c #AF832C",
"X. c #B0842C",
"o. c #BE8137",
"O. c #BE813A",
"+. c #C08C31",
"@. c #C3833A",
"#. c #CA863F",
"$. c #C68939",
"%. c #CD8B3D",
"&. c #D18D3E",
"*. c #CE9832",
"=. c #D09C30",
"-. c #D5923D",
";. c #D9963D",
":. c #DC9A3C",
">. c #E09E3C",
",. c #DFA138",
"<. c #E5A23B",
"1. c #E8A63A",
"2. c #ECAB39",
"3. c #F0AF39",
"4. c #F7B737",
"5. c #F8B737",
"6. c #FEBE36",
"7. c #F3B238",
"8. c #A18242",
"9. c #BD814E",
"0. c #BC884C",
"q. c #A79043",
"w. c #B49747",
"e. c #BD934B",
"r. c #C78241",
"t. c #C88340",
"y. c #CB8C46",
"u. c #C1874F",
"i. c #C58A4D",
"p. c #C98C49",
"a. c #C0964C",
"s. c #CF964B",
"d. c #C49A4D",
"f. c #D19244",
"g. c #D0964B",
"h. c #C68E50",
"j. c #CA9451",
"k. c #CF9B52",
"l. c #CFB34F",
"z. c #D0B44F",
"x. c #D4A152",
"c. c #D8A551",
"v. c #DEAF54",
"b. c #F1BA44",
"n. c #E1B556",
"m. c #E8BE58",
"M. c #ECC459",
"N. c #F1CB59",
"B. c #F8D45B",
"V. c #FFDE5D",
/* pixels */
"                                                                                                                                ",
"                                                                                                                                ",
"                                                                                                                                ",
"                                                                                                                                ",
"                                                                                                                                ",
"                                                                                                                                ",
"                                                                                                                                ",
"                                                                                                                                ",
"                                                                                                                                ",
"                                                                                                                                ",
"                                                                                                                                ",
"                                                                                                                                ",
"                                                                                                                                ",
"                                                                                                                                ",
"                                                                                                                                ",
"                                                                                                                                ",
"                                                        . . . . . . . .                                                         ",
"                                                        p S S S S S m r O                                                       ",
"                                                - * = - w.N.N.N.N.N.b.o.; # # # #                                               ",
"                                          . . i z.z.l.l.0.} } } } } ' R *.=.*.*.r . .                                           ",
"                                        9 S V 8.x.x.x.k.f.#.#.#.#.%.#.%.-.&.-.f.J v v 7                                         ",
"                                      % S N.N.c.) ) ) ) <.6.6.6.6.6.6.1._ ) ) ) &.7.4.M @                                       ",
"                                    % q.a.} } y.1.1.1.1.4.6.6.6.6.6.6.4.2.1.1.<.t.] ] O.X.#                                     ",
"                                  9 S a.g.t.t.:.6.6.6.6.6.6.6.<.<.6.6.6.6.6.6.6.<.t.t.%.$.b 7                                   ",
"                                O S M.| #.6.5.5.6.6.6.6.6.6.5.r.{ 7.5.6.6.6.6.6.5.5.6.&.' 1.N O                                 ",
"                              = q.e.u.f.7.5.#.-.6.6.6.6.6.1.] x.c.[ <.6.6.6.6.6.;.r.4.3.:. .o.X.<                               ",
"                            9 p d.s.%.7.6.5.] ' :.7.6.6.<.f.i.m.M.j.f.<.6.6.4.,.] ' 7.6.7.y.&.%.b 7                             ",
"                          . S N.} #.6.6.6.5.] / ` :.6.6.{ u.V.V.V.V.j.] 4.5.1.` ~ ' 7.6.6.6.&.) 1.N . .                         ",
"                          . S N.} #.6.6.6.5.] | n.i.[ [ c.M.V.V.V.V.M.c.| [ r.v.9._ 7.6.6.6.&.) 2.B . .                         ",
"                          . S N.} #.6.6.6.4.] h.B.x.u.u.M.V.V.V.V.V.V.M.h.u.k.B.j.' 3.6.6.6.&.) :.M . .                         ",
"                          . S N.} #.6.6.6.5.Y i.V.V.V.V.V.V.V.V.V.V.V.V.V.V.V.V.j.' 7.6.6.6.%.^ @.t . .                         ",
"                          . m b.' #.6.6.6.6.1.f.0.M.V.V.V.V.V.V.V.V.V.V.V.V.N.h.f.<.6.6.6.6.%.^ @.t . .                         ",
"                          . b 3.' #.6.6.6.6.6.;./ n.V.V.V.V.V.V.V.V.V.V.V.V.m.` &.6.6.6.6.6.&.^ @.t . .                         ",
"                          . b 7.' #.6.6.6.6.6.;./ n.V.V.V.V.V.V.V.V.V.V.V.V.m.` &.6.6.6.6.6.&.^ @.t . .                         ",
"                          . 3 U -.%.#.2.6.6.6.7.:.p.u.u.9.h.0.h.h.0.h.u.u.i.i.f.3.6.6.6.4.#.R U c 3 . .                         ",
"                          . > j $.#.{ :.3.6.6.6.6.y.[ [ [ [ [ [ [ [ [ [ [ [ t.6.6.6.6.3.;.Y H H j , . .                         ",
"                          . 2 ! s T 3.] t.6.6.6.6.6.5.5.6.6.4.6.5.5.6.5.5.5.6.6.6.6.6.&.) @.F s Q 5 . .                         ",
"                            & 2 C P T %.%.r.r.:.6.6.6.6.6.6.6.6.6.6.6.6.6.6.6.6.>. . .R U c z s 2 &                             ",
"                              O Z G x $.%.] ] t.<.<.3.6.6.6.6.6.6.6.6.6.6.3.1.1.t.) ) H H d z x % .                             ",
"                              $ h U O.k T 5.5.-.) ^ #.6.6.6.6.6.6.6.6.6.6.%./ / Y $.$.F s ! P I & .                             ",
"                              $ > g @.c A P T O.-.-.&.r.#.r.t.r.t.t.t.t.#.R Y Y G c c F G c f 0 @                               ",
"                                . 7 D F Q j E G ,.<.-.] ' ' ] ] ] ] _ ) ) U T T F d s G R k 1 .                                 ",
"                                  $ % s H O.( Q s s P 7.7.7.7.7.7.4.;.$.$.A a a G T c Y I : o                                   ",
"                                    o > 3 e z A F z c T T T T T T T G C A F A W P I 4 3 0 @                                     ",
"                                      . . X 6 l J k s y s s a s h a E E E C Z j l n @ . .                                       ",
"                                            $ $ @ O , ! U Y ! U U ~ P T ~ 3 + $ @ @                                             ",
"                                                    & 2 q q 2 w w 2 q w 3 :                                                     ",
"                                                      . . . . . . . . . .                                                       ",
"                                                                                                                                ",
"                                                                                                                                ",
"                                                                                                                                ",
"                                                                                                                                ",
"                                                                                                                                ",
"                                                                                                                                ",
"                                                                                                                                ",
"                                                                                                                                ",
"                                                                                                                                ",
"                                                                                                                                ",
"                                                                                                                                ",
"                                                                                                                                ",
"                                                                                                                                ",
"                                                                                                                                ",
"                                                                                                                                ",
"                                                                                                                                "
};
