/* XPM */
static char *explosion1676371298[] = {
/* columns rows colors chars-per-pixel */
"64 64 198 2 ",
"   c None",
".  c #FF6E1F",
"X  c #FF4D28",
"o  c #FF5328",
"O  c #FF5B28",
"+  c #FF6726",
"@  c #FF6328",
"#  c #FF6B28",
"$  c #FF7123",
"%  c #FF7C24",
"&  c #FF7428",
"*  c #FF7B28",
"=  c #FF871B",
"-  c #FF8D14",
";  c #FF9514",
":  c #FF941E",
">  c #FFA50F",
",  c #FFB20D",
"<  c #FFA31C",
"1  c #FFAC1E",
"2  c #FFAB15",
"3  c #FFB316",
"4  c #FFBD14",
"5  c #FFB31D",
"6  c #FFBB1A",
"7  c #FF8323",
"8  c #FF8C25",
"9  c #FF8329",
"0  c #FF8C29",
"q  c #FF9526",
"w  c #FF9B25",
"e  c #FF9428",
"r  c #FF9928",
"t  c #FF8030",
"y  c #FF9D32",
"u  c #FFA323",
"i  c #FFA920",
"p  c #FFA629",
"a  c #FFAD2A",
"s  c #FFB324",
"d  c #FFB42D",
"f  c #FFA335",
"g  c #FFA73F",
"h  c #FFA83B",
"j  c #FFBD3F",
"k  c #FFB437",
"l  c #FFC107",
"z  c #FFC50F",
"x  c #FFCD0D",
"c  c #FFD404",
"v  c #FFDE05",
"b  c #FFD50D",
"n  c #FFDB0D",
"m  c #FFC415",
"M  c #FFCB14",
"N  c #FFC61A",
"B  c #FFD211",
"V  c #FFDB15",
"C  c #FFD81A",
"Z  c #FFD31E",
"A  c #FFE304",
"S  c #FFEC05",
"D  c #FFE30A",
"F  c #FFEA09",
"G  c #FFF403",
"H  c #FFFD01",
"J  c #FFFE0B",
"K  c #FFED12",
"L  c #FFF211",
"P  c #FFFE13",
"I  c #FFF119",
"U  c #FFFE1D",
"Y  c #FFC02D",
"T  c #FFD324",
"R  c #FFDB21",
"E  c #FFC73F",
"W  c #FFE629",
"Q  c #FFEE29",
"!  c #FFF322",
"~  c #FFFD23",
"^  c #FFFF2B",
"/  c #FFE736",
"(  c #FFF630",
")  c #FFFF32",
"_  c #FFFF3A",
"`  c #FFF239",
"'  c #FFA448",
"]  c #FFAE48",
"[  c #FFA743",
"{  c #FFB547",
"}  c #FFBC45",
"|  c #FFA751",
" . c #FFAF54",
".. c #FFB554",
"X. c #FFBA53",
"o. c #FFB35D",
"O. c #FFBC5B",
"+. c #FFB362",
"@. c #FFB56B",
"#. c #FFBC63",
"$. c #FFBF76",
"%. c #FFC74C",
"&. c #FFC944",
"*. c #FFD342",
"=. c #FFDC4A",
"-. c #FFC655",
";. c #FFDF56",
":. c #FFDB58",
">. c #FFE04A",
",. c #FFEA41",
"<. c #FFFF42",
"1. c #FFFE4C",
"2. c #FFEA52",
"3. c #FFF654",
"4. c #FFFE54",
"5. c #FFFE5C",
"6. c #FFC365",
"7. c #FFCF60",
"8. c #FFC46E",
"9. c #FFCB6C",
"0. c #FFD26F",
"q. c #FFD764",
"w. c #FFC472",
"e. c #FFCD74",
"r. c #FFC77F",
"t. c #FFCA7F",
"y. c #FFD27E",
"u. c #FFD774",
"i. c #FFE56F",
"p. c #FFF067",
"a. c #FFFF65",
"s. c #FFFE6C",
"d. c #FFF36D",
"f. c #FFE770",
"g. c #FFE27C",
"h. c #FFFF76",
"j. c #FFFF7D",
"k. c #FFF179",
"l. c #FFC48A",
"z. c #FFD583",
"x. c #FFDA83",
"c. c #FFDD89",
"v. c #FFD58A",
"b. c #FFC690",
"n. c #FFC995",
"m. c #FFDE90",
"M. c #FFD49B",
"N. c #FFDF9C",
"B. c #FFED83",
"V. c #FFE18A",
"C. c #FFFF83",
"Z. c #FFF68F",
"A. c #FFFE8A",
"S. c #FFE394",
"D. c #FFEC94",
"F. c #FFE59A",
"G. c #FFEB9A",
"H. c #FFFF94",
"J. c #FFFF9B",
"K. c #FFF49E",
"L. c #FFCFA1",
"P. c #FFD3A3",
"I. c #FFDFA0",
"U. c #FFD4AB",
"Y. c #FFD8B1",
"T. c #FFDFBD",
"R. c #FFEDA4",
"E. c #FFE9AC",
"W. c #FFF1A5",
"Q. c #FFFEA3",
"!. c #FFF4AD",
"~. c #FFFDAC",
"^. c #FFE7B7",
"/. c #FFEFB4",
"(. c #FFE4BD",
"). c #FFEAB8",
"_. c #FFF6B3",
"`. c #FFFEB4",
"'. c #FFF4BC",
"]. c #FFFEBB",
"[. c #FFE3C9",
"{. c #FFEDCB",
"}. c #FFE7C3",
"|. c #FFF7C1",
" X c #FFFFC3",
".X c #FFFECC",
"XX c #FFE9D3",
"oX c #FFEDDD",
"OX c #FFE6D2",
"+X c #FFFFD4",
"@X c #FFF3DD",
"#X c #FFFFDB",
"$X c #FFFFE2",
"%X c #FFF6EE",
"&X c #FFFFEB",
"*X c #FFF2E5",
"=X c #FFFDF4",
"-X c #FFFFFE",
/* pixels */
"                                                        o o o o o o                                                             ",
"                                                        o o o o o o                                                             ",
"                                                    o o o o o o o o o X o                                                       ",
"                                                  o o o o o o o O o o O o o o o                                                 ",
"                                                o o o o o o X o O # + O o X o o o o                                             ",
"                                                o o o o o o o O & * * & @ o o o o o                                             ",
"                                            o o o o o o O O # & 9 8 0 9 * + o X X X X o o X o                                   ",
"                                          o o o o o o o O # * 0 0 r r 0 0 * @ o o o o o o o o o                                 ",
"                                        o o o X X o o + & 9 0 0 0 0 0 0 0 9 * & & & + O O @ o X X                               ",
"                                      o o o o o o o O & 8 e r e r e e e e e e e e 8 * & & & @ o o                               ",
"                                      o o o o O @ # & 9 r r r u i 6 6 6 5 u r r r r 0 9 9 9 * & O                               ",
"                                      o o O O & * 9 0 e e q u 6 B F G G V 6 u e e r q e e 0 r 0 &           o o                 ",
"                    o o X X           o o @ & 9 0 e r 0 0 w 6 V F J H H G B i e 0 e e e 0 e r r *         o o o o               ",
"                  o o o o X X o X     X X # 9 r q e e 0 0 u b G H H H H H F 5 0 0 e e e 0 e r e &     o X X X o o               ",
"              o o o O O + + + + @ @   X X # 8 w e q w < 1 M G H H H H H H G 5 0 9 e w i a i u e # o o + + # @ o o               ",
"            o o o o O & 9 0 9 9 t & @ o X O 9 8 8 w 3 z n S H H H H H H H G 6 0 t e 5 B n M 6 0 @ X + * 0 9 & o X o o           ",
"          o o o o + & 0 r r r w p q 8 % . . % e w d T K H H H H H H H H H F 2 8 e 5 b G H S M u * + & r p w * O X X o           ",
"          o o o @ & 0 e r 0 e u 6 6 2 2 > ; = r k E ,.~ H H H H H H H H H D < : 3 D G H H H D 4 q 9 9 r w r * o X o o           ",
"          o o O # 9 r e e q u 6 B b b V R Y f h } ;.s.4.^ U U U U U U U K N p a V H H H H H F m i e 0 e r q * O X o o o         ",
"          o o + & 0 e 0 e s b F G G G ~ 3.f.9...{ 7.Z.J.j.h.h.h.h.j.C.d.&.d } *.Q J H H H H D 6 r 0 0 e q e 9 # O o o o o       ",
"          o o # * 9 e e u B H H H H P _ C.Q.G.e...6.R.].].].].].].]. XW.w...q.p.3.) P H H H b 5 u w r q r e 0 * # o o X o       ",
"            O & 9 0 r i M F H H H U 1.j.Q.].~.x.O.6.S.'..X#X+X.X.X X]._.S.c.D.H.H.j._ J G F M 6 N B m u q e e 0 & O X o o o     ",
"            O & 9 0 q m F H H H J 1.C.~.`.].`.F.y.y.N.|.+X$X#X#X+X X].].`.].`.]. X~.h.^ L A b M F H D 6 w r r e 9 O X o o o     ",
"              + & 9 u b H H J ~ <.h.Q.`.`.`.].'.^.(.{.@X&X=X=X&X$X#X#X#X#X+X X]. X].J.a.~ S S F H H F M 1 q e r 9 O X o o o     ",
"              O # * r C H H J _ C.~.`.`.`.]. X#X=X=X-X-X-X-X-X-X-X-X-X=X=X$X#X X].`. XQ.1.J H H H H F M i r e e * @ X o o o     ",
"              O @ & e 6 v G J 1.Q.].].]..X+X#X=X-X-X-X-X-X-X-X-X-X-X-X-X-X=X&X+X X]. X`.h._ P H H H D 6 w e r e 9 + o o o o     ",
"        o o o @ & 9 e u 4 v J 4.~.].`..X#X=X-X-X-X-X-X-X-X-X-X-X-X-X-X-X-X-X-X=X#X X].`.J.h._ J H H M u 0 r r e 0 & @ o o o     ",
"      o o @ & * 0 i 6 6 4 4 M :.W.`.`..X=X-X-X-X-X-X-X-X-X-X-X-X-X-X-X-X-X-X-X-X&X#X X~.`.Q.4.P H S m 0 9 e e r e 0 & O X o     ",
"      X O * 0 9 q M S S b , w O.S.~.`.+X=X-X-X-X-X-X-X-X-X-X-X-X-X-X-X-X-X-X-X-X-X&X.X~.`.~.s.~ J F 4 q 0 e e e r r * O X X     ",
"    X X O 9 y e u n H H F N k 8.S.Q.`.+X=X-X-X-X-X-X-X-X-X-X-X-X-X-X-X-X-X-X-X-X-X-X$X X].`.A.3.Q b z 5 w 0 0 e r w 9 O X o     ",
"    o X O 9 e 0 w V H H J ! 2.B.~.`.`.+X-X-X-X-X-X-X-X-X-X-X-X-X-X-X-X-X-X-X-X-X-X-X=X#X.X`.Q.B.=.M c b 6 r 9 e q r 9 O X       ",
"    o X @ * e e w b H H J ^ 5.H.`.`.`.+X=X-X-X-X-X-X-X-X-X-X-X-X-X-X-X-X-X-X-X-X-X-X-X&X+X`.!.V.-.M A S b u r e r e * O X       ",
"    o X O 9 e e w b H H J ~ 5.H.`.`.`.+X=X-X-X-X-X-X-X-X-X-X-X-X-X-X-X-X-X-X-X-X-X-X-X=X$X].R.e.&.M A H F M i r 0 9 # O X       ",
"    o X O * e 0 w M G H J ^ 5.A.`.`.`..X=X-X-X-X-X-X-X-X-X-X-X-X-X-X-X-X-X-X-X-X-X-X-X-X=X.XF.6.k M S H G B 5 r 9 & @ o o       ",
"      o O & 9 0 w 5 B S J ~ a.H.`.`.`..X#X=X-X-X-X-X-X-X-X-X-X-X-X-X-X-X-X-X-X-X-X-X-X-X-X$XN.X.s z A H G B s w * @ o o o       ",
"      o o O & 9 r r 1 v J U 1.C.~.].`.].+X&X-X-X-X-X-X-X-X-X-X-X-X-X-X-X-X-X-X-X-X-X-X=XoX^.l.] d Z F H G B 5 r * O X X o       ",
"      o o o # 9 0 e u B H J ^ a.J.`.`.]..X$X-X-X-X-X-X-X-X-X-X-X-X-X-X-X-X-X-X-X-X-X%XOXn.+.' [ E ` U J S b 5 w * O X o o       ",
"      o o X O # 9 9 r 6 D G J _ j.Q.`.]. X#X-X-X-X-X-X-X-X-X-X-X-X-X-X-X-X-X-X-X-X-X%XT.@.r y ..q.5.) J S x 5 r * O X o o       ",
"      o o X o O # & 9 u m A H U 4.C.Q.`.].+X&X=X-X-X-X-X-X-X-X-X-X-X-X-X-X-X-X-X-X-X=XoXM.9.9.x.V.i.` J G b 1 q t # O o o       ",
"        o o o o o @ * * w x H J ^ 5.C.J.~. X+X&X-X-X-X-X-X-X-X-X-X-X-X-X-X=X=X-X-X-X-X=X.X!.~._.S.9./ G G x 5 r 9 * @ o o       ",
"          o o X X O @ @ t N H H P ~ <.s.J.]. X+X$X-X-X-X-X-X-X-X-X-X-X=XoX[.}.OX%X-X=X$X.X X X].c.} C H G B 5 r 0 * # o o       ",
"          o o o o o o O 9 m G H H J J _ j.Q.`. X+X&X-X-X-X-X-X-X-X-X-X%X(.n.l.U.oX-X&X.X`.`. X_.0.s c G G B 5 q t & @ o o       ",
"              o o X X o * 4 G H H H H U 5.A.~.]. X#X=X-X%X=X-X-X-X-X-X%XP.@.w.P.{.$X+X`.`.`._.F.-.5 c H G B 5 q 0 9 & O X       ",
"                o X o O 9 m H H H G F F ^ s.~.].`..X$X*XXXoX=X-X-X-X-X*Xb.o.l.E.|..X|.`.].`.G.0.{ i n H G B 1 r e e * @ X o     ",
"                o X O O 8 m G H H v M b P 4.Q.].`. X#X{.M.L.[.%X-X-XoXY.@. .z._.].].`.`. X`.V.X.f i n H G m w r e r 9 O X o     ",
"            o o X o @ & r m S H H M u 4 G _ C.`.`. X XS.+.o.l.[.=X%XU.+.' ..c.].].`.`.]..X_.u.d : w b H D u 0 r r r 9 O X o     ",
"          o o O @ # & 9 q 5 M D D 6 u 4 G U 4.C.H.~.].G.9.O.w.M.T.U.@.' ..y.R. X X].`.~.Q.Z.=.5 ; q 6 b m r 9 e r r 9 O X o     ",
"          X o # * 9 0 e r w < 5 6 6 6 c H J U _ a.J.].|.R.S.x.w.+.| ' +.v.^.|. X.X X`.H.h.1.W M < r w i u r e 0 r r * O X o     ",
"          o + * e r r r e e 0 9 8 : M F H H H J ^ 5.j.Q.~.K.e.[ : - u %.k.H.H.A.A.A.j.5._ P F m 1 e 0 0 0 e r e q r 9 O X X o   ",
"          O & 9 0 r q e e r e & + 9 4 D H H H H J ~ ^ 4.j.g.X.e 8 : 5 R ( _ ) ) _ ^ ^ ~ J J D 6 u r 0 0 e e e e q r 9 O X X o   ",
"        O # * 0 r q r e e r 0 + o & u B F S F G G H H I >.-.f = 8 w 5 z S G H G H G G H G S B 1 r e e e e e e e r r * O X o o   ",
"        o # 9 e r r r r e 0 & o o & w i 5 5 6 m c A F M k y r 8 q q w 3 b A A v v A A A c M 5 q 0 0 0 0 8 e e e e e & O X o o   ",
"      o o @ & 0 0 r r r 0 * O X o & 0 r e e 0 u 6 M M 5 w 8 e e e 0 0 q s m m m m m M m 5 1 u e 0 * * 9 0 e r r e 9 & O o X o   ",
"      o o O @ & * * 9 8 0 & O X o @ & 9 0 0 0 q u i i q q 8 q e 0 9 0 q u p i i 1 u i u w r r r * + # * 9 8 r r 8 * @ o o o o   ",
"        o o o O @ # & 9 * + o X o o @ * 0 r r e r e e e e q q 0 & & 0 q e e e e e e e e e e r e & o O # 9 e r q 9 # O o o o o   ",
"          o o o O O @ # # @ o X o o O # 0 r r r r 0 e r q e 9 & + # 9 e e e e e 9 9 0 e r e e 0 # o o + 9 r r * & O o o o o     ",
"            o o X o o o o o o o o X o + * 0 e q e r e r r 9 & O o O * 0 8 r e 8 * & 9 r r 8 9 & @   o @ * e 9 # O o o o o       ",
"              o o X o o o       o o o O # & & * & * 9 0 0 * @ o     # * 9 0 9 * # + # * * 9 & +       O + & & O o o o o         ",
"                                O o o o O O o o o @ & * * # O o     @ # & & & @ O o o O + + O o       o o O o o o o o           ",
"                                  o o o X X X X X o O + + @ o X     o O + + O o o X X X o O o o       o X X X o o o             ",
"                                  o o o o o o o X o O o o O o o     o o o o O o o o o o o o o o       o o o o o o               ",
"                                    o o o o o o o o X X o o o o       o o o o o o o o o o o o         o o o o o                 ",
"                                      o o o o o O o o o o o o                                           o o                     ",
"                                      o o o o o X o o o o o                                                                     "
};
