/* XPM */
static char *Wall_641675956131[] = {
/* columns rows colors chars-per-pixel */
"64 64 14 1 ",
"  c None",
". c #141619",
"X c #282E33",
"o c #394148",
"O c #3C454C",
"+ c #4B5359",
"@ c #665A46",
"# c #515D66",
"$ c #5E666B",
"% c #6B767F",
"& c #73797D",
"* c #869199",
"= c #A4ACB2",
"- c #C1C7CC",
/* pixels */
"        ##########                            ##########        ",
"        #--=--=--#                            #--=--=--#        ",
"        #-======-#                            #-======-#        ",
"        #========#                            #========#        ",
"        #-======*######@#######################*======-#        ",
"        #=======**--=-=-=--=-=---=-=--=--=-=--**=======#        ",
"        #=======*==============================*=======#        ",
"        #-============================================-#        ",
"        #--=***==--=-=--=-=--=----=--=-=--=-=--==***=--#        ",
"        O%%%#*===OOOOOOOOOOOOOOOOOOOOOOOOOOOOOO===*#%%%O        ",
"         O%%#-==-O............................O-==-#%%O         ",
"          O%#====O............................O====#%O          ",
"           O#-==-O............................O-==-#O           ",
"            #===-O............................O-===#            ",
"            #-==-O............................O-==-#            ",
"            #-===O............................O===-#            ",
"            #====O............................O====#            ",
"            #-==-O............................O-==-#            ",
"            #-===O............................O===-#            ",
"            #-==-O............................O-==-#            ",
"            #===-O............................O-===#            ",
"            #-===O............................O===-#            ",
"            #===-O............................O-===#            ",
"            #-===O............................O===-#            ",
"            #-==-O............................O-==-#            ",
"            #===-O............................O-===#            ",
"            #-==-O............................O-==-#            ",
"            #-===O............................O===-#            ",
"            #===-O............................O-===#            ",
"            #-===O............................O===-#            ",
"            #===-O............................O-===#            ",
"            #-==-O............................O-==-#            ",
"            #====O............................O====#            ",
"            #===-O............................O-===#            ",
"            #===-O............................O-===#            ",
"        #####*==-OOOOOOOOOOOOOOOOOOOOOOOOOOOOOO-==*#####        ",
"        #--=***==-=--=-=-=--=----=-=--=-=-=--=-==***=--#        ",
"        #-============================================-#        ",
"        #=======*==============================*=======#        ",
"        #-======**======-=--=---=-=--=-=======**======-#        ",
"        #-======*#%%%%%%%%%%%%%%%%%%%%%%%%%%%%#*======-#        ",
"        #========#%%%%%%%%%%%%%%%%%%%%%%%%%%%%#========#        ",
"        #-======-#OOOOOOOOOOOOOOOOOOOOOOOOOOOO#-======-#        ",
"        #--=-==--#OOOOXXXOOOOOXXXOOOOOXXXOOOOO#--==-=--#        ",
"        O%%%%%%%%O%O&&$&$$+O==*=**%O&&$&$$+O==O%%%%%%%%O        ",
"        O%%%%%%%%O%X&$$$$++X=****%%X&$$$$++X=*O%%%%%%%%O        ",
"         O%%%%%%O%%O+++++++O%%%%%%%O+++++++O%%%O%%%%%%O         ",
"          OOOOOO%##X+o+o+ooX%#%#%##X+o+o+ooX%#%#OOOOOO          ",
"            XOOOOOXXOOOOOOXXXOOOOOXXOOOOOOXXXOOOOOXX            ",
"            X*%O==*=**%O==*=**%O==*=**%O==*=**%O==*X            ",
"            X%%X=****%%X=****%%X=****%%X=****%%X=**X            ",
"            X%%O%%%%%%%O%%%%%%%O%%%%%%%O%%%%%%%O%%%X            ",
"            X##X%#%#%##X%#%#%##X%#%#%##X%#%#%##X%#%X            ",
"            XOXXXOOOOOOXOOOOOOXXXOOOOOOXOOOOOOXXXOOX            ",
"            X&$&$$+O==*=**%O&&$&$$+O==*=**%O&&$&$$+X            ",
"            X$$$$++X=****%%X&$$$$++X=****%%X&$$$$++X            ",
"            X++++++O%%%%%%%O+++++++O%%%%%%%O+++++++X            ",
"            Xo+o+ooX%#%#%##X+o+o+ooX%#%#%##X+o+o+ooX            ",
"            XOOOOOXXXOOOOOXXXOOOOOXXXOOOOOXXXOOOOOXX            ",
"            X*%O==*=**%O==*=**%O==*=**%O==*=**%O==*X            ",
"            X%%X=****%%X=****%%X=****%%X=****%%X=**X            ",
"            X%%O%%%%%%%O%%%%%%%O%%%%%%%O%%%%%%%O%%%X            ",
"            X##X%#%#%##X%#%#%##X%#%#%##X%#%#%##X%#%X            ",
"            XOXXXOOOOOXXOOOOOOXXXOOOOOXXOOOOOOXXXOOX            "
};
