/* XPM */
static char *Door_2_1675956130[] = {
/* columns rows colors chars-per-pixel */
"64 64 57 1 ",
"  c None",
". c #141619",
"X c #1B1E22",
"o c #21262A",
"O c #24272A",
"+ c #24292D",
"@ c #282E33",
"# c #2F363B",
"$ c #31383E",
"% c #333B41",
"& c #363E44",
"* c #3A3F44",
"= c #3C454C",
"- c #3D454C",
"; c #414549",
": c #44484C",
"> c #424B53",
", c #434D55",
"< c #4E5155",
"1 c #48525A",
"2 c #4A555D",
"3 c #4C5860",
"4 c #4F5A63",
"5 c #515D66",
"6 c #57636C",
"7 c #5A656E",
"8 c #626E77",
"9 c #686D71",
"0 c #6B767F",
"q c #747A7F",
"w c #747E85",
"e c #748088",
"r c #7B8288",
"t c #81888D",
"y c #818A90",
"u c #878C90",
"i c #889096",
"p c #869199",
"a c #879199",
"s c #8E9499",
"d c #8E969C",
"f c #8D979F",
"g c #949A9E",
"h c #949A9F",
"j c #909AA1",
"k c #919AA1",
"l c #959CA1",
"z c #939DA4",
"x c #9BA1A6",
"c c #9AA3AA",
"v c #A4ACB2",
"b c #A7AFB5",
"n c #AAB2B8",
"m c #AEB5BB",
"M c #B1B8BE",
"N c #B7BEC3",
"B c #C1C7CC",
/* pixels */
"================================================================",
"================================================================",
"=lllldyillllyydldyilllllliyillllyydliyilllllliydldyylllllliyill=",
"=BBBBNvmBBBBvvNBNvmBBBBBBmvmBBBBvvNBmvmBBBBBBmvNBNvvBBBBBBmvmBB=",
"=mmmmnvbmmmmvvnmnvbmmmmmmbvbmmmmvvnmbvbmmmmmmbvnmnvvmmmmmmbvbmm=",
"=vvvvvvvvvvvvvvvvvvvvvvvvvvvvvvvvvvvvvvvvvvvvvvvvvvvvvvvvvvvvvv=",
"=vvvvvvvvvvvvvvvvvvvvvvvvvvvvvvvvvvvvvvvvvvvvvvvvvvvvvvvvvvvvvv=",
"=vvvvvvvvvvvvvvvvvvvvvvvvvvvvvvvvvvvvvvvvvvvvvvvvvvvvvvvvvvvvvv=",
"=mmbvbmmmmvvmmbvbmmmmmmbvnmnvbmmmmbvnmnvbmmmmmmbvbmmvvmmmmmmnvv=",
"=BBmvmBBBBvvBBmvmBBBBBBmvNBNvmBBBBmvNBNvmBBBBBBmvmBBvvBBBBBBNvv=",
"=BBmvmBBBBvvBBmvmBBBBBBmvNBNvmBBBBmvNBNvmBBBBBBmvmBBvvBBBBBBNvv=",
"@55555555555555555555555555555555555555555555555555555555555555@",
"@55555555555555555555555555555555555555555555555555555555555555@",
"@551,153,,,,551,153,,,,,,353,,,,551,353,,,,551,,,,,,55,,351,,,,@",
"@55,=,52====55,=,52======252====55,=252====55,======55==25,====@",
"@&&$#$&%####&&$#$&%######%&%####&&$#%&%####&&$######&&##%&$####@",
"@@@@@@@@@@@@@@@@@@@@@@@@@@@@@@@@@@@@@@@@@@@@@@@@@@@@@@@@@@@@@@@@",
"@@@$&&&&&&&&@@+oooooooooooooooooooooooooooooooooo+@@&&&&&&&&$@@@",
" @@,55555555@@X..................................X@@55555555,@@ ",
" @@,55555555@@X..................................X@@55555555,@@ ",
" @@,57000055@@X..................................X@@55000075,@@ ",
" @@,57000055@@X..................................X@@55000075,@@ ",
" @@,57000055@@X..................................X@@55000075,@@ ",
" @@,57000055@@X..................................X@@55000075,@@ ",
" @@,57000055@@X..................................X@@55000075,@@ ",
" @@,57000055@@X..................................X@@55000075,@@ ",
" @@,57000055@@X..................................X@@55000075,@@ ",
" @@,57000055@@X..................................X@@55000075,@@ ",
" @@,57000055@@X..................................X@@55000075,@@ ",
" @@,57000055@@X..................................X@@55000075,@@ ",
" @@,57000055@@X..................................X@@55000075,@@ ",
" @@,57000055@@X..................................X@@55000075,@@ ",
" @@,57000055@@X..................................X@@55000075,@@ ",
" @@,57000055@@X..................................X@@55000075,@@ ",
" @@,57000055@@X..................................X@@55000075,@@ ",
" @@,57000055@@X..................................X@@55000075,@@ ",
" @@,57000055@@X..................................X@@55000075,@@ ",
" @@,57000055@@X..................................X@@55000075,@@ ",
" @@,57000055@@X..................................X@@55000075,@@ ",
" @@,57000055@@X..................................X@@55000075,@@ ",
" @@,57000055@@X..................................X@@55000075,@@ ",
" @@,57000055@@X..................................X@@55000075,@@ ",
" @@,57000055@@X..........=560855007555=..........X@@55000075,@@ ",
" @@,57000055@@X..........=560855007555=..........X@@55000075,@@ ",
" @@,57000055@@X........=6800000000000085=........X@@55000075,@@ ",
" @@,57000055@@X........=4800000000000085=........X@@55000075,@@ ",
" @@,57000055@@X......qqeeahfjzjjkkkkkkaewqq......X@@55000075,@@ ",
" @@,57000055@@X......vvgacvvvvvvvvvvvvcakvv......X@@55000075,@@ ",
" @@,57000055@@X...O;:xcfpzcccccccccccczpfcc::O...X@@55000075,@@ ",
" @@,57000055@@X...;vvapapppppppppppppppppaavv:...X@@55000075,@@ ",
" @@,57000055@@X...-ccaaappppppppppppppppppacc;...X@@55000075,@@ ",
" @@,57000055@@X...=aaaaappppppppppppppppppaaa*...X@@55000075,@@ ",
" @@,57000055@@X...&appppppppppppppppppppppppa*...X@@55000075,@@ ",
" @@,57000055@@X.<BNvvBBBBmvmBNvvBBBBBBNvmBBvvNB<.X@@55000075,@@ ",
" @@,57000055@@X.<BNvvBBBBmvmBNvvBBBBBBNvmBBvvNB<.X@@55000075,@@ ",
" @@,57000055@@9ugmnvvmmmmnvvmnvvmmmmmmnvbmmvvnmhu9@@55000075,@@ ",
" @@,47000055@@sBNvvvvvvvvvvvvvvvvvvvvvvvvvvvvvvNBs@@55000075,@@ ",
" @@,56000055@@tmnvvvvvvvvvvvvvvvvvvvvvvvvvvvvvvnmt@@55000075,@@ ",
" @@,57w00055@@rvvvvvvvvvvvvvvvvvvvvvvvvvvvvvvvvvvr@@55000075,@@ ",
" @@,56888855@@tmnvvvvvvvvvvvvvvvvvvvvvvvvvvvvvvnmt@@55888865,@@ ",
" @@,55555555@@sBNvvvvvvvvvvvvvvvvvvvvvvvvvvvvvvNBs@@55555555,@@ ",
" @@,23532222@@xBNvvvvvvvvvvvvvvvvvvvvvvvvvvvvvvMNh@@22553222>@@ ",
"   ==,52====  BBNvvvvvvvvvvvvvvvvvvvvvvvvvvvvvvvvv  ==55,====   ",
"   ==,52====  BBNvvvvvvvvvvvvvvvvvvvvvvvvvvvvvvvvv  ==55,====   "
};
